<mxfile host="Electron" modified="2023-08-14T12:47:50.970Z" agent="Mozilla/5.0 (X11; Linux x86_64) AppleWebKit/537.36 (KHTML, like Gecko) draw.io/21.2.8 Chrome/112.0.5615.165 Electron/24.2.0 Safari/537.36" etag="q3yRPjFqEOF1b_nX63-z" version="21.2.8" type="device" pages="2">
  <diagram name="sim1" id="jmmCPHh3s-1mKK6pZG3U">
    <mxGraphModel dx="2720" dy="1686" grid="1" gridSize="10" guides="1" tooltips="1" connect="1" arrows="1" fold="1" page="1" pageScale="1" pageWidth="1100" pageHeight="850" math="0" shadow="0">
      <root>
        <mxCell id="0" />
        <mxCell id="1" parent="0" />
        <mxCell id="NF88TdcVxK6JHxtNJrKi-4" value="" style="shape=image;imageAspect=0;aspect=fixed;verticalLabelPosition=bottom;verticalAlign=top;image=data:image/png,iVBORw0KGgoAAAANSUhEUgAAAr0AAAKZCAYAAAC1GZP4AAAAOXRFWHRTb2Z0d2FyZQBNYXRwbG90bGliIHZlcnNpb24zLjcuMiwgaHR0cHM6Ly9tYXRwbG90bGliLm9yZy8pXeV/AAAACXBIWXMAAA9hAAAPYQGoP6dpAADMt0lEQVR4nOzdd3RU1drH8e9MMum9QAKEKr0XFaUqgjRRrBhF8cq1ICj6eq8NC1ZsV1GCXbCAFVBQQFDpAoI0KdJL6KQnpE1mzvtHJBLSJiEzSSa/z1pZWdlnnz1P5skkT87ss7fJMAwDERERERE3Zq7qAEREREREnE1Fr4iIiIi4PRW9IiIiIuL2VPSKiIiIiNtT0SsiIiIibk9Fr4iIiIi4PRW9IiIiIuL2PKs6gOrMbrdz9OhRAgMDMZlMVR2OiIiIiJzDMAzS09OpV68eZnPJ13NV9Jbi6NGjxMTEVHUYIiIiIlKG+Ph4GjRoUOJxFb2lCAwMBPKfxKCgoEof32q1smjRIgYMGIDFYqn08cU1lEf3oDy6B+XRPSiP7sFVeUxLSyMmJqagbiuJit5SnJnSEBQU5LSi18/Pj6CgIL2oazDl0T0oj+5BeXQPyqN7cHUey5qKqhvZRERERMTtqegVEREREbenoldERERE3J7m9DrAarVitVqdMu7Zn6VmUh7dg/LoHpRH96A8ugdX5dHR8U2GYRhOjaQGiouLIy4uDpvNxq5du5g5cyZ+fn5VHZaIiIiInCMzM5PY2FhSU1NLXXhARW8p0tLSCA4OJiEhwWmrNyxevJj+/fvr7tQaTHl0D8qje1Ae3YPy6B5clce0tDQiIiLKLHo1vcEBFovFqcly9vjiGsqje1Ae3YPy6B6UR/fgijrKESp6nSQvL4+8vLxS+1itVjw9PcnOzsZms7koMqlsrs6j2WzGYrFoa2wREZFyUNFbyTIzM0lISOD06dNl9jUMg6ioKOLj41XA1GBVkUeLxUJgYCARERF4eHi45DFFRERqMhW9lSg3N5f4+HgsFgvR0dF4e3uXWgTZ7XYyMjIICAjAbNbqcTWVK/NoGAY2m42MjAxSUlLIysoiJiZGha+IiEgZVPRWopMnT+Lh4UGjRo0cKkLsdju5ubn4+Pio6K3BqiKPAQEBBAcHc+jQIRISEqhbt65LHldERKSmUqVVSQzDIDMzk+DgYF11E5fw9fUlKCiI9PR0tAiLiIhI6VT0VhKr1YrNZsPX17eqQ5FaJDAw0Gmbp4iIiLgTFb2VxG63A+gqr7jUmZ+3Mz9/IiIiUjwVvZVMqzCIK+nnTURExDEqekVERETE7anoFRERERG3p6JXRERERNyeil6ptkaNGoXJZGL69Ok1No7p06djMpkYNWpUpcclIiIijlPRKyIiIiJuT0WviIiIiLg9Fb0iIiIi4vZU9LqA3W6QmJFT7EdSprXEY9Xpw26vvG1uMzMzefPNN+nZsyehoaF4e3vTqFEjrrrqKmbOnOnA82nn/fffp0ePHoSEhGCxWKhTpw4dO3Zk3LhxHDhwoNwxJSUlMX78eBo1aoS3tzcNGzZk7NixJCUllXjO2XN9t2/fzogRI4iOjsbDw4NnnnmmSP/ExETuu+8+GjZsWPA9P/jggyQnJ5c7XhERESkfz6oOoDZIzsyl6/M/V3UY5+WPCVcQHuB93uPEx8czcOBAtm/fjp+fHz169CA8PJwjR46wYsUK/vzzT2JjY0sdY/To0UybNg0fHx969uxJZGQkSUlJ7Nu3jylTptCvXz8aN27scEwnTpygV69e7N69m9DQUIYOHYrdbmfGjBksXLiQtm3blnr+6tWrGTNmDNHR0fTu3ZusrCwCAwML9UlOTubiiy8mMTGRvn37YjKZWLp0KW+++SYLFixgxYoVREZGOhyziIhIVUr/9VdSvv4G68kTJfYJuPJKiIpyYVSlU9ErLmO327n22mvZvn07AwYM4PPPPy9U6GVnZ/Prr7+WOsahQ4eYNm0aDRo0YN26dUSd82LasWMH/v7+5Ypr7Nix7N69m169ejFv3jyCg4OB/Ku/gwcPZu7cuaWe/+GHHzJ+/HheffVVPD2Lf0nNnTuX7t278/vvvxMWFgZASkoKQ4YM4bfffuP+++/niy++KFfcIiIirmbPzeXkpEkkzyz7b5ZPp87VqujV9AZxmXnz5rF+/Xqio6OZNWtWkSubPj4+DB48uNQxTpzI/4+yS5cuRQpegNatW9OwYUOHY4qPj2f27NmYTCbefffdgoIXICwsjHfffbfMMVq0aMGECRMwm0t/Ob3zzjsFBS9ASEgI7777LiaTia+//prDhw87HLeIiIirWY8e5eCtIx0qeKsjFb3iMgsXLgQgNjaWgICACo3RqlUrAgMDmT9/Pi+88AL79+8/r5iWL1+O3W6nS5cutGnTpsjxTp060aFDh1LHuPrqq/Hw8Ci1T8eOHenUqVOR9vbt29O5c2fsdjvLly8vV+wiIiKukrFqFfuvvY7sLVuqOpQK0/QGFwj18+KPCVcUabfb7aRnZBAYEFDmVcKqFurndd5jHDx4EMgvXCsqMDCQadOmcccddzBhwgQmTJhAdHQ03bt3Z+DAgUUK6kmTJvHXX38VGee1114jIiKi4OpqkyZNSnzMJk2asKWUF3mjRo3KjLus8Tds2KArvSIiUqWyd+4ie+tWDFteofbcAwdJmjYNjMI3tZt8fIgcex+edeoUO545JgYOHXJavOWlotcFzGZTsTeB2e12LPYcggK8q33RW51cd911XHHFFcydO5cVK1awatUq5syZw5w5c3jqqadYvHgx7du3B/KvLi9btqzIGM888wwRERGVEo+vr2+ljGMYlbdChoiIiCPsOTmkL1xI8swvyNq82eHzLI0a0uCtt/Bp2bLEPlarVUWv1E5n5toWd+W1vIKDgxk5ciQjR44E8ufmjhs3ju+//56xY8cWFLpLly4tdZz69esDlLrMWUWWQDtXadMwzozfoEGD834cERGRsxmGgZGbW6Q978QJUr75hpRvZ2Er59KZAf36Ue+lF/EICqqsMF1CRa8DrFZr/n8rZfQxDAO73Y7dbndo3DNX9s6c5+4GDBjAe++9xxdffMHTTz9d5ioLZ54fR57T+vXr8/TTT/P999+zadMmh5/Pnj17YjKZ2LBhA9u3by8y9WLz5s0FUxvOjePcK7PF5fHM11u2bGHTpk1F5gdv27aNDRs2YDab6dmzZ7l/Dux2O4ZhYLVay5xXLKU78xov67Uu1Zvy6B6Ux/Nnz8wk5ZNPSP3mW2ynTlXOoGYz4fffT8gdo7CbzdgdqI3O/uwsjo6vorcYcXFxxMXFYbPZAFi0aBF+fn6lnuPp6UlUVBQZGRnkFvMfVWnS09MrHGtN0rdvXzp06MCWLVu49tpree+99wqtZpCdnc2KFSvo378/8M8PcXZ2NmlpaUB+8bhnzx4GDRpUZFrBrFmzgPwrpmf6lyUkJIShQ4cyb9487r77bmbMmEHQ3/+5pqSkcM899xQUt2fHcW58UHwezxwzDIO7776br776ipCQEABSU1O5++67MQyDq6++muDgYIfjPiM3N5esrCyWL19OXl5e2SdImRYvXlzVIUglUB7dg/JYATYbwevXE774ZzwrUF/kBQZiDQ0t0m4NDyele3d2RUfB3zemO8rZeczMzHSon4reYtx3333cd999pKWlERwczIABAwoKoZJkZ2cTHx9PQEAAPj4+Dj2OYRikp6cTGBiIyWSqjNCrve+++45Bgwbx888/0759+4LNKY4ePcrmzZsJCQlh3759AFgsFiB/KbMzz39CQgJ33nknvr6+dOnShQYNGpCXl8fWrVvZuXMnXl5evPrqq2Xm62zvvvsu27dvZ+XKlXTu3Jk+ffpgGAZLly4lPDycq666innz5hWK49z4gGLzeObYVVddxbZt2+jcuXPB5hTLli0jKSmJ5s2b884775Qr5jOys7Px9fWld+/eDv/cSfGsViuLFy+mf//+BbmVmkd5dA/KY/kZhkHmsmUkvPEm1r//jpaH78UXEzziJvz79MFUSc+5q/Lo6AUjFb0OsFgsZSbLZrNhMpkwm80O35R25q3sM+fVBk2aNGH9+vVMnTqVb7/9ljVr1pCbm0tUVBR9+vQhNja24Lk4U0Ce/ZxeeumlTJo0ieXLl7Njxw42btyIp6cnDRo04L777mPcuHG0LGVSfXHq1avH2rVrmThxInPmzOHHH3+kTp06jBgxgueee46HH364SBxnx3f21+fm8czXYWFhrFmzhieffJIff/yRkydPUrduXW699VaefvrpQle8y8NsNmMymRz6GRXH6Ll0D8qje1Ae/2FLTSVj+QrSf/2FrE2bi87TtdmwpaSUa0xzQADBw4cTevMIvJs2rbxgz+HsPDo6tsnQLeMlOnOlNzU11aErvfv376dJkyYOX3Gz2+2kpaURFBRUa4ped1SVeazIz50Uz2q1Mn/+fAYPHqw/sjWY8ugealse7VlZWI8cKbIkmGG1krluHem/LiFz/Xr4e9plefj37kXkmDF4hIcXPmAyY4mqi6mEnUQrg6vy6Gi9piu9IiIiIi5mGAZZGzeR8tVXpC1ciJGTU6nje7dpTd3//Af/Sy6p1HFrMhW9IiIiIi5iS08nde5cUr76mpxduyp9fM960dQZP56goUMx6V3kQlT0ioiIiFQS69GjpMyeQ/qvv2BPSS1yPC8pCePvlX3Ky+Ttjf8llxBw+WV4/b32/dnMAYH4tGrp1CkLNZmeFREREZHzYFitpC9ZQso333J65coic3PPh0dkBAG9ehN4+WX4X3op5jKWUJWSqegVERERKYVhs5G2YCGnV/+GkXPOqgl2O6fXrsWWmFihsS0xMYTceAMh116L57k3m0mlUtErIiIiUoKsP//k+MRnyd66tfIG9fQk8PLLCbnpRvwvuURzb11ERa+IiIjIOfKSkzn1xpukfPNNuacrmAMCCLpqKAE9e8I5W8SbPDzxadNaV3WrgIpeERERqZXyEhOxHj1WpD17+3ZOvfFGuTd78O3alZDrryfoygGae1sNqegVERGRWsOwWkn/dQkpX33J6d9Wl+tcr6ZNCezXD87ZkdMjKJCAyy936q5mcv5U9IqIiIjbsx45QvI335Ayaxa2UwnlOtfk60vkfWMIu+02TF5eTopQnE1Fr4iIiNR49uxsEj/8iLSFC7ClnrM+rkH+6goVWEoscMAA6j72KJbo6EqKVKqKil4RERGp0U7/9hvHnpmI9dCh8p/s6Vl0MweTCZ82bYi45x4CevWsnCClyqnoFRERkRopLymJky+/TOr3c8t9rm+XLoSOuInAK6/E7O3thOikulHRKyIiItVW7sGD5OzdBxSemmA9doyEt6eUa4UFc0AAwVdfTchNN+LTokXlBirVnopeqbZGjRrFJ598wrRp0xg1alS1jOPIkSM88sgj/PLLL5w6dQqbzcbtt9/O9OnT6du3L8uWLWPJkiX07du3SmIXEamJcg8cIOzXXzn00cfk7tpVrnN9O3cm/K5/F7l6a/Lxwad1a8y+vpUZqtQgKnpFKsgwDK699lp+//13WrVqxWWXXYaXlxc9e2r+l4hISey5uWSuWYP12PEix/ISE0hf/DM5O3YQAeQWPb1E5sBA6vzf/xFy4w3a4UyKpaJXpIIOHjzI77//TsOGDVmxYgVhYWGY9YtWRKRYhmGQ8euvnHhpEtbDhyt17MCBA6n7+GNY6tSp1HHFvajoFamgQ3/fJdykSRM8z73zV0RECuTs28+JF1/k9MqVFTrfIzgYc3BwkXavmBhCb7mFwMsvO98QpRbQX2pxuczMTN5//32+/fZbtm3bRmZmJlFRUXTo0IGbb76Z2NjYUs+32+18+OGHfPLJJ2zbto3Tp08TGhpKdHQ0vXv35v/+7/9o3LhxuWJKSkri2WefZc6cORw/fpy6desybNgwnn322SJ9Dxw4QJMmTQq+XrZsGaGhoQVf79+/v8jjL1u2jBdeeIH169eTnZ1Nu3btGDduHCNHjixXnCIi1ZU9KwvDZi/UZuTmkPjRRyR9+hlYreUaLy8ggPAhQwgeMhi/rl0xeXhUZrhSC6nodQW7HbKSim03ZaaDRy5U97fFfcMqJcb4+HgGDhzI9u3b8fPzo0ePHoSHh3PkyBFWrFjBn3/+WWbRO3r0aKZNm4aPjw89e/YkMjKSpKQk9u3bx5QpU+jXr1+5it4TJ07Qq1cvdu/eTWhoKEOHDsVutzNjxgwWLlxI27ZtC/UPCAjg9ttv5/jx4/z000/UrVuXyy+/HIvFgslkIiAgoFD/OXPmMGXKFFq1asWVV17J0aNHWblyJbfddhubNm3i9ddfdzhWERFXyY2PJ/fAwaIHDDt5J0+Seyie3PhDWA/Fk3v4MPZzN4Qog1fTpnice/XWw4xPixb4XnEFS0+coNXQoVgslvP4LkT+oaLXFbKS4NVmRZrNQNE3a6qp/+wF/4jzGsJut3Pttdeyfft2BgwYwOeff05kZGTB8ezsbH799ddSxzh06BDTpk2jQYMGrFu3jqioqELHd+zYgb+/f7niGjt2LLt376ZXr17MmzeP4L9/CSclJTF48GDmzi28/mNERATTp09n6dKl/PTTT7Rq1YqpU6cSFBRU7Jzet956ixdffJHHHnusoG3ZsmUMGjSI//3vfwwYMIArr7yyXDGLiDiDYbeTsWwZSdM/IXPtWqc8hmedOtT5z38IGjoEk8lUbB+r1Qrz5zvl8aX2quaXF8WdzJs3j/Xr1xMdHc2sWbMKFbwAPj4+DB48uNQxTpw4AUCXLl2KFLwArVu3pmHDhg7HFB8fz+zZszGZTLz77rsFBS9AWFgY7777rsNjlaRz586FCl6APn36MGbMGABd6RWRKmfPyiL5yy/ZN3gIh+8d45yC12Ih/N+jaTp/PsFXDS2x4BVxFl3pFZdZuHAhALGxsUWmADiqVatWBAYGMn/+fF544QViY2MLza8tr+XLl2O32+natStt2rQpcrxTp0506NCBLVu2VPgxbrvttmLbb7/9dl5//XVWrlyJzWbDQ/PVRMSJMlatInX2HPJOnSpyLGfnTmzlnJ7gMLOZgN69qfPIf/E+j9/XIudLRa+4zMGD+XPDWrVqVeExAgMDmTZtGnfccQcTJkxgwoQJREdH0717dwYOHFikoJ40aRJ//fVXkXFee+01IiIiOPz3sjmlFc5NmjQ5r6K3pLHPtGdlZZGYmEgdLbUjIk5gWK2cfO11kj75pNznmv39MRdzkcIjOBhLwxi8YhpiiWmQ/7lB/WK38zUHBeFRwQsdIpVJRa8r+Iblz4k9h91uJz09ncDAwOq/vqtvWFVHUOC6667jiiuuYO7cuaxYsYJVq1YxZ84c5syZw1NPPcXixYtp3749kH91edmyZUXGeOaZZ4iIOL85ypXJMIyyO4mIlJP1xAmOPPgQWRs2lOs87xYtCLv9doKGDim2kBWpiVT0uoLZXPxNYHY7hs0L/IOq/+oNleDMXNvirryWV3BwMCNHjixY8is+Pp5x48bx/fffM3bs2IJCd+nSpaWOU79+fSB/GbKSlHbMEfv37y91XB8fH8LDw8/rMUREznV6zVqO/N//YUtMdPgc/969CB81Cr9LLtGcW3E7KnrFZQYOHMh7773HF198wcSJE8u9ykJpYmJimDhxIt9//z2bNm1y+LzevXtjMpnYsGEDf/31V5GpF5s3bz6vqQ0An3/+OePHjy/S/umnnwLQs2dPbW4hIhWSs28/2du2gd1WpD3xgw/yl8w8i+nvm8k8zvlH2+TlhV/Xbng31ZxbcV/6SysuM2zYMDp37szGjRu54YYb+Oyzzwpd4czOzmbJkiUMGjSoxDE2btzIrl27GDZsGL6+voWOzZs3D4BGjRo5HFPDhg0ZPnw4s2fP5t577+X7778nKCgIgOTkZMaMGXPeUw/++OMPXnnlFf773/8WtK1cuZK4uDgAHnzwwfMaX0RqF8NmI2PJEpI++7xcqyxY6ten/uTJ+LZrW3ZnETekoldcxmw2M2fOHK688koWLFhAw4YN6dmzZ8HmFJs3byYkJKTU6QQHDx5kxIgR+Pr60qVLF2JiYsjLy+PPP/9k586deHl58corr5Qrrri4ODZv3szSpUtp0qQJffv2xTAMlixZQnh4OMOGDSuyVm953H///Tz22GN8+umndOjQgaNHj7JixQrsdjsPPPBAmcu0iYgA2FJTSZk1m+QZM7AeOVKuc/379Kb+yy/jERLinOBEagAVveJSjRo1Yv369UydOpVvv/2W1atXk5ubS1RUFH369ClzN7bu3bszadIkli9fzo4dO9i4cSOenp40aNCA++67j3HjxtGyZctyxRQVFcXatWuZOHEic+bM4YcffqBOnTqMGDGC5557jocffvh8vmWGDx/O1VdfzYsvvsj8+fPJzc2lS5cujB07lttvv/28xhYR95KxYiUnX3+dvL/XJD+bPSMDo5xb+WIyEfnA/YTfdRemWnDviEhpTIZuGy9RWloawcHBpKamFrzlXZLs7Gz2799PkyZN8PHxcWh8u91OWlpaiTt5Sc1QlXmsyM+dFM9qtTJ//nwGDx6sbU9rsJqcx9QffuToI4+AzVZ257N4hIZiiY4u0m5p1JCw2Fj8LrywskJ0mZqcR/mHq/LoaL2mK70iIiJVLGXWLI5NeBLKcR3Kp21bwm4bSeCgQZi9vJwYnYh7UNHrAKvVmr8PeBl9DMPAbrdjP+du2ZKcuch+5jypmaoyj3a7HcMwsFqt2tHtPJ15jZf1WpfqrSbmMWXGDBImvexYZ09PAvpfQXDsLfh07IDJZMIG2GrQ9+uImphHKcpVeXR0fE1vKEZcXBxxcXHYbDZ27drFzJkz8fPzK/UcT09PoqKiiImJwUv/cYuL5ObmEh8fz/Hjx8nLy6vqcESknEKXLCFy4U9F2lMuuYT09u0KN5pM5NSti70Sl3sUcQeZmZnExsaWOb1BRW8pzswRSUhIcGhOb3x8PI0bN3Z4bqVhGAU7smkR8JqrKvOYnZ3NgQMHiImJ0Zze82S1Wlm8eDH9+/fXHMIarDrmMXfffjJXrcSemVWo3RofT/r33xfpH/rv0YSNG1er/y5UxzxK+bkqj2lpaURERGhOb2WwWCxlJstms2EymTCbzQ7fzHTmrfAz50nNVJV5NJvNmEwmh35GxTF6Lt1Ddchj3qlTnHrrLVK+neXwXN3I8eOJuOduJ0dWc1SHPMr5c3YeHR1bRa+IiEglsufkkDT9ExLfew97ZqbD59V9/DHCbrvNiZGJ1G4qekVERMrJevIkufv2FbmCaz12nIS4uPJtHmEyEfXsREJvuKGSoxSRs6noFRERcVDWli0kfvAB6T//Uq7lxUy+vvhfcgmYC8/TNfv5EXLNNfhfemllhyoi51DRKyIiUgrDMDi9chWJH3xA5u+/l+9kk4nga64hcvx4LHXrOCdAEXGIil4REan1cuPjSZ07l7zjx4scy9q6jZwdO8o9pl+3btR57FF827atjBBF5Dyp6BURkVotZc53HJ84ESM7u1znmXx8MAcEFGn3btyY0NtGEti/f61edkykulHRKyIitZI9O5vjzz9P6rezynWeZ2QkYaNuJ+Smm/AopugVkepJRa+IiNQ6Ofv3c2T8g+Ts3OnwOV6NGxN2578IvvpqzNp5U6TGUdErIiJuyZ6VRdbmzRi5uYXarUePcvKVV4tdQzfwyiuxRNUt3OjpiV/XrgT06YPJw8OZIYuIE6nolWpr1KhRfPLJJ0ybNo1Ro0bV+jhExEF2O6lffUXi/95weHMIk58f0c8+S/DQIU4OTkSqiopeERFxG9ajR6n/0cec2rPH4XO8mzen/uQ38W7a1ImRiUhVM1d1ACIiIufLMAySv/yKQ8Ovxb8cBW/wNdfQ+OuvVPCK1AK60isiIjWCkZdH2sKfit3iN3PtGk7/trrY8zyjo+GclcMs9eoROuJmTWcQqUV0pVdcLjMzkzfffJOePXsSGhqKt7c3jRo14qqrrmLmzJllnm+323n//ffp0aMHISEhWCwW6tSpQ8eOHRk3bhwHDhwod0xJSUmMHz+eRo0a4e3tTcOGDRk7dixJSUklnjNq1ChMJhPTp09n+/btjBgxgujoaDw8PHjmmWcA6Nu3LyaTiaVLl7JixQquuuoqIiMjMZvNTJ8+vdxxitRW9txc4u+5l6MPP8ypN94o8lFcwesZHU3Mhx/SfMmvNP+18Efjzz9XwStSy+hKrwvYDTspOSlF2+120nPSycvOw2yu3v9/hHiHYDadf4zx8fEMHDiQ7du34+fnR48ePQgPD+fIkSOsWLGCP//8k9jY2FLHGD16NNOmTcPHx4eePXsSGRlJUlIS+/btY8qUKfTr14/GjRs7HNOJEyfo1asXu3fvJjQ0lKFDh2K325kxYwYLFy6kbRm7Ka1evZoxY8YQHR1N7969ycrKIjAwsFCfb775hnfffZdWrVpxxRVXkJSUhLe3t8MxitRmhs3G0f/8l9MrVzp8TtB11xL16KN4nPNaFJHaS0WvC6TkpNDnqz5VHcZ5WXbTMsJ8ws5rDLvdzrXXXsv27dsZMGAAn3/+OZGRkQXHs7Oz+fXXX0sd49ChQ0ybNo0GDRqwbt06oqKiCh3fsWMH/v7+5Ypr7Nix7N69m169ejFv3jyCg4OB/Ku/gwcPZu7cuaWe/+GHHzJ+/HheffVVPD2Lf0lNnTqVuLg4xowZU67YRGo7wzA4/swzpP/0k0P9PerU4eCQIfR96EE8LBYnRyciNYmKXnGZefPmsX79eqKjo5k1axYB5+xk5OPjw+DBg0sd48SJEwB06dKlSMEL0Lp163LFFB8fz+zZszGZTLz77rsFBS9AWFgY7777Lp07dy51jBYtWjBhwoRSr9ZffvnlKnhFKuDU66+T8s23hdrMfn74de9euKPJhG/HjgRcdy07ynFFWERqDxW94jILFy4EIDY2tkjB66hWrVoRGBjI/PnzeeGFF4iNjaVJkyYVjmn58uXY7Xa6du1KmzZtihzv1KkTHTp0YMuWLSWOcfXVV+NRxoL1119/fYVjFKmtEj/8kMQPPyrUZvLyosHUqfh3v7jYc6xWqytCE5EaSEWvuMzBgweB/MK1ogIDA5k2bRp33HEHEyZMYMKECURHR9O9e3cGDhxYpKCeNGkSf/31V5FxXnvtNSIiIjh8+DBAqYVzkyZNSi16GzVqVGbc5ZljLFKb2E+f5vS6dRhZWYXac/btI+HtKYU7m83U/9/rJRa8IiKlUdHrAiHeISy7aVmRdrvdTnp6OoGBgTXiRrbq4rrrruOKK65g7ty5rFixglWrVjFnzhzmzJnDU089xeLFi2nfvj2Qf3V52bKiz/0zzzxDREREpcTj6+tbKX1EapucffuIH/1vrEePOtQ/+vnnCbziCidHJSLuSkWvC5hN5mJvArPb7XjmehLkE1Tti97K0LBhQ4Bir7yWV3BwMCNHjmTkyJFA/tzccePG8f333zN27NiCQnfp0qWljlO/fn2AUpc5q8gSaCJSuuzt2zk0+t/YSlkW8Gx1HnmEkGuHOzkqEXFn7l9pSbUxcOBAAL744gtOnz5dqWPHxMQwceJEADZt2uTweb1798ZkMrFhw4Zii/HNmzeXOrVBRMovc8MGDt4+yuGCN/yeuwm/Y5RzgxIRt6eiV1xm2LBhdO7cmaNHj3LDDTeQmJhY6Hh2djYLFiwodYyNGzfy1VdfkXXO/D/IXx0CHJtje0bDhg0ZPnw4drude++9l7S0tIJjycnJjBkzBsMwHB5PREqXsWoVh+4cjT09vVC7R2QEXhc0K/Th064ddR97lMgHHqiiaEXEnWh6g7iM2Wxmzpw5XHnllSxYsICGDRvSs2fPgs0pNm/eTEhISKnTCQ4ePMiIESPw9fWlS5cuxMTEkJeXx59//snOnTvx8vLilVdeKVdccXFxbN68maVLl9KkSRP69u2LYRgsWbKE8PBwhg0bVuZavSJStrTFizn60P9hnLPCgt9FF9Fg6lQ8Asq3xraISHmo6BWXatSoEevXr2fq1Kl8++23rF69mtzcXKKioujTp0+Zu7F1796dSZMmsXz5cnbs2MHGjRvx9PSkQYMG3HfffYwbN46WLVuWK6aoqCjWrl3LxIkTmTNnDj/88AN16tRhxIgRPPfcczz88MPn8y2L1CqZGzZy6q23yNq0CWy2QsfOLXYBAvr2pf6bb2D28XFRhCJSW5kMvXdborS0NIKDg0lNTSUoKKjUvtnZ2ezfv58mTZrg4+Avb7vdTlpaGkFBteNGNndVlXmsyM+dFM9qtTJ//nwGDx6MRTt5lZv99GlOvjmZ5M8/Bwf/rAQNHky9lydhqsTnW3l0D8qje3BVHh2t13SlV0REzkvGylUcf+oph5ceAwi58Uainn4KUxkbu4iIVBYVvSIiUirDbid7xw5s59x8CpC2YCGpc+Y4PpjJRPhddxE5/gFMJlMlRikiUjoVvSIiUiLDZuPIww+TvmChw+eYvL2JHDcWv0suOWcw8KwTiaVOnUqOUkSkbCp6RUSkRKfefrtcBa/fhRcS/dyzeGnrbRGpZlT0iohIsdJ/+YXEd99zqK/Z3586//kPITfegEk35opINaSiV0REisjZt5+j/32kcKPZjGfduoWaTJ6e+F18EZFjx2KJinJhhCIi5aOiV0RECrGfPs3h+8dhP2e78LqPPUbYyFurKCoRkfOj96BERKSAYRgcfWICuXv2FmoPuuoqQm+9pYqiEhE5f7rSKyJSS9mzs4vskpb85ZekLyx845p3q1ZEPztRS4yJSI2moldEpJaxZ2Vx5MGHyFi+HOz2Uvuag4Jo8PZbmH19XRSdiIhzqOgVEallTr05mYylS8vuaDJR/7VX8YqJcXpMIiLOpjm9IiK1iPXESZK//NKhvhHjxhLQu7eTIxIRcQ1d6RURqUUSP/gAIyen9E4mEyEjbiLinntcE5SIiAuo6BURqSWsx46R8tVXhdqCr72WyPvHFWozBwTiEeDvytBERJxO0xtEztPSpUsJDQ3l8ssvr+pQREqV8N57hVZrMFksRI7L31Ti7A8VvCLijlT0iojUArmHj5Aya3ahtpAbb8QSHV1FEYmIuJaKXhGRWiDxvXfh7Ku8Xl6E33VXFUYkIuJaKnpFRNxc7qFDpMyeU6gt9OYRWOrWqaKIRERcT0WvuJTJZCrY1WnatGlccsklBAcHYzKZOHDgAACNGzcu9PW5Ro0ahclkYvr06SW279+/n5EjRxIVFYW3tzfNmjVjwoQJ5JR113opPv30Uy688EL8/PwICwtj4MCBrFixosT+S5cuxWQy0bdvXzIzM3nqqado3bo1fn5+NG7cGIDp06djMpkYNWoUSUlJjB8/nmbNmuHt7U3fvn0rHKvI2RKmvgM2W8HXJh8fwkePrsKIRERcT6s3uIBht2NLSSnSbrfbsaWnk5eXh9lcvf//8AgJwVSJMY4bN46pU6dy6aWXMmTIEPbt21dpW5xu2rSJBx54gNDQUPr06UNSUhKrVq3ihRdeYNu2bcyZM6fsQc7xwAMP8NZbb2E2m+nZsyf16tVjy5Yt9O3bl7Fjx5Z6bnZ2Nn379mX79u307t2bjh07kpiYWKhPQkIC3bp1IyUlhV69etG1a1e8vLzKHafIuXL27yd17txCbaGxsXhGRlZRRCIiVUNFrwvYUlLYfWmPEo+fdGEsFdX8t1V4hoVV2niffvopq1atonv37pU25hmTJ0/miSeeYOLEiXh4eACwdetWunfvznfffcfq1au55JJLHB7vxx9/5K233sLf358FCxbQq1evgmMvvfQSjz/+eKnnr127lg4dOrBnzx6ioqJKfIx+/foxe/ZsgoKCHI5N5IysTZtI/Ogjsnf8VajdnpFRaKthk58f4aPvdHV4IiJVrnpfXhS39fDDDzul4AXo2rUrzz33XEHBC9CuXTtGjhwJwM8//1yu8d58800Axo4dW6jgBXjsscfo1KlTmWNMmTKlxIIXwGKx8P7776vglXKzZ2dz4pVXORB7C+mLf8Z6+HChj3PfZQq79dZK/QdWRKSmUNErVeL666932thDhw4tdqpE69atAThy5IjDY+Xl5bFy5UoAbr311mL7nCmmS1KnTp0ixfK5OnfuTNOmTR2OSwQgc8MG9l8znKSPPy50NbckZn9/wu4Y5fzARESqIU1vkCpx5kYuZ2jYsGGx7WeuomZnZxe0rVy5kg8//LBI32uuuYZrrrmGxMTEgv5NmjQpdtyyvhdHvldnPh9Ss9mzsrClp5/TaCdp2nSSPv0UDMPhsepOmIBnaGglRygiUjOo6HUBj5AQmv+2qki73W4nPT2dwMDAGnEjW2Xy9fWt8Ln2Mq5olee53LNnD5988kmR9saNG3PNNdeUN7RiOfK9ns/zIe7JlpbGiRdfIm3BAgwHVx0xWSyE33M3Pq3bFDnm07qVNqIQkVrNbYvePXv2cP/997N8+XJ8fHy48cYbefXVV/H3d/32miazudg5dHa7HQ9PTzyDgqp90etKZ1YtSD/36tbfDh48WGmPNWrUKEaNGlXi8fDwcLy9vcnJyeHAgQO0bdvWqfGIAGTv2MHhB8ZjPXTI4XN8OnSg3osv4H3BBU6MTESk5nLLSis1NZXLL7+cpKQkvvnmGyZPnsysWbO47bbbqjo0cUD9+vUB2LFjR5Fjx48fZ8OGDS6LxdPTkx498lfemDFjRrF9Pv/8c5fFI+4v5dtvOXDTCIcLXpOXF3X+8zCNZ85QwSsiUgq3LHrfe+89Tp06xdy5cxk0aBC33HIL77zzDrNnz+aPP/6o6vCkDFdccQUAL7/8Miln3Xl+6tQpbrvtNjIyMlwaz/jx4wF4++23+e233wode+WVV1xahIv7smdlcfTxJzg24UmM3NyyT/DwwL9HD5p8N4fwO+/E5Om2b9yJiFQKt/wtOX/+fC6//HLq1Plni81hw4YREBDADz/8QNeuXaswOinLfffdxwcffMCGDRto2bIll1xyCadPn2bdunU0bNiQa665hu+++85l8Vx11VXcd999xMXF0atXL3r37k10dDRbtmxhx44d3H///bz11lsui0dqLntuLokffEDWho0Y9vwd0s6sNJJ7+EixV3d9O3YketJLRW5AM3l5Yfbzc37QIiJuwmVXenfu3Mnbb7/NqFGjaN++PZ6enphMJp5//nmHzv/mm2/o27cvoaGh+Pv707FjR1555RWsVmuRvtu3by9YnuoMT09PWrRoUexb5lK9hISEsGrVqoLpKAsWLGDv3r3cdddd/PbbbwQHB7s8pilTpvDxxx/TuXNn1qxZw/z584mOjuaXX37h6quvdnk8UvPYc3I4fN9YEt6ewulVq8hcvYbM1Ws4/dtqTv+2utiCN/S2kTT67FO8mzTBIySk0IcKXhGR8nHZld533nmHyZMnV+jc8ePHM3nyZDw9Pbn88ssJCAjg119/5ZFHHmHevHksWrSo0N3vycnJhBSz2kBoaChJSUkV/RakEhgOLq9Uv379YldVAJg+fTrTp093uP2Msm5aK8sdd9zBHXfcUaTdbreTnJxcZGOJvn37lvn9nm9MUjOcKXhP/73mc1nMfn5Ev/A8QYMGOTkyEZHaw2VXetu1a8fDDz/MjBkz2LFjR5kL+p/x3XffMXnyZAICAli7di0//fQTs2bNYvfu3bRv356VK1fy5JNPOjl6EZGKsWdnc3jMfQ4XvN7NL6Dxt9+q4BURqWQuu9I7evToQl87ukTXiy++CMCjjz5Kly5dCtojIiKYOnUqvXr1YsqUKTz55JMFb3uHhoYWugHqjOTkZJo3b17B70BEpHwKCt5zboA0BwYScc/dmCyWQu1ejRvjf8klRdpFROT8Vesb2Y4cOcK6desAiI2NLXK8Z8+exMTEEB8fz/z587n55puB/O1mz527a7PZ2LVrF8OGDXN+4CJSqxhWK7ZzVxXJy+PoI49w+rfVhZrNgYE0/PgjfNu3d2GEIiJSrYvejRs3AhAWFlbiFrDdunUjPj6ejRs3FhS9gwcPZuLEiZw6dYrIyEgA5s2bR0ZGBkOGDCnx8XJycsg5a+ejtLQ0AKxWa7E3zJ3NarViGAZ2u73MHcPOODPf88x5UjNVZR7tdjuGYWC1WvHw8HDpY7ubM6/xsl7rZzMMg5RPPyVpShzGWdtbl8QcGEi9D97Hs1Wrcj2OOK4ieZTqR3l0D67Ko6PjV+uid//+/QA0bNiwxD4xMTGF+gLcfffdvP3221x99dU8+eSTJCcn89BDD3H11VfTrVu3Esd66aWXmDhxYpH2RYsW4VfGndKenp5ERUWRkZFBriNrbJ6lpJ3HpGapijzm5uaSlZXF8uXLycvLc/nju6PFixc71tFup873cwlZs8ah7jZfHw6Oup2/Dh4E7eLndA7nUao15dE9ODuPmZmZDvWr1kXvmSKitK2DAwICgH+uykL+kle//vor999/P9dffz0+Pj7ccMMNvPbaa6U+3mOPPcZDDz1U8HVaWhoxMTEMGDCgyJ3558rOziY+Pp6AgAB8fHzK/N4g/ypReno6gYGBBWt1Ss1TlXnMzs7G19eX3r17O/xzJ8WzWq0sXryY/v37YyljTq09K4sTjzzKaQcLXnNQEA3ef5+WbdtURqhSivLkUaov5dE9uCqPZ9eApanWRe/5aNGiBQsXLizXOd7e3nh7exdpt1gsZSbLZrNhMpkwm80O36R35q3wM+dJzVSVeTSbzZhMJod+RsUxZT2XecnJHLvnXrI2b3ZsvJgY6r/5Br5t21ZWiOIAvSbcg/LoHpydR0fHrtZFb2BgIACnT58usc+ZLWnLuhLrKo6uQytSGfTz5jyGzQbnzNG2HjtG/F13k3vgQKF2k8VC9Isv4t/94sKDmM14hIXpnRwRkWqgWhe9jRs3BiA+Pr7EPmeOnelbVc7cRGS1WgttlCHiTGduvPT0rNYv5RrFyM3l6IQJpC1YiOHA/HxzUBANpryN/0UXuSA6ERGpqGr9nnrnzp0BSExMLHSj2tnWr18PUGgN36pgsVjw9vYmNTVVV9/EJWw2G0lJSfj7+6vorURJ77xD6vdzHSp4PaOiaDzjcxW8IiI1QLX+S9mgQQMuvPBC1q1bx8yZM3niiScKHV+5ciXx8fF4e3szePDgKoryHxERERw5coTDhw8THByMxWIp9W1Nu91Obm4u2dnZmtNbg7kyj4ZhYLPZyMrKIjU1FbvdTnR0tFMfszbxOnac5OnFb399Lu8WLYh5/z0sUVFOjkpERCpDtS56AR5//HGGDx/OpEmTGDRoUMEV3cTERMaMGQPA2LFjC3Zjq0pn5hUnJCRw5MiRMvsbhkFWVha+vr6a81eDVUUePTw88PPzo06dOnh5ebnkMd2dYbdTd/ZscGDpN/8+van/2mt4/H3fgYiIVH8uK3o3bNhQUKQC7N27F4D33nuPH374oaB9zpw5ha5cXXPNNdx///289dZbdO/enX79+uHv788vv/xCSkoKPXr04LnnnnPVt1GmoKAggoKCsFqt2Gy2UvtarVaWL19O7969dXdqDebqPJrN5jLfRZDyS/t2Fr6HDhVqCxs1ipCbbizUZvbzw7NOHT3/IiI1jMuK3rS0NNauXVuk/fDhwxw+fLjg67N3RDtj8uTJ9OjRg7i4OH777TesVivNmjXj0Ucf5cEHH3T6lS5HdmQrTlk7ZNntdvLy8vDw8NBuWjVYVeRRG1FUrryEBBLeeKNQmyUmhpD7xmAuZv1jPf/Vl3bycg/Ko3uobjuymQzddVVEXFwccXFx2Gw2du3axcyZM8vckU1Eaq6omV8QdM66u4dH30lm8+ZVFJGIiDgqMzOT2NhYUlNTS13CVkVvKdLS0ggODiYhIcEp6wBrxxn3oDzWbKdXruTYvWMKtQUOHUrdl16soojkfOj16B6UR/fgyh3ZIiIiyix6q/2NbNWBK3YS0Yu65lMeax57VhYJLxQubs1BQUQ99iieymWNpteje1Ae3YN2ZBMRcQHDbid90WKSPv+M3N17OPPWlgkw8vKwn7PjY8T/PYRneLjL4xQREedS0Ssibsmw20n/+WcS4qaSs3OnQ+dkNmlM4DXXODcwERGpEip6RaTGsufkYM/MLPj6zDJip9etyy92//rL8cE8PTk5/FpM2ihGRMQtqegVkRrHsNk4+corJH0+A8pYD9tRkY89xq4A/0oZS0REqh8VvSJSoxg2G8cef5zU7+eW6zzv5hcQ/u9/Y6lX7++BjL8/GXg3bYoRHAzz51d2uCIiUk2o6BWRGsOw2Tj66GOkzZvn8DlezZoRed8YAgcOLHXqghbBFxFxbyp6HVDRHdkcGffsz1IzKY+uYeTlceLxJ8hYsMCh/l4XXEDoXf8mYMAATB4e5NlspU6FUB7dg/LoHpRH96Ad2WoA7cgmUs3YbER9+RVBW7YUarZ7enIs9mayGzbMbzgzZcHDA7u/5ueKiNQG2pGtEmhHNnGE8lh5cv76i6w//sDIy78ie2Y1hsx1v5O5dFmhviYvL6Lemox/jx6V8tjKo3tQHt2D8ugetCNbDaQd2cQRyuP5Sf7qa45PnAh2e5l9Td7eNIiLI6Bn5RS8Z1Me3YPy6B6UR/egHdlERP6WNHMmJ559zqG+Jh8fYqbG4X/ppU6OSkRE3ImKXhGpUkmffc6JF15wqK/Jx4eYd9/Bv3t3J0clIiLuRkWviFSZxOnTOTnp5SLtvl27YvbxKbgxDcAjJISwO/+Fb9u2rgxRRETchIpeEakSiR99zMlXXy3SHjFuLJH33VcFEYmIiDtT0SsiTpOxahXJn88g9+DBfxpNJrDbyd2/v0j/yPHjibjnbhdGKCIitYWKXhGpdNajRzkx6WXSFy1y+JzI/3uIiH//24lRiYhIbaaiV0QqjT0nh6Rp00h49z2M7GyHz6vz3/8S/q87nBiZiIjUdip6RaRcrMeOkb5kCUZW1lmtJgybjZRvv8V66JDjg5nN1H30EcJuu63S4xQRETmbil4RcVj2zp0cvO127KmpDp/jERJC+D13Y4mK/rvlzIoMJrxbtsC7SZNKj1NERORcKnodYLVasVqtThn37M9SM9WWPOYlJHL4nnsdL3jNZoJvuIGwcWPxCA4usVt1ed5qSx7dnfLoHpRH9+CqPDo6vskwzloIUwCIi4sjLi4Om83Grl27mDlzJn5+flUdlkiVMeXl0eD9D/A9exWGUmQ1bMjJa64mp359J0cmIiK1XWZmJrGxsaSmphIUFFRiPxW9pUhLSyM4OJiEhIRSn8SKslqtLF68mP79+2tv8RrM3fNoGAYnJ0wgfe68Qu2WmBgsjRoV2kDCHBCAf7/LCbjySkxms6tDPS/unsfaQnl0D8qje3BVHtPS0oiIiCiz6NX0BgdYLBanJsvZ44truGseEz/8sEjB61kvmsZfzMQzIqKKonIed81jbaM8ugfl0T24oo5yRM26FCMiLpX+66+cfP1/hdpMfn7EvPOOWxa8IiLivnSlV6SWs2VkkDprFlnbtoHdyN8xDcAE6T//Umj6AiYT9V97FZ+WLasmWBERkQpS0StSSxl5eaR8+y2n3nobW1KSQ+dEPvQggZdf7uTIREREKp+KXpFaxjAMTi9fzolXXyV3z16Hzwu++mrCR492YmQiIiLOo6JXxA3Z0tPJWLoU67Hj/zT+PWshc/UaTv/2W7nG8+3WlajnnsV0ZuqDiIhIDaOiV8SNGIZB+k+LOP7cc9gSE8t1bkCfPni3bHnWHF4DDANL/foEX3stZi+vyg9YRETERVT0irgJ68mTnHjuOdIX/1yu87zbtKbufx/Bv/vFTopMRESk6qnoFanhDMMgdfYcTrz8Mva0NIfP86xbl8gHxxM8bFiN20hCRESkvFT0itQAtozTJH/2KadX/YY9Nze/0QQmTNgyMsjdW/wNaT4dO+AZGpb/xZlpCxZP/Lp1I/SmmzD7+rogehERkaqnolekGjMMg/SFCzkx6WXyTpxw+DyPsDCiJjxB4KBBuvlMREQEFb0OsVqtWK1Wp4x79mepmZyVx9x9+zn14otkrV1brvMChgwh8pH/4hEaSl5eXqXG5M70enQPyqN7UB7dg6vy6Oj4JsM4e7slAYiLiyMuLg6bzcauXbuYOXMmfn5+VR2WuBvDwPvwYbxPnsz/8ky7yYT3seOErlqFyWZzeDhrcDAnhw/ndOtWlR+riIhINZWZmUlsbCypqakEBQWV2E9FbynS0tIIDg4mISGh1CexoqxWK4sXL6Z///5YLJZKH19coyJ5zNm1i1MvvEj2hg3leizfSy8l8MoBBV+fefl6RkTge9FFmqN7HvR6dA/Ko3tQHt2Dq/KYlpZGREREmUWvpjc4wGKxODVZzh5fXMORPNoyMkh4ewpJn38O5biK6xkdTd1HHyVwQH/N0XUyvR7dg/LoHpRH9+CKOsoRKnpFXMAwDNJ++IETr7yC7VSC4ydaLISPGkXEvfdg1hQbERGRClPRK3KebKmp+O/4i8Q9e8jZvIXsHTswcnLyD5pM+R+AkZ1d7PkekRFY6tQtWFLM+Ht2r0+bNoT/6194N23q/G9CRETEzanoFSmFPTeXpE8+IXvLFgz739PfTWAymTAMg9x9+8ndt4/6QHI5xzZ5eRE+ejThd/0bs49PZYcuIiIiZ1HRK1KCvKQkDo8dR1Y5bzZzhH+f3kQ98QReDRtW+tgiIiJSlIpekWLk7N5N/D33Yj1ypFLHtcTEUPexRwm47DLdkCYiIuJCKnpFzpGxfDlHHnwI++nTDp9j9/TEr2NH/Lt0wbdzJzwL5uj+PSXCMDD7+uLVrBkms9k5gYuIiEiJVPSK/M0wDJI/+4wTk14Gu73QMc/oaEJuuL5gLu8ZHoFBWNq15dd9+xg8bJiW1hEREammVPRKrWHPySFz7VrSlywh87fV2FJS8g+ctcKCLbno7Wg+HTsQM2UKnpGRxY5rtVrh0CFnhS0iIiKVQEWvuAXDbidn926MrKz8hjPzZU0mcnbvIWPpEjJW/YaRmVmucYOGDCH6hee1uoKIiEgNp6JXajTDMEhftJgTkyaRd+xYpY4dcf84Iu69VzeciYiIuAEVvVJj5cbHc/y55zi9fEWljmv28yP6hecJGjSoUscVERGRqqOiV2oce24uSR9/TMI77/6z85mjTCZ8O3Ui4LLL8O3QAcymggUWMAwwm/Bu3hzP0NBKj1tERESqjopeOW/23Fyw2QrNo8VkwsjOxpaaii0l5e+PVGypqWDL+7vvWf0NA/vpDGwZGdjTM7BnZGDLSMfIyT1rzPyd0HIPxWM9fLjYWEy+vv/E8fcqC2YfH/y6dSPgsssI6NMbz/BwJz4bIiIiUh2p6HWA1WrNv0PfCeOe/bkmMQyDzKVLSXrvfXK2bavqcPCIiCDiv/8hYODAUufgGlT+812T8yj/UB7dg/LoHpRH9+CqPDo6vsk4e9FRASAuLo64uDhsNhu7du1i5syZ+Pn5VXVY1YbPgQNELliA74GDVR0KhslEyiWXkDhgAHZfrbAgIiJS22RmZhIbG0tqaipBQUEl9lPRW4q0tDSCg4NJSEgo9UmsKKvVyuLFi+nTtCkpr72e33j2FIG/P5s8PPBu04aAAf3xat68ylYTyN27l8TJb3F6yZIqefxzebdrR+STE/Bp06ZK4ziTx/79+2tzihpMeXQPyqN7UB7dg6vymJaWRkRERJlFr6Y3OMBisTg1WeasLLLWri21T+aKFSS/9x5eTZsSNHAgQYMG4t28eYn9jdxcrEePknv4CNbDh7GeOA55tn82YjhTN+flkZeUjC0pibykpILPBTeInV2EV/TtCYsFj5BgPENCMAcHYzrzXBrkz7s9M/fW3x9zYAAeAQGYAwIxBwZg9j776u0/fb1btMDvoosweXhULCYncPbPibiG8ugelEf3oDy6B2fn0dGxVfRWB+W42J67bx8JU6eSMHUqlpgYzIEBAJj45+pvXlISeSdOlGvcirLUr0/kA/fj26XLPwXs349r8vTEIyQEk5+f1roVERGRKqWitwazxsdX2WN7hIYSce+9hIy4CbOXV5XFISIiIuIIFb3VgKV+feo+/ljBFdKCadZ/f8o7fpy0RYsqfcexijD5+RE+6nbC/vUvPAICqjocEREREYeo6K0GPOvWJey220rtU+eR/5K9ZQtpCxaS9tNP5B0/7tDY5uBgvOrXx1K/HqYz82MLpiAYYPbAIzQUz7BQPMLC8QgLxTMsDPPZq1WcKcLNZryaNMHs7V2B71JERESk6qjorSFMZjO+nTrh26lTfgG8dSu5Bw+C3Q78fXX47xvDzIEBeDVogKVBAzwCA6s2cBEREZFqQEVvDWQym/Ht0CF/G10RERERKZO5qgMQEREREXE2Fb0iIiIi4vZU9IqIiIiI21PRKyIiIiJuT0WviIiIiLg9Fb0iIiIi4vZU9IqIiIiI21PRKyIiIiJuT0WviIiIiLg9Fb0iIiIi4va0DbEDrFYrVqvVKeOe/VlqJuXRPSiP7kF5dA/Ko3twVR4dHd9kGIbh1EhqoLi4OOLi4rDZbOzatYuZM2fi5+dX1WGJiIiIyDkyMzOJjY0lNTWVoKCgEvup6C1FWloawcHBJCQklPokVpTVamXx4sX0798fi8VS6eOLayiP7kF5dA/Ko3tQHt2Dq/KYlpZGREREmUWvpjc4wGKxODVZzh5fXEN5dA/Ko3tQHt2D8ugeXFFHOUI3somIiIiI21PRKyIiIiJuT0WviIiIiLg9Fb0iIiIi4vZU9IqIiIiI21PRKyIiIiJuT0WviIiIiLg9Fb0iIiIi4vZU9IqIiIiI21PRKyIiIiJuT0WviIiIiLg9Fb0iIiIi4vZU9IqIiIiI21PRKyIiIiJuT0WviIiIiLg9Fb0iIiIi4vZU9IqIiIiI21PRKyIiIiJuT0WviIiIiLg9Fb0iIiIi4vZU9IqIiIiI21PRKyIiIiJuT0WviIiIiLg9z6oOoCawWq1YrVanjHv2Z6mZlEf3oDy6B+XRPSiP7sFVeXR0fJNhGIZTI6mB4uLiiIuLw2azsWvXLmbOnImfn19VhyUiIiIi58jMzCQ2NpbU1FSCgoJK7KeitxRpaWkEBweTkJBQ6pNYUVarlcWLF9O/f38sFkuljy+uoTy6B+XRPSiP7kF5dA+uymNaWhoRERFlFr2a3uAAi8Xi1GQ5e3xxDeXRPSiP7kF5dA/Ko3twRR3lCN3IJiIiIiJuT0WviIiIiLg9Fb0iIiIi4vZU9IqIiIiI21PRKyIiIiJuT0WviIiIiLg9Fb0iIiIi4vZU9IqIiIiI21PRKyIiIiJuT0WviIiIiLg9Fb0iIiIi4vZU9IqIiIiI21PRKyIiIiKVJy8H0o5WdRRFqOgVERERkfNnGLB1Nky5EGaNzv+6GvGs6gBEREREpIY7tBYWPQGH1+V/nXIQ064FVRvTOXSlV0REREQqJmkffH0bfDzgn4L3bx6/PoPJyKuiwIrSlV4RERERKZ+sZFj2Cvz+AditxXYx/CLxzkt3cWAlU9ErIiIiIo47tAa+uQPSS7hZLawpXDER2wUDyV5QfaY4qOgVERERkbIZBqyeAoufBsNW9LhvKPR5BLrdCZ5eYC3+CnBVUdErIiIiIqXLSoHv74O/fih6zMMLLr4bev1ffuFbTanoFREREZGSHd0E39wOyQeKHmvSG4a9DaGNXRxU+anoFREREZHC7HY49BtsnAFbvwVb7jkdTND7P9D3UTB7VEmI5aWiV0RERETyJR+AzV/CppmQcrD4Pr5hcO0H0PwKl4Z2vlT0ioiIiNR2SfthwX9h96LS+zW4CG6YBsENXBNXJVLRKyIiIlJb2e2w/iNY/BRYM0vuZ/KAS8ZAv6fBw+K6+CqRil4RERGR2ij5IMwdC/uXl9wnsjV0vgXa3wiBdV0XmxOo6BURERGpTQwD/pgOiyZAbkbR4z4h0P4G6BQL9TqDyeTqCJ1CRa+IiIhIbXFie/7c3QMrij/e7U7oPxG8A10blwuo6BURERFxd1nJsOQlWPdh8bupBcfkr7fb7DLXx+YiKnpFRERE3JXdBhs+gV+eg6yk4vt0uR0GPA8+Qa6NzcVU9IqIiIi4k7xcOLoxfwrDtjlwYmvx/YIawFWTa9x6uxWloldERESkpkvcm1/gHlgJ8WtLX37M0wd6PAA9xoOXn8tCrGoqekVERERqsj+mw48Pg91adt/Ww/KnMoQ2cnpY1Y2KXgdYrVasVgd+kCow7tmfpWZSHt2D8ugelEf3oDw6zrR5Jp4/PFBmPyOyNbYBL2A07p3f4ILn1lV5dHR8k2EYhlMjqYHi4uKIi4vDZrOxa9cuZs6ciZ9f7bn8LyIiItVf/aTVdD34LiaKL+VSfWJICGzNqcC2nAzqgGHycHGErpGZmUlsbCypqakEBZV8M56K3lKkpaURHBxMQkJCqU9iRVmtVhYvXkz//v2xWGrmln6iPLoL5dE9KI/uQXksm+mvH/CYfSemc5Yfs7e7AXvLIRgNLwG/8CqKLp+r8piWlkZERESZRa+mNzjAYrE4NVnOHl9cQ3l0D8qje1Ae3YPyWIKdC2HOv4uut9tjPOYrnsFczXZQc0Ud5Qiz0yIQERERkcq1axF8PbLoTWsX3wtXPOM2WwY7g670ioiIiFRnNivsmAtr34f4NUWPd/sXDHxJBW8ZVPSKiIiIVEcZJ/OXI1v/MaQfK75Pp1tg8OsqeB2goldERESkuvntbfjlWbDlltyn3fUw7G0wa7aqI1T0ioiIiFQXhgG/PgcrXi+5T0AUXHIfdB8DZvdchswZVPSKiIiIVAeGAYsmwOopxR+P6Q4X35W/q5qHVrUoLxW9IiIiIlXNbocF/4F1HxY91jEWLr4b6nVyeVjuREWviIiISFWy2+CH8bDh03MOmGDYW9DltqqIyu2o6BURERGpKrY8+P4+2PJl4XaTGa55FzreVDVxuSEVvSIiIiJV4dgWmDsWjm0u3G72hOs+hLbDqyYuN6WiV0RERMSVrNmw7GVYNbnoVsIeXnDDJ9BqcNXE5sZU9IqIiIi4ysHfYO44SNxT9JinD9w0A5pf4fq4agEVvSIiIiKVLfd0fmGbtB+S9kHyfkjcBwdXFt8/shVcMxXqd3VtnLWIil4RERGRymK3w9IXYfVUsJ4uu7/ZAr3+D3o9BJ7ezo+vFlPRKyIiIlIZbFb4bgz8+bVj/et3hWFToG4b58YlgIpeERERkfNnzYZv74Cd88vu6+kL/Z6Ei+/RNsIupKJXRERE5HzkZMCXN8P+5eccMEFwDIQ1htAmENYEwppCk97gG1oVkdZqKnpFREREKiozCWbcAEfWF2739IWbPtdKDNWIil4RERGR8so4BfuWwMo34OT2wse8gyD2K2h0adXEJsVS0SsiIiJSFlsexK+FPT/D3l+K7qJ2hl843Dob6nVyaXhSNhW9IiIiIqVJPghf3wbHNpXeL7Ae3PY9RLZwSVhSPip6RUREREqSnQYzb4JTO0rvF9YMRs6B0EauiUvKTUWviIiISHHsNpj975ILXq+A/JUYLrgCOsWCxde18Um5qOgVERERKc7Pz8CuhYXbgmOg/fXQrB/EXAyeXlUSmpSfil4RERGRc22aCb+9VbjNNwxG/QChjaskJDk/5qoOQERERKRaObQW5j1QuM1syV93VwVvjaWiV0REROSMlHj46haw5RZuH/o/aNyjamKSSqHpDSIiIiIp8fDH9PyPzITCx7qPgS63VUVUUolU9IqIiEjtZBiwbyms+xB2zgfDXrRPs37Q/zmXhyaVT0WviIiI1C45GbD5C1j7HiTuLrlfRAu4YRp4qFxyB8qiiIiI1A4p8fD7+7DhE8hOLb1vs8th2BTwCXZNbOJ0KnpFRETEvR3dBKvehO1zwbCV3M8rADqOgAtHQ53WropOXERFr4iIiLivTV/A9/eVXuxGtsovdDvcBD5BrotNXEpFr4iIiLinXT+VUvCaoMVA6H4PNOkDJpPLwxPXUtErIiIi7id+HXx9e9GC1+IPnW+Bi++B8GZVE5tUCRW9IiIi4l5O7YKZN0BeVuH2bndCv6fAN6RKwpKqpaJXRERE3EfaUfj8WshKLtzeYQQMfg3M2oy2tlLmRURExD1kJcPn10FqfOH2C66Aq6eo4K3ldKVXREREaibDgKR9cGBl/sf+ZZBxonCf+l3hhk/Aw1I1MUq1oaJXREREapaUQ7DsFdjzM6QfK7lf+AUQ+w14B7guNqm2VPSKiIhIzXH8T/j0GshMKL1fQBTcOhv8w10SllR/mtwiIiIiNcPhP2D60LIL3uhOcNt3ENrIFVFJDaErvSIiIlL9HfwNZtwIuelFjwXUhUY9oHFPaNwLIpprswkpQkWviIiIVG97f4UvYouuu9uoBwx9U0WuOERFr4iIiFRfOxfA17eBLbdwe7PL4aYZ4OVXNXFJjaM5vSIiIlItmXbMha9uLVrwthwCN3+pglfKRVd6RUREpNqpl7wGj03vgWErfKDddTD8Pa27K+WmoldERESqFdPWb+h24B1MGIUPdLoVhr0FZo+qCUxqNE1vEBERkepj00w8vh9TtODtdicMe1sFr1SYil4RERGpHjZ8Bt8VU/BefA8MeR3MKluk4vTTIyIiIlVv/ccwdyycW/BeMhYGTtKSZHLe3LLo3bNnD/fccw9dunTBYrHQuHHjqg5JREREipOdCrPvhh8eLHLIdsk4GPC8Cl6pFG55I9u2bdv44YcfuOiiizAMg+Tk5KoOSURERM51YBXMuQdSDxU5tKvuVTS57Ck8VPBKJXHLK71XXXUVhw8fZvbs2Vx88cVVHY6IiIicLS8HFj8F04cUW/Daej7MjujrdYVXKpVbFr1mTXQXERGpnk7thA/7warJFJm/6x0Ew9/H3udRFbxS6SpUHe7cuZO3336bUaNG0b59ezw9PTGZTDz//PMOnf/NN9/Qt29fQkND8ff3p2PHjrzyyitYrdaKhCMiIiI1wV8/wgeXw/E/ix5r1BPuXQUdb3J9XFIrVGhO7zvvvMPkyZMr9IDjx49n8uTJeHp6cvnllxMQEMCvv/7KI488wrx581i0aBG+vr4VGltERESqIcOAFa/Br8VcHDNboN+T+as0aA1ecaIKXelt164dDz/8MDNmzGDHjh2MHDnSofO+++47Jk+eTEBAAGvXruWnn35i1qxZ7N69m/bt27Ny5UqefPLJQudMnz4dk8lU5se3335bkW9FREREnCn3NHwzqviCN7I1/PtX6PGACl5xugpd6R09enShrx2dQ/viiy8C8Oijj9KlS5eC9oiICKZOnUqvXr2YMmUKTz75JMHBwQAMHz6c7t27lzl2/fr1HQ1fREREXCHlEHwZW/x0hg43wVWTwaJ3d8U1XLZk2ZEjR1i3bh0AsbGxRY737NmTmJgY4uPjmT9/PjfffDMAwcHBBQWwiIiI1AB5ObDxM1jyEmQmFD5mMsMVE+HScbpZTVzKZUXvxo0bAQgLC6NJkybF9unWrRvx8fFs3LixoOh1pZycHHJycgq+TktLA8BqtTrlJrszY+oGvppNeXQPyqN7UB6rWF425o2fY149GVP6sSKHDe8gbMM/wGjWD/LyShxGeXQPrsqjo+O7rOjdv38/AA0bNiyxT0xMTKG+FZWZmcn8+fMB2LdvH5mZmQVzfi+88EIaNWpU7HkvvfQSEydOLNK+aNEi/Pz8zium0ixevNhpY4vrKI/uQXl0D8qja3nYc2iUsITmJ+ZjyUsptk+6dzS/Nx1Pxs4c2DnfoXGVR/fg7DxmZmY61M9lRW96ejoA/v7+JfYJCAgA/rnCWlEnT57khhtuKNR25utp06YxatSoYs977LHHeOihhwq+TktLIyYmhgEDBhAUFHReMRXHarWyePFi+vfvj8ViqfTxxTWUR/egPLoH5bEKJO7B88sRmFIOlNjF3nwgPsOm0tvHsb+lyqN7cFUeHa0b3XIb4saNG2MYRtkdz+Ht7Y23t3eRdovF4tRkOXt8cQ3l0T0oj+5BeXSRhN3w+TWQcbz44417QZ9HMDfuibkC83eVR/fgijrKES4regMDAwE4ffp0iX0yMjIAnHJVVURERCpRwm6YPrT4grdpX+j9X2jcw+VhiZTEZUVv48aNAYiPjy+xz5ljZ/qKiIhINXRqF3wyFDJOFG6P6gCDX4OGF1dNXCKlqNDmFBXRuXNnABITE0u8UW39+vUAhdbwFRERkWrk1E6YPqRowVuvC9w+TwWvVFsuK3obNGjAhRdeCMDMmTOLHF+5ciXx8fF4e3szePBgV4UlIiIijopflz+l4fTJwu31u8Jt34FvSFVEJeIQlxW9AI8//jgAkyZNYsOGDQXtiYmJjBkzBoCxY8dqMwoREZHq4nQirHkX3ukJH11RTMHbDUbOAR/97ZbqrUJzejds2FBQpALs3bsXgPfee48ffvihoH3OnDlER0cXfH3NNddw//3389Zbb9G9e3f69euHv78/v/zyCykpKfTo0YPnnnuuot+L02hzCimN8ugelEf3oDxWEsPAtG8J5k2fYdq1EJO9+OfTXr8btpu/AQ8/qMTnXHl0D9VtcwqTUYG1vZYuXcpll11WZr/9+/cXe1Pa119/TVxcHJs2bcJqtdKsWTNuvfVWHnzwQby8vMobTqWLi4sjLi4Om83Grl27mDlzplM3pxAREakufHIT6XRoGnXTt5TaL8n/AlY3+w95Hr4uikykeJmZmcTGxpKamlrqCmAVKnpri7S0NIKDg0lISNDmFFIi5dE9KI/uQXk8D4aBaeOnePzyNKbcjJK7BdXH3mkk9u73gcU5Ba/y6B5cuTlFREREmUWvW25OUdm0OYU4Qnl0D8qje1Aeyyn5IMwdB/uXFX/cwxtaXwWdb8HUpA8eZg88XBCW8ugeat3mFCIiIlLNnE6ETZ/D0pfBWszmUQFR0PthaH89+Ia6Pj6RSqSiV0REpDaxZsOuhbD5S9izGOx5xffrdCtc+YKWIRO3oaJXRESkNji1E9ZMha1zICe15H5BDeCqydD8CtfFJuICKnpFRETcWU4GLHs5v+At6aruGV3vgP7Pgk/l37wtUtVU9IqIiLgjw4Dt38NPj0PakZL7efpCqyFw0b+hYXfXxSfiYip6RURE3E3CHljwH9j7a8l9GveCjiOg9TBd2ZVaQUWviIiIO0g7Cjvnw18/wv7lxU9l8PCC7mPgwtEQEuP6GEWqkIpeB2gbYimN8ugelEf3UOvymLwf8/bvMO1agPnohlK72pv0xXblJAi/IL+hGj9HtS6PbsottiF2d9qGWEREqjNvawqtjs2hUeJSTJT+ZzzLEsrW+rdwNORCMJlcFKGI62gb4kqgbYjFEcqje1Ae3YPb5zH3NOY1cZjXxGEqbjOJsxiePti73Ym958PgHeiiACuH2+exltA2xDWQtiEWRyiP7kF5dA9ul0e7DTZ+DktehIzjJffzDoYWA6DVEEwXXIGHd6BLtgt2FrfLYy3x88Gf6VSnE8GWYEDbEIuIiIgjjm+F7+6F41uKP27xg443Q+uroFEP8PRybXwif8u15fLa+tf44q8vuDj6Yqb0mVLVIRWioldERKQ6sllh5Zv5G0vYi7lRx2SGTrfAZU9AULTLwxM52+H0wzy87GG2JW4DYO2xtXy47UNiqD6rhKjoFRERqW5ObM+/untsU/HHL7gif+e0um1dGpZIcX459AtPrnySdGt6ofb3/3yfsYFjqyiqolT0ioiIVBc2K/z2Nix9CWy5RY9HtoaBL0Gzy1wfm8g5rDYrb2x4g8+2f1bkmLeHN490ewTLX9VnTraKXhERkaqWlQx/TIe170P60aLHTWbo+SD0eQQ8vV0ensjZcm25bDm1hTc2vMGWU0XnmjcOasxrfV6jaWBT5u+cXwURFk9Fr4iISFVJ3Atr3oFNM8CaWXyfiJYw/B2o39W1sYn8LSsviy2ntrD+xHr+OPEHW05tIceWU2zfQY0H8fSlT+Nv8a92m4uo6BUREXG17FT44UHYOhtK2lzCZIZL74e+j4HFx6XhSe2VZ89jb8petiZsZWviVrYmbGV38m5shq3U8yxmC49e9Cg3tLgBUzXdBEVFr4iIiCvZbfDVrbB/ecl9YrrDgOch5kLXxSW12onTJ3j9j9dZGr+UrLyscp3bIKABr/d9nTbhbZwTXCVR0SsiIuJKK14vvuA1eUDb4XDJGE1lEJf66cBPPLv6WdJy0xw+x4SJlmEt6d2gN6PajiLQq/rv+qei1wFWq9Up81LOjFnd5rxI+SiP7kF5dA/VPY+mg6vwWPoSZ7/5a3gHYu98O/YL/w1B9fMbq2n8rlLd8+guMqwZvLL+FX7Y/0OZfc0mM61CW9G1Tle61OlC5zqdCfL6Z8vf4nLlqjw6Or7JMIwSJhPVXnFxccTFxWGz2di1axczZ87Ez8+vqsMSEZEazMuaRt+dT+JrTS5os2NmVfPHSApoWYWRSW10IO8A32Z+S4o9pdjjoeZQ6nvUp4FHA+p71qeeRz28TdVz5ZDMzExiY2NJTU0lKCioxH4qekuRlpZGcHAwCQkJpT6JFWW1Wlm8eDH9+/fX3uI1mPLoHpRH91Bt82jY8fgqFvPenws12/pOwN5jfNXEVI1V2zy6AZvdxnt/vsfH2z/GbtiLHO/fsD8Pd32YSN/I834sV+UxLS2NiIiIMoteTW9wgMVicWqynD2+uIby6B6UR/dQ7fK4ajKcU/DS9DI8ev8fHmZz1cRUA1S7PNZwSdlJPLL8EdYcW1PkWIAlgMcvfpyhTYdW+uoLrqijHKGiV0REpDL8+S38+hxYsyC0MYQ1zf/wDoJfni3cN6AuXPs+qOAVF9masJUHlz7I8dPHixzrWrcrL/Z8kXoB9aogMtdR0SsiInK+/vwWZt35z9cZJyB+bQmdTXDtBxBQxyWhiczaNYsX1r6A1V74hi9PkydjO49lVNtReJg9qig611HRKyIicj72/gpz7nG8f5//QtM+zotHap1Tmad444832JG0A3+LP8HewQR7BRPsHczJzJMsOrioyDmRvpH8r+//6FSnk+sDriIqekVERCrq6Eb4aiTYHVySqVFP6POIc2OSWmXd8XX8Z9l/SMxOdPicLnW68Hrf14nwjXBiZNWPil4REZGKSNwLM26A3IzC7Z1ugbrtIGlf/kfyfjidCDEXwfB3oRa8jSzOZzfsfPTnR0zZNKXYVRhKMrLNSB7s+iAWc+27QVBFr4iISHmln4DPr4XTpwq3tx0Ow6boBjVxqpTsFB5b+Rgrj6x0+BxfT18mXjqRQU0GOTGy6k1Fr4iISHlkp8GM6yH5QOH2Jr1h+HsqeMVpErISWH9iPa+vf73YVRh61O/B5TGXk5abRkp2Cqm5qaTmpBLsHcwdbe+gaUjTKoi6+lDRKyIi4qiUQ/DFzXBia+H2qA5w0wzwrJ47VknNYxgGe1P2suHkBjad3MSmU5uIT48vtq/ZZOa+Tvcxuv1ozCb901USFb0iIiKOOLQGvrwFMhMKt4c2hlu+BZ/K37lTap99KftYcGABC/cv5EDagTL7h/uE80rvV7go+iLnB1fDqegVEREpy8YZ8MN4sOUWbvePhFtnQ2DdKglLar48ex77U/ez7PAyFuxfwK7kXQ6f261uN17p/QqRfue/ZXBtoKLXAVarFavVweVoyjnu2Z+lZlIe3YPy6B4qPY92G+Ylz+KxJq7IISOiBXk3fA5BDUE/N5XKXV+PVpuVLQlb2Jm8k10pu9iVvIt9qfvIteeWffLf/Dz9aBfejisaXsE1za7B0+xZbZ8nV+XR0fFNhmEYTo2kBoqLiyMuLg6bzcauXbuYOXMmfn5+VR2WiIi4kI81mY6HPiYqbXORYyeCOrC+8RjyPPS3QcpmN+xstm5mcdZi0oy0cp0bZAqisWdjGno2pJFHI+p41MHDpGXvzpaZmUlsbCypqakEBZU8zUhFbynS0tIIDg4mISGh1CexoqxWK4sXL6Z///5YLLVvvTx3oTy6B+XRPVRKHg075g3TMS95DlNOepHDtovuwd5votbbdSJ3ej1uSdjCa3+8xtbErWV3/luEbwQDGg7gykZX0i68HSaTyYkROo+r8piWlkZERESZRa+mNzjAYrE4NVnOHl9cQ3l0D8qje6hwHk9sz5+7G7+26DGzBYb+D48ut6Fy1zVq8uvx+OnjvPHHG8zfP9+h/nX96tKnQR8GNhlIlzpd8HCjf6pcUUc5QkWviIiINQuWvwqrJoM9r+hxvwi48VNo3MP1sUm1l52Xzd6UvexK3lXwseXUFrJt2cX2bx7anDZhbWgZ1pKWoS1pEdqCEJ8Q1wZdC6norUZSc1JZf2I9/Rr2q+pQRERqj4yT8Pl1cHxL8cc7xsKA58E/3LVxSbW3/vh6Jm+YzJaELQ5tBdw4qDH/ufA/9Krfq8ZOWajJVPRWE78c+oXn1zxPSnYKXw79kpZhLas6JBER95cSD59eDUl7ix4LawpD34CmfV0ellRvWXlZvLXhLWbsmIFB2bdGBVoCuafjPdzc6mYsHjVzuoY7UNFbxQzD4KnVT/HD/h8K2p5c9SQzhszAYtYLQ0TEaRJ2w6fXQNrhwu1mT+gxHno/DBbfqohMqrGNJzcyYeUEDqUfKrOv2WTm+ubXc1/n+wjzCXNBdFIaFb1VzGQyUdev8KLmO5J28PGfH3N3x7urKCoRETd3bAt8Nrzo7mohjeDmL6Fum6qJS6olwzDIsGbw3ub3+HT7p8Ve3TVhIiYwhpZhLWke2pwWoS3oGNmRCN+IKohYiqOitxr4d7t/s+zIMvak7Cloe3fLu1zW8DJahLaowshERNzQoTUw40bISS3cHtkaRs6BoOiqiUuqha0JW/l659ccSj9Eak5qwUdJG0h4e3gzrvM4bmhxA34WrdtcnanorQa8PLx4rsdz3DL/loKJ8Hn2vPxpDoNn4GlWmkREKsXOBfDtv8CaWbi9Xhe4dRb46S3o2sowDGb+NZNX172KzbA5dE6HyA483+N5mgQ3cXJ0UhnMVR2A5GsX0Y472t5RqG174namb5teNQGJiLgTuw1+fR6+GFG04G3cC26fq4K3FrParDyz+hkm/T7JoYLXy+zFQ10f4tOBn6rgrUFU9FYj93a6l6bBTQu1Td00lT3Je0o4Q0REypSZBDOuz1+H91wtBsIt34B3oOvjkmohMSuR0YtGM3v3bIf6Xxx1MV9f9TV3tLvDrTaQqA30vnk14u3hzXM9nmPkgpEF0xysditPrnqSzwZ/pmkOIiLldXQjfHUbpBZzp32Hm+DqONASUrXWzqSdjPt1HMdOHyty7NbWt9I2oi3BXsGEeIcQ7B1MqE8ogV76B6mmUhVVzXSI7MDtbW5n2rZpBW1bE7fy6fZP+Ve7f1VhZCIiNYRhh1N/wb6fYclLYMspfNzsmb/ZxMX3gDYIqFXy7HnsTNrJHyf+4I8Tf/Db0d+K7Jrm6+nL8z2eZ0DjAVUUpTiLit5qaEynMSyJX8KBtAMFbW9vfJv9qfsZ1mwYXet2xWzSzBQREQAMA+LXwsFVeBz4jUEHfsOyKbP4vgF14Ybp0OhSl4YoVee09TTf7fmO5YeXs+nkJjLzSvjZAKL8o3j78rdpFdbKhRGKq6jodYDVasVqtTpl3LM/n+GBB09f/DT/WvyvgrUA8+x5fLfnO77b8x31/OsxpMkQhjQZQsPAhpUel5RPSXmUmkV5rKEyTuIx+1+Y49cA+TeqeJXQ1R7THdvwDyEwCpTnaq0yXo8nMk/wxc4vmL1nNhnWjDL7d4zoyGu9XiPcN1y/ByqJq36vOjq+yTCMsvfPq2Xi4uKIi4vDZrOxa9cuZs6ciZ+f69feW5C1gFU5q0rt092rO4N9B+vKr4jUOgHZR+i+93X8cxPK7Lsn8kq2178Jw6RrPe7umO0Yq7JXscW6BTv2MvubMNHNqxtDfIfgqZ+PGikzM5PY2FhSU1MJCgoqsZ+K3lKkpaURHBxMQkJCqU9iRVmtVhYvXkz//v2xWIreSGG1WXl9w+t8u+fbghvbijO67WjGdBxT6fGJY8rKo9QMymPNYjq4Co9vb8OUnVpiHyM4BqPBRdg73oLRpLcLo5PzVZ7X42nraTac3MDa42v5/fjv7Ekte8WjxkGN6RzZmc6RnelatyvR/tqQxBlc9Xs1LS2NiIiIMote/UvjAIvF4tRklTS+xWLhyUuf5K6Od/Hj/h+Zu2cue1P3Fun34bYPaRfZjn6N+jktRimbs39OxDWUxxpgy9fw3Riwn/OWZmA0tpZD2JDgRaer7sES3ggTWpuzJivp9Ziak8rXO79mxZEV/HnqT/KMvFLHMWHispjLGNpsKF3qdCHcN9xZIUsxXFFHOUJFbw1Q178u/2r3L+5oewfbk7Yzd89cvt75daEX+eMrH+eL4C9oGtK0lJFERGoww4AVr8OvzxU9Vq8LxH6F3TuUo/Pn0ymonuvjE5fYdHIT/1n+H46fPl5mXx8PH66+4GpGthlJo6BGLohOqjMVvTWIyWSibXhb2oa3pWFQQyb9PqngWGZeJg8seYCZQ2ZqDUERcT/ZqfDDQ7D126LHWg6B6z4AL3/doObG7IadT7d9yuQNk8u8shvmE8bNrW7mppY3EeoT6qIIpbpT0VtDxbaKZXvidubunVvQdiDtAI+veJzJl0/WjW0i4j4OrobZdxW/wcTF98CVL4J2xnJrKdkpTFg1gWWHlxV73NPsSafITnSP7k73et1pG95WGzpJEfqJqKFMJhNPdn+S3cm72ZG0o6B96eGlvLf5Pe7tdG8VRiciUglsebDsZVjxWv6GE4WY8ovdS3QTrzszDIN1x9fx+MrHi53O0K1uN+5sfydd6nTBz+L6VZakZlHRW4P5ePrw5mVvMuKHESTnJBe0T908lSbBTRjYZGAVRicich6S9sPsf8PhdUWP+QTDNe9AqyGuj0ucKseWw7aEbfxx/A8WZSzi1VmvkppbdIUOEybu7ng393S4Bw9d5RcHqeit4eoF1OO1Pq9x1+K7sBm2gvb/LP8P2xK3cX+X+7GYdSe6iNQQORmwOg5WTQbr6aLHG/WA4e9BSIzrYxOnyLPnserIKmbtnsXKIyuxnrsqxznCfMJ4qddLXFpPu+pJ+ajodQMXRV/EQ10f4tX1rxZqn75tOptObuLVPq8S5R9VRdGJiDjAlgcbP4WlkyDjRNHjZk/o+xj0fFDzd91EfHo8c3bP4fs933My66RD53Sr242Xe79MHb86To5O3JGKXjcxss1I9qft59tdhe9s3nRqEzfMu4EXe75Irwa9qig6EZESGAbsnA8/PwMJu4rvE9oErvsIGnR1aWhS+QzDYMWRFXy2/TPWHFvj8Hl1/epyc6ubub3t7bpBTSpMPzluwmQy8VT3p2gZ2pJX1r1S6O2hlJwUxvwyhjvb3cm4zuM0/0lEqgdrFnwzCnYtLKGDCbrcBle+AN5airEmy7Pn8dOBn/ho60fsTt5dal8TJi4IuYDQzFCu7nY13aK7Ee0fjclkclG04q5U9LoRk8nEiFYjaB/Znv9b+n8cyThS6PhHWz/icMZhXur5EhYPzfMVkSpkGDB3XMkF7wX94YpnIKqdS8OSypWdl833e75n2rZpRf4mnatdeDuua3EdAxoPwNfky/z58xnUeJB2SJRKo6LXDbUNb8vXV33NU6ue4pdDvxQ69tOBn8jKy+L1Pq/j4+lTRRGKSK234nX485ui7dGdoP+z0LSPy0OSypOQlcDXO7/mq51fkZSdVGK/QK9Armp6Fdc2v5aWYS0L2q3aZEScQEWvmwryCuKNvm8wY8cMXv/jdfLs/+xes/zwcu775T7euvwt/C3+VRiliNRKO+YV3UrYKxCuehPaXgtmba5TU/2V9Befbf+MBfsXlLoKQ5PgJtzR9g4GNRmkCzDiMip63ZjJZOLWNrdyQegF3P/r/WTlZRUc+/3479y16C6mXjGVYO/gKoxSRGqV43/C7LvPaTTB9R9BiyurJCQ5Pxm5GSw/vJxvdn3D+hPrS+3bPqI9d7a/k8tiLtPOoeJyKnprge7R3Xm///uM+XkM6db0gvYtCVv410//4r3+7xHhG1GFEYqIW8lOg/TjENwAvM7aJSvjJMwcUXT93QHPqeCtYZKzk1kav5SfD/3M6qOry1xb95LoSxjdfjQXRl2oG9KkyqjorSU61enExwM/5u7FdxeaX7UreRdD5wylf6P+DG06lG51u2l1BxGpGMOAdR/mLz+WmwGYILQRRLaCyJZwYCWkHS58Tqdb4ZKxVRGtlENSdhJbE7byZ8KfbDixgT9O/FFoQ6TieJm9GNJ0CLe2uZUWoS1cFKlIyVT01iKtwloxbeA0/r3o35zM/Gch8NPW03y35zu+2/MddfzqMKTJEIY2G6pfUiLiuPQT8P19sGfxWY0GJB/I/yhulYaY7jD0f6Arf9VKdl42fyX9xZZTW9iasJUtCVvKXHnhbBG+EdzU8iZuaHED4b7hToxUpHxU9NYyTYOb8umgTxn902gOZxwucvxk5kmmbZvGtG3TGH7BcB6/+HHdZCAipdvxA8y7HzITHT8nuCHc9Dl4ejsvLnFIYlYiyw8vL7iSuzt5N3lGXtknnsXT7En36O4MbjKYKxtfiZeHl5OiFak4Fb0OsFqtTlk+5cyYrl6apY53HT7q/xGT1k1i2ZFl2A17sf3m7JnDX0l/8WqvV6nnX8+lMdYkVZVHqVzKYwXkZuCx6AnMm2eU6zTD4k/eDZ+BdwhU8vOtPDrObtj5cueXTNk8hWxbdrnP9/Hw4dJ6l3J5g8vpVb8XgV5/byBip8w5vmVRHt2Dq/Lo6PgmwzAMp0ZSA8XFxREXF4fNZmPXrl3MnDkTPz+/sk+sgdLsaWzJ3cJm62aO2Y4V28fP5MdNfjfRzNLMxdGJSLVj2InI2EGD5DVEp6zDy5ZZpEu2ZzCbGv6LbEsogdlHCMw+SmD2EQKyj2H19GdrvZtJDmheBcHLGUm2JGZnzuaA7YDD51iwUN+jPg08G9DIsxHNPJvhZdIVXal6mZmZxMbGkpqaSlBQUIn9VPSWIi0tjeDgYBISEkp9EivKarWyePFi+vfvXy12nNmTsocf9//I17u/LrS8GYDZZOb+TvczstVI3Xl7juqWR6kY5bEUhoHp6AZM22Zh3v4dptMnS+xqbzkE2+D/gV/VzOVUHktnN+x8u/tbJm+aXOT3/NnMJjNNg5vSLrxdwUfT4KZ4ml3zBrHy6B5clce0tDQiIiLKLHo1vcEBFovFqcly9viOah3ZmtaRrbmm+TWMXzqeg2kHC47ZDTtvbnyT7Unbefzix3VzQjGqSx7l/CiP5zjyByx6Eg6uKr2fVwAMehlzp1swV4N/jJXHfDa7jVNZpzh2+hhHMo7w3e7vWHt8bbF9+8b0pUudLrSLaEfb8Lb4War+HU7l0T24oo5yhIpeKeKC0Av4YsgXPL7icZYeXlro2KKDi1h5ZCX/avcvRrYZWS1+KYqIE6Qcgl+eLX6r4HM16wdDXoewJs6PS8q0L3UfH2z5gE0nN3E883ihHTmLUz+gPs/1eI4Loy50UYTiDrKtNn7bm0CInxedGoRgNlf9P7tlUdErxQr0CmTy5ZN5f8v7TN00FYN/ZsFk5mUyZdMUvtr5Ffd2upfhFwx32VteIuJk2amw4nVY8y7YckruF9UB2l+fv21wSIzr4pNSLY1fyiPLHyEzr+hc6+Lc2OJGHur2kLakl3JZtO04T8/dxrHU/Bsg6wX7cHXn+gzvXJ8WdQOrOLqSqVKREplNZu7peA9twtvw6IpHSc9NL3T8VNYpnl39LJ9t/4y7OtzFFQ2v0PJmIjWVYcCf38LCR0peeiw4Bjrdkl/sRuhGtOrEMAw+2voRb214q9BFipJE+Ucx8dKJXFrvUhdEJ+7iWGoWT3+/jUXbTxRqP5qazTtL9/LO0r20iQ7i2i71GdaxHqG+1WuzKxW9UqbeDXoze9hs3t74NvP2zivyC3V/6n4eW/EYL1he4MrGV3LNBdfQMbKjbngTqSnSj8MPD8HOH4s/7h0MvR+Gi+4Ci/6xrW6y87J5+renmb9/fol9vD28ifaPpl5APbrU6UJs69h/lhgTKYPNbvDZ6gO8tmgXGTmlT5fZfiyN7T+m8eL8HVzSNJxrqtEtQCp6xSFR/lG80PMFbmtzG29seINVR4re1JJhzWDW7lnM2j2LRkGNGNZsGCNajSDIq/JXvhCRSmAYsOVrWPBfyE4petzsCReOhj6PgF+Yy8OTsp04fYIHljzAtsRtRY4NaTqE2Fax1AuoR7hPuC5ESIVsP5rGY3P+ZHN8SrnOsxuQmmXFqxpd7FXRK+XSMqwl717xLmuOreF/6//HjqQdxfY7mHaQtze+zdc7v2ZSr0l0i+rm4khFpFRpx+CHB2HXguKPtxoK/Z+FcK3PXZ2k5qSy+dRmNp3cxJZTW9iSsKXI0mMmTIzvOp472t6hQlcqLDM3jzd/3s1HK/djsxedMhPu78WTQ9vQom4g3286wnebjnAirfB9AFd3iobkJFeFXCYVvVIh3aO78+XQL1l8cDGzds1izbE1xc4jO5F5gjsX3ck9He7hrg534WGuRv/yidRWh9fDjBsgq5g/Rv6RMOR/0GaY6+MSIH83s6MZR4lPjy/4OJx+mP2p+zmQdqDUc/0t/rzc62X6xPRxTbDilpb8dZIJ323lSErxaznf2K0Bjw1qTah//uYkbeoF8d+BrVizL5E5G4+w4M9jZOfZGdo+it+XF30Xoqqo6JUKM5vMXNn4Sq5sfCXHTx/nh30/8P2e74v8UrYbdqZunsra42uZ1GsSUf5RVROwiMCBVTDzRsjNKHqs3fUw6BXwr0aT8GoJwzBYf2I93+35jsUHF5e6cURJGgQ04O3L3+aC0AucEKHUBifSsnl23nZ+/LP4HVqbRvrz4vD2dG9a9HeEh9lEjwsi6HFBBM9d3Y6N8clEBHg7O+RyUdErlSLKP4rR7UdzZ7s72ZKwhbc3vs3aY4UXQP/jxB9cP+96nr30WS5veHkVRSpSi+39Fb6IhXMLKv86MPR/0PqqqomrFjtx+gRz985lzp45xKfHV3icKxpewdOXPE2IT0jlBSe1wumcPH7ecYJ5m4+ybNcprLai79p6eZgZc1kz7u3bDG/Pst+x9fXy4NJmEVitVmeEXGEqeqVSmUwmOkZ25P3+7/Px1o+ZsnEKNsNWcDw1J5UHljzAJdGXcHfHu+lat2sVRitSi+xcAF/fBrbcwu3NLofrPtKNak5mGAYnMk+wL2Uf+1L3sTd1L3uS97AlYQt2w16usbw9vGkX0Y6OkR0LPrRLppRHns3OL3+dZO7mo/yy4wTZ1pJ/Brs3DeOF4e1pFhngwgidQ0WvOIXZZGZ0+9F0q9uNR5Y/wtHTRwsdX31sNauPrebCqAu5p8M9XBh1oW64EHGWbXNg1mg4d2euVkPh+o/Bs3q9BelOkrKTiNsYx4L9C0i3ppd9wlmCvIKICYwp9NE8tDktw1piMWtrXqmYE2nZ3PnJOrYeSSu1X6ifhSeGtOG6LvXd5u+zil5xqk51OvHNsG945rdnWHxwcZHj646vY93xdXSu05n7Ot3HxdEXV0GUIm5s00z4/j4492piu+tg+HvgoeLJGWx2G7N2z2Lyhsmk5ZZeXJytaXBTrm1+LYObDCbSL9KJEUptdDDxNLd+tJb4pJLnjHt5mhneqT6PDGpF2N83qrkLFb3idEFeQbze53Xm7JnD2xvfJiEroUifjSc3MnrRaAY0GsB/LvyPbnYTOV92G/z8DPz2VtFjnW6FYW+BVlNxiq0JW3l+zfPFrp1bHD9PPwY1GcTw5sPpENHBba6qSfWy83g6t360llPpRbcX9zCb6HlBBFd1rMeAtnUJ8nHPf4ZV9IpLmEymgqsXs3bP4uOtH3My82SRfosOLmLFkRWM6TiGW9rcorfwRCoiKxm+/Vf+jWvnunA0DHoVzGbXx+VGDqcfZmfyTnLycsix/fOxJ2UP3+/5vsStgP08/Wga3JSmIU1pFtKMC0IuoFvdbvhZ/Fz8HUhtsuFQMndMW0dqVuEbyxqF+/HvXk0Z1C6K8Gq20oIzqOgVl/Lx9OGW1rdwQ4sb+G7Pd3z454ccO114aZSsvCxe/+N1vt/7PU9c/IQ2thApj5M74IubIXl/0WOXjoP+z4GuJFbYjsQdvLP5HZbELynXeYOaDGJsp7HEBMboSq641MrdCdz12Xoyc22F2ttEB/HpnRdVu2XFnElFr1QJLw8vbmx5I8MvGM6cPXN4a+NbpOakFuqzJ2UPd/x0B30a9GFkm5FcFHWR/liIANjtkHYY8nLzb04783HqL/jx/4quwWu2wOBXodsdVROvG9ieuJ13Nr/D0vil5TqvSXATnrj4Cd2vIC6RbbWx52QGO4+ns/NEOn8dT2fN3kRybYXn9F/YOJQPb7+QYN/a9W6qil6pUhYPCze2vJEBjQbw5oY3mbV7VpE+yw4vY9nhZbQIbcGtrW9lcNPBeHvUnv9MRQo5thm+uQOS9jrW378O3PQZNOzu3Ljc1M6knUzZNKXcxa6vpy93d7ib29rchkU3C4qTbTmcwssL/2LNvqRitww+W58Wkbx7a1d8vWrfnH4VvVIthPiE8MylzzC8+XBeWPMCO5J2FOmzK3kXT/32FG9ueJObWt7EqLajNA9OapcdP8Dsf4M107H+9brATZ9DcH3nxuWmfjn0Cw8ve5i8c5d6+1ugJZCogCi8zd54eXjh4+mDl4cXF4RcwI0tbiQ6INrFEUttk5Zt5fWfdvLpmoMYpde6AAzpEM0bN3bCy7N2zulX0SvVSsfIjnwx5Au+2vkVcZviil3qJyk7iXc2v8P8/fN5uffLtA1vWwWRiriQYcDKN+CXiY6f0/FmGPomWHycFpY7Wxq/tMSCN8Q7hNvb3s7NrW7G3+Lv+uCk1jMMg7mbj/L8jzuKXY3hXB5mE7df0pgnhrTGw1x7pwmq6JVqx8PsQWzrWK654Bq+3/s9M3bM4GDawSL9DqYd5Nb5tzK+y3hGthmJ2VQ7/3MVN5eXA3Pvhy1fltzHZAazZ/5HaGO4+G7ocrtuWKug5YeX89DSh4oUvCHeIYxqO4oRrUao2JUqsz/hNE9+t5WVe4ou/3lGTJgvLesG0SoqkJZRgXRpFEr9EF8XRlk9qeiVasvP4sfNrW7mppY3sfLISj7b/hlrjq0p1CfPnsdr61/jt6O/8ULPF4jwjaiiaEWcIGk/zLkb4tcWPdbp1vyb0zx9tPxYJfrtyG88uORBrPbCSzsNv2A4j170qKZUSZXJttqYumQP7y7bV+TGNABvTzP392vO7Zc2JsBb5V1x9KxItWc2mendoDe9G/RmZ9JOJq6eyJ8Jfxbq89vR37hu7nX898L/0rN+T4K9g6soWpHzkHwQDq6CAyvhwApIOVRMJxP0fzZ/+TFdyS0XwzBYdngZ07ZOIyk7iZZhLWkf0Z6OkR1pFdaKTac2cf+S+8m15xY6b/gFw3nm0mf0bpJUmSU7T/L099s4lFT8fP7LW9Vh4rC2xITpn7LSqOh1gNVqxWq1lt2xAuOe/VnK1jSwKR9e8SHvbnmX6dunF1oAPik7iUdXPIoJEy1CW9ClThe61ulKlzpdCPEOcVpMyqN7qLI8GnZMW77E47c3MSXtK72rlz+2q9/DaDEQ8oq/uaq2KymPm09tZvKmyWw6tamg7UDaAX468BMAniZPMFFkSsPQJkN54sInsOXZsFF4nVNxHv1ezXcsNZvn5//Fou1FN3MCiAry5skhrejfug4mk6naPV+uyqOj45sMw5H7/WqXuLg44uLisNls7Nq1i5kzZ+Lnp/+eqpu91r18m/kt6UZ6qf1MmGhjacMVPlcQ6aG97KX6CM/4i3aHZxKSdaDMvpmWcNY2e5A034bOD8yNnLKdYlH2InZYi64IU5YOlg5c73e9rvCKyx05DWtOmllz0kSuveg7OmYM+kQbDIqx4137Vh4rIjMzk9jYWFJTUwkKCiqxn4reUqSlpREcHExCQkKpT2JFWa1WFi9eTP/+/bFYtI5jRSRnJzNx7USWH1leZl8PkwdXN7uau9vdTaRf5RW/yqN7cGkeUw7i8ctEzH/NLbOr4RuG0XIwtj6PQ0Ad58ZVQxmGwamsUxzJOMLhtMOs2LIC/2h/jmUeY/3J9diNovMfyzKg4QCev/R5PM16Q7Qq1Mbfq+nZefz453G++eMwW44UXbnojG6NQnhmaGtaRgW6MLqKcVUe09LSiIiIKLPo1avZARaLxanJcvb47qyOpQ5T+k3hh30/MGfPHLac2kKOrfjlW2yGjdl7ZjN//3xGthnJHe3uINCr8n5pKI/uwal5zMuBpZNg9RSw5Rbfxy8cGvWAxr2gcQ9Mka0xmc3oWmO+1JxUdifvZnfKbvYk7yn4nG495x2fYnZhPqOefz1uaHkD8enxbDm1hb0pewtNlRrQaAAv935ZBW81UBt+r55My+aNn3fx3cajZFlLnkIT5u/FY4NacV2XBphr2LJjrqijHKFXtNR4JpOJq5pdxVXNriLXlsufCX+y/vh61p9Yz+ZTm8nKyyrUP9uWzQd/fsDXu77mmmbXcG3za2ka0rSKopdaI+0ofDUSjqwv/nhES7jyBWjWT6sxkD+3dmfyTnYnFy5uT2YVP7fRESHeIdzV4S5uankTXh5eBe2nrafZlrCN3Sm7ifKP4vKYy7XluTid3W4w4/dDvLLgL9JzSp6jbzLBiAsb8sjAloT4eZXYT8qmolfcipeHF13rdqVr3a7czd2k56Yzbes0Ptv+Gdm27EJ9U3NS+WT7J3yy/RM6RnbkuubXcWXjK7UkkVS+g6vh69vgdDEFm28oXPYEdL0DPPQrGfJvOnti5RPFrs9dET4ePqW+u+Nv8eei6Iu4KPqiSnk8kbLsOJbG43P+ZOOhlBL71A3y5oauMdzYLYaG4fq7VBn0G1bcWqBXIPd3uZ8RrUbwzuZ3mLN7Djaj6NtHm09tZvOpzUz6fRJXNbuKMZ3GEOYTVgURi1sxDFj3ISx8FM7d2cvsCRfdBX3+m1/4CgCrjqziwaUPFnmHxhHeHt5E+0djybTQvnF7YoJiqB9Qn+7R3Qn10XMsVS8zN4/Jv+zmwxX7sdmL3lLlYTZxeas6jLgwhj4tIvH00Ls+lUlFr9QKdfzq8PQlT3Nbm9t4a8Nb/Hzo52L7ZeZl8tXOr1iwfwEPdHmA65pfh4dZt8ZKBViz4cf/g02fFz0W0ghu+hyiO7g+rmps4YGFPLbisWK3/j2bxWyhSXATmoc254KQC2gR2oILQi4g2j+avLw85s+fz+CLBrv9XFCpOdKzrcxce4iPVu7nZAnbBl/bpT6PDGxF3SBtHe4sKnqlVmkS3IQ3LnuDfan7+G73d3y/93uSspOK9EvLTeO5Nc8xZ/ccJlwygbbhbasgWqmxTmyDOffA8S1FjzXrB9d9CH56J+FsX+/8mufXPF/ohjKAaP9oWoe1zi9wQy+geUhzGgY1xGJWQSvV38n0bKatOsDnaw6Snl38P3NNIvx54Zp2XHqBdhR1NhW9Uis1DW7KQ90eYlyXcSyPX87sPbNZeWRlkaWNtiZu5eYfbubGljcyuMlgwnzCCPcNJ8ASoBtdaqO8HMhKyV86rLj826yw8k1Y9jLYi1ksvedDcPkEcPN3D05mniQxK5FIv0jCfcJLfa0YhsGHf37IWxvfKnJscJPBPN/zeRW4UuMcTcliypI9fPvHYXLzil8yz+Jh4t6+FzCmbzN8LO79O6G6UNErtZrFbKFfo370a9SP46eP878//seC/QsK9TEw+GrnV3y186uCNi+zF2G+YdTzr0fbsLbk5eZxYdaF1LPUc/W3IK5gGPDHdPjlWchKgpCG0HIItBoCDS/JvwHtxDb47l44trno+RZ/GP4OtLna5aE7W6Y1k22J2/gz4U/+PPUnWxK2cDLznxv2fD19qR9Qv+DDx9OHtNw0UnNSSctJIzE7kT0pe4qMO6LlCB67+DFtDCE1itVmZ9qq/byxeHepy4/1vCCCZ4a15YI6AS6MTlT0ivwtyj+KV3q/wrXNr+WFNS9wIO1AiX1z7bkcP32c46ePs+HkBgC+mPMF9QPq0yGyA5fWu5RBTQbh7eHtoujFaZIPwtxxsH/ZP20ph2DtO/kfvqHQ8FLYvaj4q7uRreCG6VCntctCdqZcWy6bT21m9dHVrD22lm2J24q9OfSMrLws9qTsKbawLck9He9hTMcxejdFapQ/DibzxJw/+et48buEmkxwZZso7unbjE4xIa4NTgAVvSJFdI/uzqxhs/h0+6e8t/m9IkudleZIxhGOZBxhwf4FvPHHG4xoOYKbWt2klSBqIrsd1n8Ei58G6+mS+2Ulw84fi7abzNDjAejzKFhq9o0pSdlJzNs7j9VHV/PHiT/K9Zoor0cvepRbWt/itPFFKltqppWXf/qLL34/RHF73Fo8TFzbuQF39WlKs0hd2a1KKnpFiuHl4cXo9qMZ1GQQ7295n9+P/U5idmK5llFKyk5i6uapfLT1I4Y1G8bINiOJ9o8mMy+T09bTZFozycrLwtfTlwtCLtAqEdVJ0j74fhwcXFmx8yNbwTVToX7Xyo3LxRKzEpm+bTpf7fyqQkuIlYeX2YtnLn2Gq5pd5dTHEakseTY7X62P543Fu0jIKH6HxZsvasgD/ZoTFVyz//F1Fyp6RUpRP6A+Ey+dWPB1pjWTpOwkErMTSchK4K+kv9h0YhMbj28kh+KXocmx5fDNrm/4Ztc3JT5OkFcQl9a7lB71e9CjXg8i/SIr/XsRBxgGpo2fweIJxV/dDaoP/Z6G5APw1w9FV2cwmaHHeOjzSI2+upuQlcC0rdP4eufXDl3V9TB50CK0Be0j2tM+sj0dIjoQExRDQmYChzMOF7wDcjTjKHn2PIK8ggj2DibIK4gg7yCCvYJpG9GWOn51XPDdiZwfwzBYvP0Ekxb+xb5Txb8L1CoqkBeGt6drI60PXZ2o6BUpBz+LH34WPxoENgCgX8N+WK1WfvjxB1r2aMm25G0sPrCY1cdWl2vctNw0Fh5YyMIDCwFoEdqCfg37MbLNyGJ3kBInyEziwv1v4bnpj+KPd7kdBjwHPsH5X/d9JH9u71/zYd9S8PSGHvfX2Ku7dsPOllNb+HHfj8zZM4ccW/H/xAGYMNEmvA3do7vTvV53OkZ2xNfTt0i/6IBoogOiuZALnRm6iMtsOJTMS/N3sO5AcrHH/bw8ePCKFtzRo7E2lqiGVPRWJ7mnwcu/qqOQCjCbzDQPaU6byDbc0OIGdibt5NPtnzJ///wyF9ovzq7kXexK3sWsXbN4vPvj9GvYzwlRS4G9v+I55x7qZZwoeiy4IQx7C5pdVvRYSEPofk/+RzVmGAYGRpGVEGx2GxtObmDxwcX8cvAXTmYVs03y3zxMHlzZ+Er6NezHRVEXEeIT4uSoRaqP5NO5TPh+Kz9uOVZin/5t6vLMsLbUDyn6D6BUDyp6q4tjW+DTYdD/Weg8svg1QKXGaBnWkhd6vsADXR5g5o6ZfL3ra9JzC9/Ra8KEr6cvmXmZJY5zMusk45eMp3+j/jx20WOa9lCZstMgeT9s/hLWTKXYV1zXUTDgefCumVfbtydu5/Ptn7MkfgkZ1gy8zF54e3rj4+GDt4c3GdYMUnJSSh3Dw+TBsGbDGN1+NA2DGromcJFq5I+DSYybuZGjqcVP9WlfP5jHBrfi0mbaXKK6U9FbHeRlw/+3d9/hUVbpw8e/0zKpk0p6JyGhd6RLB7EgFhSEVdeuK+qubnFff7uWVdfddReVtXdFRVdQEEUUUKmS0HsCSQgpkJ5Jn/K8f4wJhEwKyUzK5P5c11zBeZ7n5ExuZ+aeM+ec+/M7bavAv7zf9nXpVS/YNsAXPVqwZzAPjnyQ+4bdR3ZFNjqVrmGKhLvGHZVKRX5lPltztrI1dyvbc7dTYapo0s6GrA3syN3B70b9jpEhI8mtyCWn0jZHMqciB0+tJ5dGXsqUqCmyzZM9dVWw90PI3gnFGbZkt6qo+fM9A+GqlyB5buf10UEsVgubszfz/pH3ST3TeKpGnbWOuro6jNjfUul8WpWWeQnzuH3w7Q3TeYToTaxWhdd+Osk/1h/DYm26LUNUgAePzE7misFhqNXyutsTSNLbDag3Pw0FR87dcfxr+O84W+KbfHnXdUw4jE6jI9433u6xUK9Qru13Ldf2uxaT1cT+gv28tv81tuVua3Se0WTkr9v/2uzv+F/a/+gf0J+7h97N1KipkvyCrajEkS9h/Z+hLLtNl1jjp6Ge/wr4hDi5c61TFIXS2lI8tB64a1teGJdTkcN3Wd/x0dGPyKnIaffv7OvblxkxM7gm8RrCvaXYinBdiqJwsrCSnJJqQgzuhPu54+Nuq/5XXFnHb1fuZfOxgibX+XnquH9aIovHRqPXyq47PYkkvV1NUWxzeS9UVQgfL4Lhi2HOsz3261VxcXRqHSNDRvLKjFdYe3Itz+16rtWvn893pPgID2x6gOSAZO4ecjdTo6f23opWBcfg69/bFpm1gaLRczD0epJvfB61m+OLimQbs1mfuZ4NWRvIrcglzCuM5IBk+gf2p39Af/r590NB4WDhQfYX7LfdCvdTXFOMVqWlf2B/hgUPY0TwCIYFD8Nf78+BwgNszt7MD6d/uKjiDxdKDkhmRvQMZsbMJN7P/oczIVxJalYxf//6GD9nFje638ddS4SfB4UVdRRWNF3MOTY+gBduHE6woefuztKbSdLb1VQqrHP/hSb5MtvUhsoLPlXu+QAyfoT5r0LM+K7po+h0KpWKK/teyYSICfxj1z9Ye3LtRV1/tPgoD25+kBhDDIODBpPon0iCXwL9/PsR4hniOqPA5lqoKQNLne3fFhNYamH/Stj5CrS6iFBl24Ysagzm8Q9xMiWD5GY+JFSZqlifuZ600jTUqNFpdGjVWrQqLVq1Fg+tB356P3z1vg03RVHYlL2JbzK+4WDRwUbtldaWcqT4CKvSV/3SExUqlQqrYm36MBWzrcxv4QHeP/w+YCvv25a9c/t49GFh8kImR07GZDVRY66h1lJLjaUGq2Il2T+ZKENUq+0I4QqOnzHy3DfH+O6InUWrgLHGbLeimkoFS6clsnR6IhqZytBjSdLbXSRdBvfugDUP2Pb/PF/pKXj7MtuWSTP+Cp5S3au3CHAP4JlJz3B5/OX8bcffOF1xGgBfvS/hXuFEeEcQ6hXKlpwtdssmZ5VnkVWe1eg+H50Pcb5xRBuiiTHEEGOIIdoQTaR3JF46L7Rq574smK1mvs74mo2nNhLgHsD48PFcEnYJ3m4XUamo6ARsehqOrLEluW0VOwmSr4CAOPCPA/8Y21ZjACYTkNHkkoKqAlYcXcHKYysprytv+++6SAoKir1yTs1oLeEdEDiAJQOWMDtmNjqNrqPdE6JHyymt5vlvj/P5ntN2q6a1JMhbz7IbhzEhQRaq9XSS9HYnXkFwwwe2BTdf/xEuWO3P7ndtCfHMJ2DoIlD30q+te6GJERNZO38teZV5+On9miSID1sfZn3mel7Z/woZZU0Tt/MZTUb2F9q+OrdHq9biobHNIXXXuhPpHcnVCVczM3YmOnX7kyeTxcSak2t4ff/rDck7wMrjK9GqtAwLHsaEiAlMjJhIkn+S/dHo8jz48TnY/V6Lo7gWoFKtokqlpkqtotInhKpRv8Y7cQ5JgcltSuw7uu1cV/DX+zMpchLXJl7L8ODhrjOiL0Q7KYrCe9uzeHrdEWrNTb9FAfDQaag2Wewem5AQyL9vGEawj0xncAWS9HY3KpVtHm/sRFh1D5xqvJiJqiL44j7Y/T5c8TyEDOyafopOp1Frml1Fr1FrmBs/l9mxs/k261te2fcKJ8tOtuv3mK1mjFYjRpPtQ1e2MZvtedt5PvV5bup/E9f2uxaDm6HRNaU1tq/qC6oL8NH54O/uj7+7P356P9y17nyR/gVvHHiDvEr7e1yaFTMpZ1JIOZPCst3LCPcKZ3bsbGbHzWZAwABUNaWwdRnseAWaGeE0A997evCRwYe97nosFyZ8ae9C2rtEeEdw2+DbmNd3Hm4at0anWBUrW3K28NHxjy66wEhb+Ov9mREzg/Hh48mtyOVo8VGOFB/hZNnJhmkNWpWW5IBkhvQZwpA+QxgYOJD8qnz2nN3DnjN72Fewr9E2dwl+CQ07dwwOGizlrIX4xZnyGh7+dB8/pRXaPR7g5cZvpiZw01jbVnz5ZTXklFaTW1rDmfIaYgO9mDMoVKYzuBCVcjHfp/Uy5eXl+Pr6UlZWhsFgaP2Ci2QymVi3bh1z585Fp7Mzgma1wI6XbV/j2iuJqlLb5iN6+IGH/7lb2DAYfD3oL+LrYtFurcaxC1isFvYX7udI0RHSStNIL0knvTTd7nZoF8tD68H8hPkY9AaOFh3laMlR8ivzHdBr+6JUemaXlzKjvIwYkwnvC16yStVq/ufjxccGH/K1bf8cH+IZwq2DbuXaxGuxKlZWp63m9dTXKbTaf4OsNz58PEEeQZitZsxWMyarCbPVTKWpkrLaMsrqyiitLW0YHfZx82F69HQui72M0WGj7Y6W15hrOFF2AhTo69e3xZ0azFYzx0uOU1RdRKxvLFE+Mh/3fN3x+SguXkfjuO5AHo+uOkBplanJMS83DbdPiueOyfF462Xsz5k66/nY1nxNot2dqTUw/jcw8Gr45k+2rZfOp1ht2zDZ24pp24tw/TsQNqQzeiq6GY1aw/Dg4QwPHt5wn6Io5Ffmk16azinjKTLLMjllPEVWeRa5FbkotO3zb7W5mhVHV3S4j4MCB+Hl5sXuM7sxWZu+MdXLVmp5w8eDN3xsVY58LFZCLGZCLQoe/nH8ZCqi5mLm9f7iTNUZnv35WV7f/zp11romxUPO56Z246qEq1gyYEmzW8+dT1EUqs3VVJoq8Xf3b3U6hbvWnYGBbfvWRqvWMiBwQJvOFaK3Kas28fiXh/h8j/1t+266JJqHZvYjyNvxO7SI7k+S3p7ANxJueB/SNsC6h6Eks/Vrik/AGzPgsmdh5K1S4U2gUqkI8w4jzDusybFaSy3F1cVUW6qpMdc03AqqC/js+GfsLdjrsH6MCB7BXUPuYlz4OFQqFVWmKnbl7WTL7lfZUriP07qWX5aMGjVGjRvpADW5bfqdeo0evUZvdyFaUU3zRSr89f7cmHwjNyTdQKBHYJt+F9j+1vVFSIQQznc0v5wPdmSxek8uFbVN5+CHGPT88/qhTEqUqpa9mSS9PUniTNsOD1v+bZvfaLZfErGBpRbWPgSZW+HK/8hev6JZeo3ebjIMMC9hHvsK9vH+4ffZkLXB7pZa9W1E+URRZaqipLakye4CY0LHcPfQuxkVMqrRAivP6jIu3byMS09uQgGOu+n4xsuTb7w8Od2Or8OGBA1hUf9FjAwZiYfWA0+dJzq1DkVR2Jm/k1f3vUrKmZQW20jwS2DJgCXMjZvbalEIIUTXqDFZ+PpgHh/sOEVqVkmz510+JIy/XT0IP0+3Zs8RvYMkvT2NzgOmPgrj74czh2yli8+/pW2AvL2Nrzn4GeTugQXvQujgLum26NmG9hnK0EuHklORw0dHPmJ/4X50ah3JAcm2AgsB/Yn1jW30NX6NuYbS2lJKa0sJdA+kj6edEZajX8EXv4Fq2wbxKiCpzkRSXRlLS8o47OHD+vAEvtOaya4ra7Z/WpWWWbGzuKn/TQzpY39Kj0qlYmzYWMaGjSX1TCqv7nu1yWK1JG0SD05+kAmRE2TnAyG6sS/35fLXLw9RXFnX7Dk+7lqenDeIecPC5fksAEl6ey69D0SPbXr/5N/Dd3+FHcsb318/3eGK/8CwhZ3RQ+GCIrwjeHj0w206113rTqg2lFCv0KYH66pg/aOQ+radK1UwdCGqAfMYGDeZgW6e/BbbFIwzlWfIq8wjvzKf/Mp8CqsLifCOYG78XII9g9v8OEaGjOS1Wa+xv2A/6zLW4an1ZG7MXA5tOcQloZfIG6QQ3ZSiKPx38wn+sf5Ys+eoVTBrQCiPXTmACD+PTuyd6O4k6XU1WjeY87StetsX99qqVdUz18DquyFvH8x6EmTDetHZynMh5S1Ifadp9UEAn3CY/wrEX9rkkF6jJ9oQTbQh2mHdqd8WDGyrjA9xyGFtCyEcy2yx8tgXh/jo51N2j/fx0bNwdBQ3jImWZFfYJUmvq+p/BYQOgk9vhdzdjY/tfBnOHLTt7uAlFWaEkykKZO+Ena/adiBprtBD/yvhyhek4qAQoomqOjO/WbGHjUfPNjk2Lj6QJeNimDkgBJ1GijaJ5knS68r8Y+HX6+Hb/wc/v9r4WOZP8NoUWwW48GGtt1VTDsZ8MITJgjjRNkUnbGWCD34G+QeaP0/nCXOehRG/kl1GhBBNFBhrue3dXew/3Xhev0oF/+/yAdw2Ma6LeiZ6Gkl6XZ3WDeY+Z0ts1zxo29GhXlk2vDUbki4DvcGWzNb/rDVC8UnbrSTj3FfRegNc9ncYtqgrHo3ozhQFzh62JbqHv4SzbZgqED8F5v4TghKd3j0hRM9iNMHb27J4d/spckob7wbjplXznxuGMXew/V1nhLBHkt7eYtgi6JMEnyyB8vM27TbXwKFVbW+nthxW32PbBm3uP8BN9iHt9crzYN9HsHcFFKW1fr7OE4bcAGPuhBApsiCEOKfWbGHjkbOsTDnFD8c0WGm6YM3PU8frvxrF6FiZCiUujiS9vUnESLhzM6y8GU5t61hbez+AnFTbNmh9khzSPdGNVJyFw1/AiU22D0ZBiRDUD/ok2+Kt94Fj62DPh3Die1t1wNb4x8LoO2D4TbZy2UII8Ysak4Xlm9J5b3sWZdX1FRqbTneK9PfgnVvHkBDs3bkdFC5Bkt7exjsYfvWFbbuoXa93rK2CI7Z5wVf8G4be6JDuiS5UWWhbaHZoFWRuaZzInvi+8blqbfML0s7n1QeSr7AtUoufYiutLYQQ50nJLOb3/9vPyYLKFs8bEe3HK0tGEuwjBWNE+0jS2wYmkwmTydT6ie1o9/yfnUcFs56BoYtRn/weaoxQZ0RVa7TN5a0tB607in8s+Mei+Meh+Mejyt+H5uvfoao774XJVAWr7sJ64gcss/7WKxe5dV0cHcBqQZW+AXXq26gyNqNSLG28rvmEVzFEYk2+HCXpCpTIMecSXYvVduumenQcRQOJY89RVWfmXxvSeX/nKRTF/jnuWjWzB4Ywf3g44+ICUKtVEtsepLOej21tX6Uozf2v1nstX76c5cuXY7FYOH78OCtWrMDTU+auAnjV5DE64yV8a7KbHKvSBbA3+tcUGOxXxBLdh85sJKboR2ILv8errrDD7ZnV7uT4X8KpgEkUeyXKLgxCiBYdL1Px8Qk1RbX2XysSDAqj+1gZFqjgLl8QiVZUVVWxaNEiysrKMBgMzZ4nSW8LysvL8fX1pbCwsMU/YnuZTCY2bNjAzJkz0el6UKEIUzXqDX9Gs+c9u4etQxZhmfkkuPt2cse6Ro+Jo8WE6vTPqA+sRHXof6jMNS2erui8UPrNRgnoi6ooDVVhGhSlobKcK/tpjZmAdcgilOQrwM3L2Y/AqXpMHEWLJI7dW1ZxFcu+T2fN/ny7x4dEGnh63kDiA90lji6gs56P5eXlBAUFtZr0yvSGNtDpdE4NlrPbdzidDua9CHGTbNugmRrPw1LvX4E6Y5Ntrm/CjF5T+a1bxrGiANI3QNq3kL4RastaPl/nCf1mw8D5qBJnodJdUNXIYobSLDDmgX8sat9IXG0r+G4ZR3HRJI7dy9nyGl7YmMbHP2djtjYda9Nr1Tw8K4lfT4xDc94UBomja+iMPKotJOkV7TdkAUSNgS/vh4wfGx8z5sFHNwIq8A4BQ/i5m1+MbQeAoETwjQb1eWlTxVnI3fPLbS9Y6mDkzdD/KvnKvK1KsmyL0Y58CTm7gTZ8mRM21LaF2MD5LY/YarQQ2Nd2E0KIVpRVmXj5hxO8sy2DGpP9Of1jYgP4+3VDiAvq2d8Wie5Pkl7RMf6x8KsvIfUd+PYxqDNecIICFfm224XlkAG07hCYCD4hcPZI4z2E6534HvrNgcv/Bb6RTngQLqA8Fw6thkOfw+ldbbtGrbMluWPuhMhR8qFCCOFQq/fk8JcvD523BVljPnotD89OYsnYGNRqef0RzidJr+g4lQpG3WqbyrBmKZzY2PZrzTVw5oDt1pLj39i20Zr+fzD69t659ZXVYivtW5Jpm2JQmmUb1S3JgPyDtGlEFyB0MPSfZxtB9w52Zo+FEL1QWbWJx1Yf5Mt9uXaP67Vqbhkfy92X9sXfy62Teyd6M0l6heP4RcHiz2HPB/DDc1B2yrHt11XA17+H/SvhiuchdEj7RycV5Zft2X7Zoq3WCDXl50aqVRpbYl3/083LVtxDq3fc42kLixkyf7IViji69lw56Ivh5m3bIzdxFiTOtE0xEUIIJ9h+oojfrdxLblnThbIatYoFo6J4YHoiob6y167ofJL0CsdSqWDEEhi+GKqKbdMVjHm2n+W5UJZjK1VbcLz5RVU6L9sc05CBtmSv8mzj4zkp8OpkcPOBoARbpbCgRNs0CUM4eAXZiiK4edv6oyhQlg2nU2xV5HJ2Q95e2x7DFyOoHyz82PnzWWvKIHsXHPkCjqyF6uKLb8PD3zYPeuDVEDOh85N1IUSvUme28q8Nx3jtx5N299ydOziUh2clEd9HKqmJriNJr3AOlQq8Am23MDv79iqKbdFa4XHbreKMbX5w+HBbclk/fWHan2HD/8FuO9uj1RnPLXqzR6O3Jb/mGqjq+F60FB6HN2fCopW2ObAXS1HAYgJLre2nudb275IsWxKeuxfy9kHxifb1T2+wVT8bdI1tZLeX7JohhOhap0uquPuDVA7mlDc55uuh42/zB3HFEPmGSXQ9SXpF11CpbIvXfEJsW581x8MfrnoRhtwAax6AovS2/w5LLZSf7nhfz1dVBO9cAde9CcmXt35+XRUc/B/sftc2wtzWimct8Qy07YDhH3PuZ0BfiLoEdPKVoRCi8+w8WcS9H+6mqLKuybHxfQP514KhhPl62LlSiM4nSa/oGWInwt1bYcvz8PNrUF3i2PZ1XuBu+GVKhNpWZlexgNVqm4ZRc95UDHM1fLIYLnsOxtxhv72zRyH1bdj7Uet747ZF+HAYMM92C4jveHtCCNFBH+zI4q9fHmqy766bRs0js5O4bWKc7MoguhVJekXPoXOHqY/CpX+0zREuSoPCtHNTJIozbfN/m6s05uFvW4xWf+uTZKsa5+Zj23+2ObVGWPmrxrtSKFZY9zAUpaPqM5C+Z7eh3rQH6spsCe+pbR17rGrdL4nuVba5uf4xHWtPCCEcpM5s5fE1h/hwZ9PFyvF9vHhp4QgGhDu+iqkQHSVJr+h51GrbThF+UdB3WuNjigJ1lbY5vJW/3Kwm26I4/7j27fag97HN413zIOz9oPGxna+gBQYB2NliuE00brb+hQ2D8GG2RXzBA2TxmRCiSxlrTBzMKafGZKHGZKH6l9sXe3P5OaPpAttpycH858ZhGNxlPYHoniTpFa5FpQK9t+3mH+u4djU6mPeSLdHe/MzFdsq2h/GoW6FPsq0tjd72U6u3FejojfsOCyG6JUVRWL4pnZc2pTdbRe1C90zpy8OzktDIdAbRjUnSK0RbqVQw5Y9giLAtqmttUZpnkG37tpG3ODYBF0IIJ6mus/DIZ/tYuz+vTefrtWqeu24I84ZFOLlnQnScJL1CXKwRS8AvGr77K1QWorj7UlhpITAqEbVXIHgE2LZp6zdHpigIIXqM/LIa7nw/hf2n27b4NszXndeWjGJwpK+TeyaEY0jSK0R7xF8Kd24CwGwysW3dOubOnYtaJ3PZhBA9z77sUu54L4WzxtpG96tUEGZwx91Ng4dOg7vO9nNkjD9LxsUQ5C0f7EXPIUmvEEII0UspisIXe3P5w//2U2tuPH/XR6/lhUXDmZoU3EW9E8KxJOkVQgghehlFUfgprZB/f3ecPadKmxyPCfTkzZtHkRDs0/mdE8JJJOkVQggheglFUdiSXsh/vksjNct+kZ/xfQNZvmgE/l5undw7IZxLkl4hhBDCxVXUmtl49CzvbcskpZlkF+CmS6L561UD0WnUndg7ITqHJL1CCCFED7XjZBH7sksJ9NYT6e9BhJ8HYb7uaDVqyqpNfH/kDOsO5PNjWgF15ub33I0K8ODhWUmy9ZhwaZL0CiGEED1MndnKU18d5r3tWU2OadQqQg3unDXWYLIoLbYT6e/B/dMSuGZEpIzuCpcnSa8QQgjRg5w11nDfh7vZlWl/moLFqpBTWt1iGxF+55JdN60ku6J3kKRXCCGE6CF2nyrhng9SOVNe2/rJF9BpVExICOKKIeFcNTRckl3R60jSK4QQQnQjeWXVZBRU4u2uxVuvxcddh4+7llV7cvi/Lw42mbKg16qJCfTkdEk1VXWNy6O7adRM7hfEZYPCmNE/BF9PKaAjei9JeruR9YfymZ4cjFbmVQkhRK9TYKzlT58f4LsjZ9p8TYSfB68uGcmgCF8URaG0ysTpkmpySqvQazWMivXHx10SXSFAkt5u44u9OTzw8V4uiQvgxYXDCTa4d3WXhBBCdJJvDubx6KqDFFfWtfmaCQmBvLhwBAG/7KerUqnw93LD38uNwZG+zuqqED2WDCl2A+lnK/jT5wcA2JlRzNwXtrDtRGEX90oIIYSzldeY+O3Kvdz9we6LSnjvnBzPu7eOaUh4hRCtk5HeLmZV4LefHmg0D6uwopbFb+zkoRn9uG9qAmq1qgt7KIQQor1KKut48qvDfHvoDJ5uGsL8PAgzuBPq604fHz0rdp6yu9OCm0aNgtJk/q6Pu5a/zR/MVUPDO+shCOEyJOntYmoVPHFVfx74ZD+5ZTUN91sV+NeG46RklfDvG4bJp3khhOhhtqQV8rtP9zbstFBRa+assZZ9rVw3e2AIT88fTKC3nlqzhYoaMxW1ZqrqLEQFeOKtl7duIdpDpjd0A8Oi/Phq6SSmJvVpcuyH4wVc8cJP7D7VfNlIIYQQ3UeNycKTaw+z+M2dF7W1mI9ey7+uH8ori0cS6K0HQK/VEOitJybQi/5hBkl4hegASXq7CX8vN968eTSPzE7iwtkMuWU1LHhlO+9szUBRWq6uI4QQouscyzdy9fKtvLkl46KuGxcfyDcPTebakZGoVDKlTQhnkI+M3YhareK+qQmMiPbn/o/2UFhxboTAbFX465rDpJ4q5dlrBuMln/aFEKLbqDFZeOOnk7ywMZ06s7XJ8UmJQfxqXCxnymvIL6sht6ya/LIaakwW5o+I5KYx0bJ+Qwgnk8ypGxrXN5B1D0xk6Ud72HGyuNGxNftyOZJXziuLR5IQ7N1FPRRCCAFgtSqs3pvDP9YfI++8dRn13LRq/nRZMjePi5WkVoguJtMbuqlgH3c+uO0S7p3St8mx9LMVzHtpC2v353ZBz4QQQgDsOFnEvOVb+e3KfXYT3uRQH9b8ZiK3ToiThFeIbkBGersxrUbN7+ckMyLan4dW7sVYY244Vlln4Tcr9vD57hzmDAxlev/ghoUPQgghnGf3qRL+uymd746ctXtcpYLbJsTxyJwk9FpNJ/dOCNEcSXp7gBkDQlh7/0Tu+WA3h/PKGx3bePQsG4+eRa2CkTH+zBoQypxBoUQFeHZRb4UQwvVYrAobDp/hjZ9OkpLV/G46ExICeXRufwaGS0U0IbobSXp7iJhALz6/dzz/98VBVqacbnLcqsCuzBJ2ZZbw7DdHWTotkaXTE2QVsBBCdEB1nYXPUrN5c0sGmUVVzZ6XEOzNo3OTmZoULK+7QnRTkvT2IO46Dc9dN5SRMf48seYwledVcTufxarw7++OU1pdx/9dMUBegIUQoh0O5pRx1/updium1Qv0cuPBmf1YODoKrUaWyQjRnUnS2wPdMDqaOQPD+P7oGTYcPsMPxwsalTGu9/bWTKpqLTx9zWA0sohCCCHa7LvDZ1j68R67r60AoQZ3bp0Qy6JLovFx13Vy74QQ7SFJbw/l66njmhGRXDMikhqTha3phaw/lM+nqac5v37FJynZVJksPL9gKDoZhRBCiFa9szWDJ9YexmqnFtDAcAN3TIrn8iFh8poqRA8jSa8LcNdpmN4/hOn9Q5iQEMRvV+7Dct6r9Zp9uVTXWXhp0XDcdbKSWAgh7LFYFZ5ce5h3tmU2OTYi2o+HZyUxrm+gTBkTooeSj6kuZt6wCF6+aQRuF4xAfHfkDLe/m0J1M1/VCSFEb1ZVZ+au91PsJrzXDI/g4zvHMT4hSBJeIXowSXpd0KyBobx5yyg8LhjV3ZJeyN0fpNotkSmEEL1RRa2Z1388ydR/bra77+6DMxL514KhuGnl7VKInk6exS5qUmIf3rttDD76xjNYfjhewEMr9zaa/iCEEL1NUUUt//r2GOOf+Z6/rTvCmfLaRsd1GhX/vmEoD87oJ6O7QrgImdPrwkbHBrDijrEsfnMnZdWmhvu/2p+HwV3H0/MHyYu5EKJXyS+r4eXN6XySkk2Nyf63Xr4eOl5bMpJL4gM7uXdCCGeSpNfFDY705Z1bR3PTGzsbbb3z0c+n8PPU8Yc5yV3YOyGE6BwFxlr+uzmdD3eeanGK17j4QP42fxDxfbw7sXdCiM4gSW8vMDzan9eWjOLX7+yiznLuxf7lzSfw9dBx96V9u7B3QgjhPCWVdbzy4wne25ZFtan5hbyzBoRw95S+jIj278TeCSE6kyS9vcTExCBeWDiMez/c3WjvyWe/PopaBTePj0Wvle3MhBA9n9kKW08U8WNaMStTsqmoNds9T6tWcfXwCO6aHE9iiE8n91II0dkk6e1F5gwK49lrhvD7/+1vdP/T647y2o8ZLBoTxU1jYwgxuHdRD4UQon1OFVWx+fhZNh09w9Y0DXU7U5s9V6dRccPoKO6ZkkCEn0cn9lII0ZUk6e1lFoyOorzGxFNfHWl0f2FFLS9sTOe/m08wZ1AosweGUl5jotBYR0FFDYXGOsqqTfQPM/DQzEQpuymE6HImi5WvD+bz7rZMUrNKzjtif4GuRq3i2hER3D8tkagAz87ppBCi25Cktxe6fVI85dUmXtiY3uSY2aqwdn8ea/fn2b12+8kiUk+V8P5tYzBI4iuE6AIFxlpW7DzFhzuzOGusbfV8lQrmDQ3ngRn9iAvy6oQeCiG6I0l6e6nfzkpieLQ/r/xwgp0ZxRd17b7sUpa8+bMkvkKITmO1Kuw4WcTKlGy+OpCHydLyXuMqFQyN9OPSfn24cmg4CcGyG4MQvZ1LJr2fffYZH374IampqRQWFhIXF8evf/1rli5dik4nSVq9qcnBTE0O5kheOe9tz2LVntPN7lt5IUl8hRCdIf1sBZ/vPs3qPTnkltW0eG6glxuTEgIxVJ3mvmunE+Ino7pCiHNcMun95z//SWxsLM899xwhISFs27aN//f//h/79+/n3Xff7erudTv9www8c81g/jgnmZUp2azdn0thRR1BPnr6eLvRx0dPoJeeT1KyKTjvq8R92aX86s2feU8SXyGEA9WZrXyWeppPdp1i3+myVs8fHevPLePjmDUwBKwW1q3LJsDLrRN6KoToSVwy6V2zZg19+vRp+O+pU6eiKAqPPfZYQyIsmvL11HHH5HjumBxv9/jVwyNY+PqORonvXkl8hRAOoigKXx3I4x/rj5FVVNXiuW5aNVcPC+dX42IZFOHbcL/J2vxevEKI3s0lk97zE956I0eOBCA3N1eS3nZKCPbmozvG2k18l7yxk5cXjyRctv8RQrTD9hNFPPv1kVZHdpNDfbh2RCTXjoyU0VwhxEVRt+eiY8eO8eKLL3LLLbcwePBgtFotKpWKp556qk3Xf/rpp0yZMgV/f3+8vLwYOnQozz33HCaTqT3daZMff/wRNzc3+vaV6mMdUZ/49vHRN7p/3+kyLlv2E98ctL/rgxBC2HP8jJFb3/6Zha/vaDbhDfLWc/vEONYtncQ3D07mjsnxkvAKIS5au0Z6X375ZZYtW9auX/jggw+ybNkytFot06ZNw9vbm40bN/KHP/yBNWvW8O233+Lh4djRwsOHD7Ns2TLuvPNODAaDQ9vujZob8S2rNnH3B7tZOCaa/7tiAB5uUuFNCGFfjcnCixvTePWHk5it9ndiGBblx9LpCUxO7INW064xGiGEaNCuV5FBgwbx8MMP8+GHH3LkyBGWLFnSputWr17NsmXL8Pb2ZufOnaxfv57//e9/pKWlMXjwYLZs2cJjjz3W6Jp33nkHlUrV6u2zzz6z+zsLCwu5+uqrSUhI4Nlnn23PwxV21Ce+kf5NP6B89PMprnxpC4dzy7ugZ0KI7m5beiFz/vMjyzedsJvwxgV58fJNI1h173imJYdIwiuEcIh2jfTefvvtjf5brW7bC9LTTz8NwB//+EdGjBjRcH9QUBD//e9/mTRpEi+99BKPPfYYvr62hQnz589n7NixrbYdERHR5D6j0chll11GXV0dmzdvxstLtq9xpIRgb75aOok/rzrQpJhF+tkKrv7vVu65tC+3TYqTRW5CCEoq63h63RE+TT1t93iQt54HZiRy4+godJLoCiEcrNMWsuXk5LBr1y4AFi1a1OT4xIkTiYqKIjs7m3Xr1rFw4UIAfH19GxLgi1FbW8u8efPIzMxky5YthIeHt+ma2tpzX9eXl9tGKk0mk1PmG9e36cy5zM7mqYXnrxvEhL4BPPnVUarqzq2crjNbWfZ9Gm9vzeDW8THcPC4GH3fXWzvpCnEUEkdnKqmq47PdObyxJZPiyqZ/X61axR0TY7lrchxeei1YLe3ehUHi6Bokjq6hs+LY1vY7LQPZs2cPAAEBAcTFxdk9Z9SoUWRnZ7Nnz56GpLc9LBYLN954I7t27WLjxo0kJSW16bpnnnmGxx9/vMn93377LZ6ezqvTvmHDBqe13Vk8gYcGwLtpGk5XNq57X15jZtnGE7z+YzpTw6xMDlNwd8Hpvq4QRyFxdKTTlfBjnprdhSpMisruObHeCjf0NRNuSuOH79Mc9rsljq5B4uganB3HqqqWtzis12lJb0ZGBgDR0dHNnhMVFdXo3Pa67777WL16NU8++SQWi4UdO3Y0HBswYECzi9n+9Kc/8dvf/rbhv8vLy4mKimLWrFlOWQBnMpnYsGEDM2fOdJlKcQvNVv79XRpvbctCuWCqXpVZxVfZGjbkqekX7M2AMB/6h/nQP9SHpFAfvPU9cxTYFePYG0kcL05hRS0f7zrNrswSrIqCl16Ll5sWL70GL72WPadKST1V2uz1XnoNj8xMZOHoKNRq+wlxe0gcXYPE0TV0Vhzrv5lvTadlGUajEaDFebXe3rba6G3tfHO++eYbAB577LEmC+M2bdrElClT7F6n1+vR6/VN7tfpdE4NlrPb70w6HTx25SCuHx3Nsu/S+PpgfpNz6sxWDuaWc/CChW59fPSE+3kQ4edOuK8HEf4e9AvxYVx8oEPfFJ3FleLYm0kcW3bgdBlvb81g7f486ixtK1t+oVkDQnhi3iBCfd0d3LtzJI6uQeLoGjojj2qLnjm01orMzMyu7kKvlxxq4OXFIzmcW86y74+z/tCZVq8pMNZSYKxlX3bj+weEGXhl8UiiA503xUQI0bzqOgsbj57lnW0Z7MosaVcbOo2KuYPDuHl8LCOi/R3cQyGEaF2nJb0+Pj4AVFZWNntORUUFgOyl60IGhBt4dckoDuaU8Z/v0vj+6Jkm0x5aczivnCtf2sKyG4cxJSnYOR0VQjRQFIUjeUZ+Sivgx7QCdmWUtHtUN8Sg56ZLYrhxTBTBPs4b2RVCiNZ0WtIbGxsLQHZ2drPn1B+rP1e4jkERvrxx8yhKq+o4nFvO4bzyhp9pZyuwNLM5fb2yahO3vrOLh2clce+UvqhU3X+6gxA9iaIo7D5Vwie7stl0rKBR4ZnmuGnVXD0snORQA5W1ZirrLLaftWZ0GjUTE4OYMyhUth8TQnQLnZb0Dh8+HICioiIyMjLs7uCQkpIC0GgPX+Fa/DzdGJ8QxPiEoIb7akwWMosqyS2tJqekmpzSGnJLq9l9qoTTJdUN5ykK/GP9MfafLuVfC4b12IVvQnQn5TUmVu/JYcXOUxzNN7bpmhCDniVjY1g4JppA76brIIQQojvqtKwhMjKS0aNHs2vXLlasWMGf//znRse3bNlCdnY2er2euXPndla3RDfgrtOQHGogObTxtJaKWjO//2wf6w40Xgy3/tAZ0l/awvKbRjS5RgjRNodyy3h/exZf7M2l2tT6nrgatYqRMf4sHhvDZTJ6K4TogTp1qOzRRx9l/vz5PPvss1x22WUNI7pFRUXce++9APzmN79pVzEK4Xq89VqWLxrBKz+c5B/rj3L+DIgTBZVc+eIW7p2SwH1TE3DTyhuwEG2RmlXCSxvT2HSsoNVzowI8mJzYh8n9+jCub6BUVhRC9GjtSnp3797dkKQCnDhxAoBXX32VtWvXNty/atUqwsLCGv776quvZunSpbzwwguMHTuW6dOn4+Xlxffff09paSkTJkzgySefbO9jcRqpyNa1bp8QTXKIFw+t3E9p9bm/lcmisOz7NL45mMcz8wcyOKJrPixJHF2DK8dRURR2ZpTw3x9Osv1kcYvnRvl7cMOoSOYMDCHmgh1TesLfxpXj2JtIHF1Dd6vIplKUi11LD5s3b2bq1KmtnpeRkWF3UdrKlStZvnw5e/fuxWQy0bdvXxYvXsxDDz2Em5vbxXbH4ZYvX87y5cuxWCwcP36cFStWOLUim2ibohp485iGnKqmi9hUKEwNV5gVYcVdA7LOTQibDCN8kaUhw9j8k0KNwqAAhQkhCv18FXrAtthCCNGgqqqKRYsWUVZW1uIOYO1KenuL8vJyfH19KSwslIps3UStycLyzSd5bUtmszs+aNUqfNy1+LhrMbjrCPR2Y2q/IK4cEobBw/F/Z4mja3C1OJotVpZvPsl/fzhJc5uj+HvqWDI2mgUjIwgxuMZ2Yq4Wx95K4ugaOrMiW1BQUKtJryx/bwOpyNZ96HQ6/jB3AJcPjeCRz/ZzJK9p9T6zVaGkykRJlQmw7f7ww/FCnvnmOJcNCuWG0dGMjQ9w+LZnEkfX4ApxzC6u4sFP9pKaZb+QRLCPnjsnx7Pokmg83VzzbcAV4igkjq5CKrIJ0QGDInz58jcTePWHE7zwfXqbNs6vNVtZvTeX1XtziQn0ZEJCENV1FsqrTZTXmCivNlNrtpAcauCG0VFM7tcHjXzPKzqByWKlwFhLSVUdFTVmjDVmKmrNGGtMlNeYKaqoo7Ci9rxbHdV1FhJDvLkkLoBL4gIZHReAr4eONftyeXTVAYw15ia/J8LPg7un9OX6kZG46zRd8EiFEKLrSNIreiydRs1vpiUye2Aof11ziG0nitpc7S2rqIqsolN2j2UWVfHNoXyiAjxYNCaGBaMiZS9S4RAWq8La/blsTS/kTHktZ8prKDDWUlRZ16729p8uY//pMl7/KQOVCmIDvcgobFr1UqtW8dDMftw5OV62GhNC9FqS9IoeLzHEhw9vH0t5jYnSyvpRW9sIWVl1HT8cL2DD4TOYLBc3fT27uJq/f3OUf284zmWDQ7l/WiIJwd5OehTC1R04Xcajqw5wIKfMKe0rCnYT3ugAT15YOJxhUX5O+b1CCNFTSNIrXIbBXWd3H9EbRkdTVFHLqj05fLwrm/SzFRfVbp3Fyhd7c/n20Bk+uH0MI2MCHNVl0QtU1Jp5/tvjvLMto9kFZc4yf3gET8wbiI/sryuEEJL0it4h0FvP7ZPiuW1iHLtPlfLtoXzKa0y2RNlD17DTQ3mNiY9/zuawnQVy1SYLt72bwv/uGU/fPjLiK1q3/lA+f/3yEHllNW06X60CH3cd3nptww4k3not/l5u9PHWE+StJ8jHjaBfptukZJaw42QRe7JLqTOfm9furdfy5NUDmT880imPSwgheiJJekWvolLZSqmOjPFv9pwlY2PYk13KBzuyWLs/r1EyUVpl4ua3fubze8cT7OMaWzyJxgorann6m4NsPHKGhGBvbhwTzbxh4W3a5aCy1szPmcVsSy9kS3qR3d1FABKCvZk/PIJgHz0hBndCDO4E++jx89Rd1K4ikxL7AFBjsrAvu5SUrBJMFivXjYwk0l/2FhdCiPNJ0ivEBVQqFSOi/RkR7c9jlw/gtyv3NirZerqkmlvf3sUnd43DWy9PIVdytFTFk8u3U1hhW1i273QZ+04f4Ol1R7h+ZBRLxsUQF+QF2BLNkwWVpBdUkHbGyM6TxezJLmlx7ribVs3SaQncObmvQ0tnu+s0XBIfyCXxgQ5rUwghXI28Y7eBlCHuvbzdVPxnwWCWvJXC/pxzo3aHcsu5+/0UXls8HKwWQOLYmWrNVrafLGLHyWKCffRcOyIC3w4UHjFZrDz/7XHeOKIBmu6kYKwx89bWDN7amsGQSAMllSZOl1a3ebcQgPF9A3jiygG20r6KBZPJ0u7+iubJ66prkDi6BpcoQ+zqpAyxuJDRBP85oKGwtvFXz6P7WLmpr7VLyx4rClSaoarhpqLKDNUW8HODZD8FXTsHFessoFN3j7LOtRY4UqpiX5GKQ6Uqai3nOqXXKFwaqjAlzIrXRea+RTXwbpqGrArnPEiDTmFejJWRQUq3+DsKIYSrkTLEDiBliMX5soqqWPD6ToorG3+ivCTWj37aIh68fioGz8bzfDMKK/lyXx5fHcjndGk1EX4ejI71Z3SMP2Pi/Inw82g4t9ZsJbe0mlPFVeSV1eLnqWN4lK/d8rBmi5WdmSV8fTCfbw+f/aX6nH0Gdy1XDQ3juhERDAjzaTJntMZk4fiZCk4UVHKquIpTxdVkFVdxqriKkioTvh5arh0ewV2T4wjwcmvPn65dFEUhvaCS7SeL2XaiiC3pRdSaWy5C4uWmYcnYaG4dH9NqX/PKali1J5fXt2RSUdu0kMOkhEDUKhU/phde1IiuVq1iWJQv4+IDGBcfyNBIX4dOZRAtk9dV1yBxdA1ShrgHkjLEAiAh1Je3bhnDwtd2UH3eV9M7M0vZiYbPn9/K5YPDuGpoBGlnjazek8O+0433ZM0sqiKzqIpPU3MAW4WsCH8PckqqyS2z/3V5hJ8Ho2L9GRXjT7ifBxuPnuWbg/ltLmhQXmPmg53ZfLAzm/5hBq4dEYHJonAkr5zDeeWcLKhocSutsmozb23LYmVqDndOtu2A4WVnLnNpVR1l1SaiAzzbXeK5wFjLpqNn2XqikG0niigw1l7U9ZV1Fl75MYP3dpxi1oAQBob7MiDcQP8wAwFeblTXWVh/KJ/PUk+z9YT9ZFanUfHHy/rz6wmxqFQqsooq+WBHFitTTlNW3fTDRYSfB/F9vOgfZmBcfCBj4gLs/n1E55LXVdcgcXQN3aUMsYz0tqB+pLe1Tw7tZTKZWLduHXPnzpUndQ/y/ZEz3PFeSqfvudpdBHq58ZtpCcQFeXEwp4yDOeUczC3jdEk1AEMjfVl243Bif1nw1RblNSb+u+kEb23NaLRbRktUKkgK8eHYGWObRmJDDe5U1pox2hnVrdfHXeH1W8cxLKbpgrAak4UNh8+QXVJFmK87CX18iO/jJQluNyOvq65B4ugaOiuObc3X5NVaiIs0vX8ILy0awZ8+P2B35K8ruevU+Hm44euhQ6tRcSjX/pZZHVFUWcfjaw43e3zf6TKufGkL/7x+KLMHhrbYlsli5cMdWbywMZ3iNoxca9QqxsUHMmdQKLMGhBBscCf9rJEXN6azZl9uix9E8stb3it3/rAwxrplMzDc/gumu07DlUPDW+2jEEKI7kmSXiHaYe7gMKYmBfPt4Xw+Tclma3ohCva/0g/yduPKoeFMSQom/WwFP2cU8XNGcbPzcP09dYT7eXCquApjTfOjkgBDIn25fHAYswaGEu7njl6raXQ8u7iKz1JP81nqaXJKq5ttR6WC2EAv4oK8iA7wJCbQdvP3dOO97Vms3ptzUfNajTVm7no/lbsujeeRWUloNY3ntCqKwvpDZ/j7N0ftls49X7ivO+MTgpiQEMjUpGD8PBvP1U0I9mHZjcNZOj2R5RvTWb03p82j8D56LVcMDWfBqEgGhXmzbl122x+kEEKIHkWSXiHaycNNw7xhEcwdGMyKVeuoCOrP6r15pJ2twEOnYc6gUOYNC2diQlBD0ndpvz7cNjEOq1XhREEFuzJLqKw1E+nvQVSAJ9GBng2llK1WheNnjaRklrA7q4SUrBLOGmvo28eby4eEcfngMGICW55CEBXgyUMz+/HA9ES2nShiZUo2h3LLMHjo6B9mYECYgQHhBpJDfZotvjA82p87J8fzz/XH+P7o2Yv6G736w0n2nirl3zcM46yxlpTMYnZlFpOSWdLsnGStWsXMASFMTAxiQt8gYgLbNke4bx9vnr9hGA/N7MemY2dtc5Zzyzmab2y0AE6lshV1uHZEBLMHhuKus31QkK2RhBDCtUnSK4QD+Olh0aQ47p2aSIGxFl9PXZNR1/Op1SoSQ3xIDPFp8ZzkUAPJoQYWj43pUP/UahUTE4OYmBjUruv7hxl485bRpGQW84/1x9iZUYyHTsOAcAODI3wZ+MtisTd+OsnqvbmNrt2ZUcz4Zze26ffMHhjCH+YkE9+BMs9RAZ78alxsw3+bLVYyCisbSkuPiQsgzNejmauFEEK4Kkl6hXAglUpFsJ0txlzFqNgAPrlrHBW1Zjx0GjTqxiOw/75hGCNjA3hizaEWK5NdaGiUH3+e258xcQGO7jJajbrVDxhCCCFcnyS9QoiL1lz5ZZVKxZKxMQyO8OW+D3e3OI8YID7Ii4dm9uOKIWHt3uZMCCGEaAtJeoUQDjcsyo8190/kwU/28uPxgob7E4K9GR3rz6iYAEbHBhAV4CHJrhBCiE4hSW8bmEwmpyxykdrirkHiaJ+Pm4o3Fg9j96lSquosDAw3NKmSZja3vDtFZ5I4ugaJo2uQOLqGzopjW9uX4hR2LF++nOXLl2OxWDh+/DgrVqzA09Ozq7slhBBCCCEuUFVVxaJFi1otTiFJbwvqK3wUFhY6rSKb1Bbv+SSOrkHi6Bokjq5B4ugaOiuO5eXlBAUFSUU2R+iMmtHypO75JI6uQeLoGiSOrkHi6Bo6I49qC3XrpwghhBBCCNGzSdIrhBBCCCFcniS9QgghhBDC5UnSK4QQQgghXJ4kvUIIIYQQwuVJ0iuEEEIIIVyeJL1CCCGEEMLlSdIrhBBCCCFcniS9QgghhBDC5UnSK4QQQgghXJ6UIW4Dk8mEyWRySrvn/xQ9k8TRNUgcXYPE0TVIHF1DZ8Wxre2rFEVRnNqTHmj58uUsX74ci8XC8ePHWbFiBZ6enl3dLSGEEEIIcYGqqioWLVpEWVkZBoOh2fMk6W1BeXk5vr6+FBYWtvhHbC+TycSGDRuYOXMmOp3O4e2LziFxdA0SR9cgcXQNEkfX0FlxLC8vJygoqNWkV6Y3tIFOp3NqsJzdvugcEkfXIHF0DRJH1yBxdA2dkUe1hSxkE0IIIYQQLk+SXiGEEEII4fIk6RVCCCGEEC5Pkl4hhBBCCOHyJOkVQgghhBAuT5JeIYQQQgjh8iTpFUIIIYQQLk/26W1Bfd2O8vJyp7RvMpmoqqqivLxc9iHswSSOrkHi6Bokjq5B4ugaOiuO9Xlaa/XWJOltgdFoBCAqKqqLeyKEEEIIIVpiNBrx9fVt9riUIW6B1WolNzcXHx8fVCqVw9svLy8nKiqK7Oxsp5Q5Fp1D4ugaJI6uQeLoGiSOrqGz4qgoCkajkfDwcNTq5mfuykhvC9RqNZGRkU7/PQaDQZ7ULkDi6Bokjq5B4ugaJI6uoTPi2NIIbz1ZyCaEEEIIIVyeJL1CCCGEEMLlSdLbhfR6PX/5y1/Q6/Vd3RXRARJH1yBxdA0SR9cgcXQN3S2OspBNCCGEEEK4PBnpFUIIIYQQLk+SXiGEEEII4fIk6RVCCCGEEC5Pkl4hhBBCCOHyJOl1oE8//ZQpU6bg7++Pl5cXQ4cO5bnnnsNkMrWrvdTUVK6//npCQkJwd3cnLi6O+++/n7Nnzzq45+J8jorjnj17eOaZZ5g+fTohISHodDr8/f2ZNGkSy5cvb/f/F6JtHP18PN+6detQqVSoVCpmzJjhgN6K5jgjjl988QVXXXUVoaGhuLm5ERwczPjx43niiScc2HNxPkfGsbKykmeeeYZRo0ZhMBjQ6XSEhoZyxRVX8OWXXzqh9+LYsWO8+OKL3HLLLQwePBitVotKpeKpp57qULvfffcdc+fOJSgoCA8PD5KTk/nzn/9MRUWFg3p+AUU4xAMPPKAAilarVWbNmqVcc801ip+fnwIoEydOVKqqqi6qvU8//VTRarUKoIwePVpZsGCBEh8frwBKSEiIkpaW5qRH0rs5Ko4mk0kBFEDx9vZWpk6dqtx4443KxIkTFY1GowDKmDFjlJKSEuc+oF7K0c/H8xUXFyvh4eGKSqVSAGX69OkO7Lk4n6PjWFtbq1x//fUKoHh4eCjTpk1TFi5cqEydOlUJDg5WAgMDnfRIejdHxrGwsFAZMGBAw2vrrFmzlAULFigjRoxoeM1dunSpEx9N71QfwwtvTz75ZLvbfP755xVAUalUyuTJk5Xrr79eCQ0NVQAlKSlJKSgocOAjsJGk1wFWrVrV8ARMTU1tuL+goEAZPHiwAii/+93v2txeTk6O4unpqQDKq6++2nC/2WxWFi9e3JAIW61Whz6O3s6RcTSZTMrIkSOVlStXKjU1NY2O7d+/XwkLC1MA5dZbb3XoYxCOfz5e6KabblI0Go1yzz33SNLrRM6I469+9SsFUK6++uomb6gWi0XZvn27Q/ouznF0HJcuXaoAysiRI5WioqJGx7766quGwSKJpWO9/vrrysMPP6x8+OGHypEjR5QlS5Z0KOndvXu3olKpFI1Go6xbt67h/srKSmX69OkKoFx77bWO6n4DSXodYPTo0QqgPPXUU02O/fTTTwqg6PV6pbS0tE3tPfLIIwqgzJgxo8kxo9Go+Pr6KoDyzTffdLjv4hxHx7El77//fsNoU11dXYfbE+c4M46ff/65AiiPPPKI8vbbb0vS60SOjuN3332nAMqgQYPkOdeJHB3HQYMGKYCycuVKu8dnzpypAMrzzz/foX6Llt18880dSnrrv3G5/fbbmxzLzMxU1Gq1AihHjhzpaFcbkTm9HZSTk8OuXbsAWLRoUZPjEydOJCoqitraWtatW9emNletWtVse97e3lx11VUAfP755+3ttriAM+LYkuHDhwNQXV1NYWFhh9sTNs6MY2FhIXfffTdJSUky99PJnBHHF198EYAHH3wQnU7nuM6KZjkjju7u7m06LygoqO0dFZ2qrq6Or776CrD//0VMTAwTJkwAzuVDjiJJbwft2bMHgICAAOLi4uyeM2rUqEbntsRoNJKent7ouo60J9rG0XFsTVpaGgBubm4EBAR0uD1h48w43nPPPRQWFvLmm2+2+Y1XtI+j42ixWPj+++8BmDx5Mvn5+fznP//hnnvu4cEHH+Tdd9913sKZXswZz8fLLrsMgL///e8UFxc3OrZu3To2bdpEaGhow+CQ6H6OHz9OVVUV0Pl5jtahrfVCGRkZAERHRzd7TlRUVKNzW5KZmdnw7+bavJj2RNs4Oo4tURSF5557DoArrrii29QkdwXOiuPHH3/MZ599xgMPPNAwAiGcx9FxPHnyZENSu2PHDu69994mSe4jjzzCxx9/zLRp09rbbXEBZzwf//CHP/Dzzz+zfv36hhFBPz8/0tPTSU1NZcKECbz55pv4+vp2/AEIp6iPtZ+fHz4+PnbPcVaeIyO9HWQ0GgHw8vJq9hxvb28AysvL29xeS21eTHuibRwdx5Y8/vjjbN++HW9vb5599tkOtSUac0Yc8/Pzue++++jbty9PP/10xzspWuXoOBYVFTX8+7bbbmPkyJHs2rULo9HI3r17mTt3LgUFBcybN6/hWxjRcc54Pnp5ebFmzRoefvhhKisrWb9+PZ988gmpqakEBgYyY8YMIiIiOt554TSd+X57IUl6hehE7733Hk888QRqtZq33nqLxMTEru6SaMWdd95JSUkJb7zxBp6enl3dHdEOiqI0/DsiIoL169czatQovL29GTp0KF9++SWDBg2ioqJCPoh2c3l5eUyYMIEXX3yRp556qmEU/+eff2bkyJE8/vjjTJw4sdEAkhD1JOntoPqh+crKymbPqf8azWAwtLm9ltq8mPZE2zg6jvZ8+umn/PrXvwbg9ddf5/rrr29XO6J5jo7ju+++y5o1a7j77ruZMmWKQ/ooWufM19VbbrmlyZQijUbDXXfdBdg2yxeO4YzX1Ztvvpldu3bx5JNP8uijjxIXF4eXlxejR49m7dq1DB48mH379vHPf/6z4w9AOEVnvN82R+b0dlBsbCwA2dnZzZ5Tf6z+3JbExMQ0/PvUqVMMHjy4Q+2JtnF0HC/0+eefs2jRIqxWK6+++mpD8iscy9FxrF85vGvXriZJb35+PmCrnFh/7OOPPyY0NPTiOi2acHQcY2NjUalUKIpCfHy83XPq78/Ly7u4zopmOTqOOTk5bNiwAYCFCxc2Oa7T6bjuuus4cOAA3333HY8//vjFd1o4XX2sS0tLMRqNduf1OivPkZHeDqrfeqqoqKjZCdcpKSkAjBgxotX2DAYDCQkJja7rSHuibRwdx/OtXr2aG2+8EYvFwssvv8wdd9zRsc6KZjkrjikpKfzwww+NbseOHQNsL9z199XU1HTwEQhwfBy9vb1JSkoCaHaLwPr76+cSio5zdBxPnTrV8O/mRgDrF7BduLOD6D6SkpIapop1dp4jSW8HRUZGMnr0aABWrFjR5PiWLVvIzs5Gr9czd+7cNrU5f/78ZturqKhgzZo1AFxzzTXt7ba4gDPiCLBmzRoWLFiA2Wzm5ZdfbvgKVTiHo+O4evVqFFsRnya3t99+G4Dp06c33CffvjiGM56P9dOJmpu+UD+COGbMmPZ0Wdjh6Diev0Bt586dds/ZsWMHQLNbpImu5+bmxuWXXw7Y//8iKyuLbdu2AefyIYdxaKmLXqq5MouFhYXNlln8/PPPlaSkJGXatGlN2ju/DPFrr73WcL/ZbG4o/SdliB3P0XH86quvFDc3N0WlUjUqJy2cy9FxbI5UZHMuR8exoKBA8ff3VwDllVdeaXTso48+UlQqlQIoX331lXMeUC/l6DjWV3jr37+/kpGR0ejY+++/3xDH999/3ymPR9i0pSLbiy++qCQlJSlLlixpciw1NbWhDPHXX3/dcL+UIe4h6uuB63Q6Zc6cOcq1116r+Pn5KYAyYcIEpaqqqtH59W+YMTExdttbuXKlotFoFEC55JJLlBtuuEGJj49XACUkJERJS0vrhEfV+zgqjmfOnFH0er0CKJGRkcrNN9/c7K2goKATH2Hv4Ojnoz2S9Dqfo+P47bffKu7u7gqgDBw4ULnuuuuU4cOHK4ACKI899lgnPKrex5FxPHDggBIUFKQAiru7uzJlyhTluuuuUwYOHNgQx8WLF8ugkIOlpqYql1xyScOtPgaRkZGN7s/NzW245i9/+YsCKJdeeqndNp9//nkFUFQqlTJlyhRlwYIFSlhYmAIoSUlJTnlvlKTXgT755BNl8uTJisFgUDw8PJRBgwYpzz77rFJbW9vk3La8yaakpCjXXHON0qdPH8XNzU2JiYlR7rvvPiU/P9+Jj0I4Io4ZGRkNL8Ct3S4crRCO4ejnY3PXSNLrXI6O47Fjx5Sbb75ZiYiIUHQ6nRIYGKjMnTtXWb9+vRMfhXBkHPPz85U//OEPypAhQxQvLy9Fq9Uqffr0UWbPnq188sknTn4kvdOmTZsu+v2staRXURRlw4YNypw5c5SAgABFr9criYmJyp/+9CelvLzcKY9DpSjnbWAohBBCCCGEC5KFbEIIIYQQwuVJ0iuEEEIIIVyeJL1CCCGEEMLlSdIrhBBCCCFcniS9QgghhBDC5UnSK4QQQgghXJ4kvUIIIYQQwuVJ0iuEEEIIIVyeJL1CCCGEEMLlSdIrhBBCCCFcniS9QgghhBDC5UnSK4QQQgghXN7/B2a9itgysLLhAAAAAElFTkSuQmCC;" vertex="1" parent="1">
          <mxGeometry x="480" y="147" width="541.1" height="513" as="geometry" />
        </mxCell>
        <mxCell id="NF88TdcVxK6JHxtNJrKi-3" value="" style="shape=image;imageAspect=0;aspect=fixed;verticalLabelPosition=bottom;verticalAlign=top;image=data:image/png,iVBORw0KGgoAAAANSUhEUgAAAXAAAAKZCAYAAAChunDoAAAAOXRFWHRTb2Z0d2FyZQBNYXRwbG90bGliIHZlcnNpb24zLjcuMiwgaHR0cHM6Ly9tYXRwbG90bGliLm9yZy8pXeV/AAAACXBIWXMAAA9hAAAPYQGoP6dpAABAz0lEQVR4nO3deXhU9dn/8c8kmUz2BAiEJQm77KKsIqAoixIVqrSPLWLFpWj7+FiXto8LKqBPsau/2lqXFheK1rpUUHEhoLLJKouyrwkhrAlkJ5NJMr8/LFR6zgQCmXPmzLxf1+V1mfs7IXdmkg+Huc85X5ff7/cLAOA4UXY3AAA4NwQ4ADgUAQ4ADkWAA4BDEeAA4FAEOAA4FAEOAA4VY3cD56O+vl4HDhxQcnKyXC6X3e0AwHnz+/0qLy9X27ZtFRXV8DG2owP8wIEDysrKsrsNAGhyBQUFyszMbPAxjg7w5ORkSd98oykpKTZ3Exl8Pp8WLFigMWPGyO12290OgozX23plZWXKyso6lW8NcXSAn3zbJCUlhQC3iM/nU0JCglJSUviFjgC83vY5m7eFGWICgEMR4ADgUAQ4ADgUAQ4ADkWAA4BDEeAA4FAEOAA4FAEOAA5FgAOAQxHgAOBQBDgAOBQBDgAORYADgEMR4ADgUAQ4ADgUAQ4ADkWAA4BDEeAA4FAEOAA4FAEOAA5FgAOAQxHgAOBQBDgAOBQBDgAORYADgEMR4ADgUAQ4ADgUAQ4ADkWAA4BDEeAA4FAEOAA4FAEOAA5FgAOAQxHgAOBQBDgAOBQBDgAORYADgEMR4ADgUAQ4ADgUAQ4ADkWAA4BDNTrAt2/frj/+8Y+aPHmy+vTpo5iYGLlcLj355JNn/NyFCxcqJydH6enpio+PV/fu3fXII4+ooqLinJoHgEgW09hPeO655/SHP/yh0V/o6aef1v333y+Xy6Xhw4crIyNDS5cu1S9/+Uu98847WrZsmdLT0xv95wJApGr0EXjv3r31s5/9TK+99pq2bt2qm2+++Yyfs379ej3wwAOKjo7W/PnztXjxYr355pvavXu3Ro4cqe3bt+uuu+46p28AACJVo4/A77jjjtM+joo6898BM2fOlN/v16233qqxY8eeqickJGjWrFnq1KmT3nnnHW3btk3du3dvbEsAEJGCPsSsqanR/PnzJUkTJ040rLdv315Dhw6VJL377rvBbgcAwkbQA3zHjh2qqqqSJA0YMMD0MSfr69evD3Y7ABA2gh7ge/fulSSlpaUpOTnZ9DFZWVmnPRYAcGaNfg+8scrLyyVJiYmJAR+TlJQkSSorK2vwz/J6vfJ6vac+Pvl4n88nn893vq3iLJx8nnm+IwOvt/Ua81wHPcCb0syZMzV9+nRDfcGCBUpISLCho8iVm5trdwuwEK+3dU6+5Xw2gh7gJ982qaysDPiYkxfypKSkNPhnPfTQQ7r//vtPfVxWVqasrCyNGTPmjJ+LpuHz+ZSbm6vRo0fL7Xbb3Q6CjNfbemd6J+Lbgh7gHTp0kCSVlJSovLzc9H3wgoKC0x4biMfjkcfjMdTdbjc/XBbjOY8svN7WaczzHPQhZrdu3U69vbF27VrTx5ys9+vXL9jtAEDYCHqAx8bG6pprrpEkvf7664b1/Px8ffHFF5Kk66+/PtjtAEDYsORuhA8++KBcLpdefvllffzxx6fqVVVVuv3221VXV6cJEyZwFSYANEKj3wNft26dfvKTn5z6ePfu3ZKkF154QR988MGp+rvvvqs2bdpI+uatkd/97ne6//77lZOTo8svv1ytWrXS0qVLdfDgQXXr1k3PP//8+X4vABBRGh3gZWVlWrVqlaG+f/9+7d+//9TH3z5fW5Luu+8+9enTR7/73e+0evVqVVZWKjs7Ww899JAeeuihgBf5AADMNTrAR4wYIb/ff05fbNSoURo1atQ5fS4A4HTsyAMADkWAA4BDEeAA4FAEOAA4FAEOAA5FgAOAQxHgAOBQBDgAOBQBDgAORYADgEMR4ADgUAQ4ADgUAQ4ADkWAA4BDEeAA4FAEOAA4FAEOAP+yZMdRbSostbuNs9boHXkAIBzV1/v16LxNyi+uUt+sNN00OFvXXdhW8bHRdrcWEEfgACBp+e4i5RdXSZI2FpToF29/pUG/XKg5K/Nt7iwwAhwAJL22cp+hVl5dq/SkWBu6OTsEOICId7isWrlbDxvqrZI9Gtkjw4aOzg4BDiDivbmmQHX1fkP9xoFZckeHbkyGbmcAYIG6er/+vtr49kmUS/r+oGwbOjp7BDiAiLZ4xxEdKK021K/o1krt0uJt6OjsEeAAIprZ8FKSJg4O7aNviQAHEMEKS07os+1HDPW2qXEa0a2VDR01DgEOIGL9Y/U+mcwu9YNB2YqOclnfUCMR4AAikq+uXm+sKTDUo6Nc+q+BWTZ01HgEOICItGjrYR0p9xrqo3tkKCMlzoaOGo8ABxCRXltlPry86ZLQH16eRIADiDh5RZVaurPIUG/fIkFDO6fb0NG5IcABRByzC3ckaeKgbEU5YHh5EgEOIKJU++r05lrj8DI2Okrf7Z9pQ0fnjgAHEFE+3nRIx6t8hvrVvVurRZLHho7OHQEOIKK8tsr8/t6TLmlvcSfnjwAHEDG2HyrXmrzjhnrXVkka2KGZDR2dHwIcQMQIdPR90+BsuVzOGV6eRIADiAhVNbV6d12hoR7vjtYNDhtenkSAA4gI7204oHJvraE+rm9bpcS5bejo/BHgAMKe3+/XnEBvnzjoysv/RIADCHtf7S/VpsIyQ/3CzFRdmJlmfUNNhAAHEPbmrAw8vHQyAhxAWCut8un9rw4Y6slxMbqub1sbOmo6BDiAsPbOuv2q9tUb6hP6ZSohNsaGjpoOAQ4gbPn9/gbP/XY6AhxA2Fq555h2H6001Ad1bK6uGck2dNS0CHAAYSvQqYNOvO+JGQIcQFg6Ul6tTzYdMtTTk2J1da/WNnTU9AhwAGHpzTUFqjXZcv6/BmQpNiY8oi88vgsA+Ja6er/+vtq4aYPLJf1gkPOHlycR4ADCzmfbjqiw5IShPuKClspqnmBDR8FBgAMIO+E+vDyJAAcQVgqOVWnxjqOGeru0eI3o1sqGjoKHAAcQVl5btU9+4+xSEwdnK9pBO86fDQIcQNjw1prvOO+Odum/BmTZ0FFwEeAAwsZHXx/SscoaQ/3q3m3UMtlZO86fDQIcQNgIdNvYSWFw3xMzBDiAsLD1YJnW5pvvOD+oY3MbOgo+AhxAWAh49H1Je0fuOH82CHAAjlde7dPc9cYd5xNio3V9v3Y2dGQNAhyA481dX6jKmjpDffxF7Ry74/zZIMABOJrf79eclftM1yY5eMf5s0GAA3C0NXnHtf1wuaHeLztNvdqm2tCRdQhwAI72twaGl+GOAAfgWEfLvfp400FDvVmCWzl92tjQkbUIcACO9ebaAvnqTDZtGJilOHe0DR1ZiwAH4Eh19X69ZvL2icsl3TQo/N8+kQhwAA716bYjOlBabaiPuKClsluEz6YNDSHAAThSoOHlzUMi4+hbIsABOFBeUaWWBNi04fILwmvThoYQ4AAc57UAW6bddEn4bdrQEAIcgKNU++r05tr9hnpsdFRYbtrQEAIcgKO8v/GASk/4DPWcPq2VnhR+mzY0hAAH4CiBbhsbScPLkwhwAI6xsaBEG/eXGuo92qSoX3YzGzqyFwEOwDECnjoYxps2NIQAB+AIxytr9P7GA4Z6sidG37m4rQ0d2Y8AB+AIb31ZIG9tvaE+oX+mEmJjbOjIfgQ4gJBXX9/Qpg2RN7w8iQAHEPIW7zyqfceqDPWhXVqoS6skGzoKDQQ4gJA3Z0Xg4WUkI8ABhLSCY1X6dPsRQ711SpxG9ciwoaPQQYADCGlzVuXLb9yzQRMHZysmOrIjLLK/ewAhrdpXpzfXFBjq7miXvj8osu57YoYABxCy5n91UMerjPc9ubp3G7VKjrOho9BCgAMIWbMbuPISNgR4QUGB7r77bnXu3Fkej0fp6em66qqrNH/+fKtbARDCvtpfoo0FJYZ699bJGtgh8u57YsbSAF+zZo0uuugiPfvsszpx4oTGjh2rHj166LPPPtO1116rxx9/3Mp2AISw2YFOHRwSmfc9MWNZgFdXV2vChAk6duyYbrzxRu3evVtz587V0qVLtXz5crVo0UIzZsxQbm6uVS0BCFEN3vfkonY2dBSaLAvwd999VwUFBUpLS9Pzzz+v+Pj4U2sDBw7UY489JkmaMWOGVS0BCFFvrg1835NET2Te98SMZQG+Zs0aSVL//v2VlpZmWB81apQkafny5Tp06JBVbQEIMXX1fs0JsOdlJG7a0BDLAryiokKS1KJFC9P19PR0SZLf79e6deusagtAiFm844gKjp0w1Id1SVfnlpF73xMzlv1bpFWrVpKkPXv2mK5/u753717Tx3i9Xnm93lMfl5WVSZJ8Pp98PuO5omh6J59nnu/IYMfr/eryPNP6xIGZEfFz15jv0bIAv/LKK/V///d/+vLLL7V+/XpdfPHFp60///zzp/7/ZDD/p5kzZ2r69OmG+oIFC5SQkNC0DaNBDJsji1Wv99ET0uKdxlhKi/Wreu9afZhnSRu2qqoy3nUxEJffb3aXgeC4/PLLtWTJEmVmZurPf/6zLrvsMhUXF+vPf/6zfv/73ysmJkY+n09PPfWU/vd//9fw+WZH4FlZWSoqKlJKSopV30ZE8/l8ys3N1ejRo+V2u+1uB0Fm9es986PteukL4/vfD4zqorsu7xT0rx8KysrKlJ6ertLS0jPmmqXj3Lfeeks33HCDli9frnHjxp22du+992rZsmVau3atmjdvbvr5Ho9HHo/HUHe73YSJxXjOI4sVr/eJmjq9va7QUI+NjtLESzpEzM9bY75PSwO8VatWWrp0qRYuXKhPP/1UxcXFysjI0Pjx4zVgwAC1bfvNvnZ9+vSxsi0AIWDehkKVVdca6tde2EYtkowHbrA4wCXJ5XJp9OjRGj169Gn13bt36+DBg2rRooX69etndVsAbOT3+/VqA1dewlzI3Mzqt7/9rSRpypQpio2NtbkbAFb6Mv+4th40nrzQp12qLspKs74hh7A0wLds2WI4w6S2tla//OUv9cILL6hLly565JFHrGwJQAho6Oib+54EZulbKC+++KJeeOEF9e/fX+3atZPX69XKlSt1+PBhdenSRbm5uUpMTLSyJQA2O1JWrY++PmiopyW4Na5vWxs6cg5LAzwnJ0d5eXlat26d1q5dK4/Ho27duumBBx7Q3Xfffdr9UQBEhr+vLlBtvfFs5hsHZinOHW1DR85haYCPGTNGY8aMsfJLAghhvrp6vWZy3xOXS5o0mOHlmYTMEBNA5Plk8yEdKfca6iO7t1JWc66uPhMCHIBtZptcdSlJPxzSwdpGHIoAB2CLLQfKtDrvmKHeMT1Rw7qk29CR8xDgAGwxe0Weaf2HQ9orKopTB88GAQ7AciVVNZq7wXjfk4TYaE3on2lDR85EgAOw3Ftr96vaZ7JlWr9MpcRFxk2rmgIBDsBSdfV+/W1loOElpw42BgEOwFKfbz+ifceMmxZc2rmFumYk29CRcxHgACwV6L4nHH03HgEOwDK7j1ZoyY6jhnrb1DiN6pFhQ0fORoADsMzfAhx9TxrSXjHRxFFj8YwBsESFt1Zvf7nfUI+NidL3B2bb0JHzEeAALPHuuv2q8Bq3TBvXt62aJ7KJy7kgwAEEXUNbpt3CfU/OGQEOIOiW7yrWriMVhvrF2Wnqk5lqQ0fhgQAHEHSvfJFnWp98aQdL+wg3BDiAoCo4VqVF2w4b6i2TPRrbu40NHYUPAhxAUM1ZmS+/ccc0TRyUrdgYIuh88OwBCJoTNXV6Y02BoR4T5dJNgzl18HwR4ACCZt6GQpWe8BnqOX3aqFVKnA0dhRcCHEBQ+P3+gMPLWxheNgkCHEBQrNp7TNsOlRvqfdqlql92mvUNhSECHEBQvNrA0bfLxZZpTYEAB9DkCktO6JPNhwz15omxuvZCTh1sKgQ4gCY3Z2W+6gOcOhjnjra+oTBFgANoUtW+Ov199T5DPTrKpZsu4dTBpkSAA2hS7204oJIq46mDV/dqrTap8TZ0FL4IcABNxu/36+VA9z0Z2sHSXiIBAQ6gyazJO66tB8sM9V5tUzSgfTMbOgpvBDiAJvPKF3tN65w6GBwEOIAm8c2pg8a7DjZPjNW4vm1t6Cj8EeAAmsSclfmqMzl38PsDszh1MEgIcADnraFTB28e0t6GjiIDAQ7gvM3bUGh+6mBvTh0MJgIcwHnx+/16eXme6dqt3HUwqAhwAOdl5R7zuw72bpei/pw6GFQEOIDzEujUwcmXduTUwSAjwAGcs4JjVcrdYn7qIHcdDD4CHMA5+1uAuw7eNJi7DlqBAAdwTqpqavWGyamDMVEuTbqEUwetQIADOCf/XFeosupaQz2nTxtlsGGxJQhwAI3W0IbF3HXQOgQ4gEZbtqtIu45UGOp9s9LUL5tTB61CgANoNC7cCQ0EOIBG2VtUqU+3HTHUWyV7lNOHUwetRIADaJRXA7z3PemS9oqNIVKsxLMN4KyVV/v09pf7DfXY6ChNHMyGxVYjwAGctbfW7leF13jq4LiL2io9yWNDR5GNAAdwVurq/Xp1RZ7p2mSGl7YgwAGclU+3HVF+cZWhPqhjc/Vul2pDRyDAAZyVl5eb33XwNi7csQ0BDuCMth8q1xe7iw31dmnxGt2ztQ0dQSLAAZyFV1cab1olSbdc2l7RUdzz2y4EOIAGVfikeRsPGurx7mjdOIBTB+1EgANo0BeHXaqprTfUJ/Rvp9QEtw0d4SQCHEBANbX1WnrIPCZuHdrR4m7wnwhwAAF9vPmwynzG97hHdGupzi2TbOgI30aAAzDl9/v1yop807XbOPoOCQQ4AFPr9h3X14VlhnqXVkka3jXdho7wnwhwAKZeWpZnWr9taEe5XJw6GAoIcAAG+49X6aNNxlMHU+Pduv7idjZ0BDMEOACD2SvyVe831icOzlZ8bLT1DcEUAQ7gNJXeWv19tfHKy5gol344pL0NHSEQAhzAad5Zt1/l1cZ7fuf0aaM2qfE2dIRACHAAp9TX+wNuWHzbME4dDDUEOIBTPtt+RHuLKg31i7NSdVFWmvUNoUEEOIBTXgpwz+9beO87JBHgACRJWw+Wafku4z2/02L9uqpnKxs6wpkQ4AAkBd5x57LW9YqJJipCEa8KABVVeDV3wwFDPSE2WkMyTE4IR0ggwAFozsp803t+33BxWyXE2NAQzgoBDkS4al+d5qw03nXQ5ZJ+eAk77oQyAhyIcO9tPKCiihpDfWT3VuqYnmhDRzhbBDgQwfx+v15aZj685MKd0EeAAxFs+a5ibTtUbqh3b52sIZ1a2NARGoMAByLYrGV7TOu3D+Oe305AgAMRateRCn22/aihnp7k0biL2trQERqLAAciVKDL5m++pL08Mdzz2wkIcCACHaus0T/X7TfUY2OiNIlTBx2DAAci0Our8lXtM164M6FfO7VI8tjQEc4FAQ5EmJraes1eYbxwR/pmw2I4BwEORJj3Nx7QkXKvoX75BS3VNSPZho5wrghwIIL4/X79NcCFO7dz4Y7jEOBABFmxu1hbD5YZ6t0ykjW8a7oNHeF8EOBABAl49D2cC3eciAAHIsSuIxX6dNsRQz09yaPxXLjjSJYH+L59+3T33XerW7duio+PV1xcnDp27KhbbrlFGzdutLodIGIEunDnh0O4cMepLA3wVatWqXfv3nr22WdVWVmpMWPGKCcnRy6XS7Nnz9aAAQP01ltvWdkSEBGKK7x650vjhTuemCjdNJgLd5zK0gCfMmWKysvLNWXKFO3du1fz5s3TP//5T+3atUtTp05VbW2tpkyZourqaivbAsLea6v2yWu24w4X7jiaZQFeXFysr776SpL05JNPyu12/7uJqChNmzZN8fHxKikp0datW61qCwh71b46zV6RZ7p2+7BO1jaDJmVZgHs8Z/+3fHo6pzMBTeW9DeY77lzZvZW6tEqyoSM0FcsCPCkpScOHD5ckTZ06VT6f79RafX29pk2bphMnTmjs2LHKysqyqi0grH1z4Y75Pb/v4MIdx7N0v+m//OUvysnJ0Ysvvqj58+drwIABio6O1vr161VYWKibb75Zf/rTnwJ+vtfrldf770uAy8q+uSDB5/Od9hcCgufk88zz7QxLdhZpx+EKQ71H62QNyE454+vI6229xjzXlgZ4t27dtGLFCt18881asGCBCgsLT6317NlTI0aMUEpKSsDPnzlzpqZPn26oL1iwQAkJCUHpGeZyc3PtbgFn4dktUTL7h3b/pBJ99NFHZ/3n8Hpbp6qq6qwf6/L7/f4g9nKa5cuX64YbblBMTIx++9vf6sorr1RsbKyWL1+u+++/Xzt37tRtt92mWbNmmX6+2RF4VlaWioqKGgx+NB2fz6fc3FyNHj36tEE0Qs/Wg+Ua9+cVhnpGskef3j9csTFnfgeV19t6ZWVlSk9PV2lp6RlzzbIj8JKSEl1//fUqKirSihUrNHjw4FNr1157rXr27Kk+ffropZde0qRJk3TFFVcY/gyPx2M6DHW73fxwWYznPPS9snKfaX3y0I5KjG/cqYO83tZpzPNs2RBz/vz5Onr0qDp16nRaeJ/07frChQutagsIS4fLqvX+xgOGekJstCYO4sKdcGFZgO/b983RQEP/JEhNTZUkHTt2zJKegHD1yhd58tUZ3x39rwFZSk3gSDpcWBbg7dq1kyRt27ZNpaWlhnWfz6d169ZJkjp25PQm4FxVemv12krjjjtRLu75HW4sC/CxY8cqMTFRJ06c0I9+9CNVVPz71Kaamhrdd9992rdvn9xut7773e9a1RYQdt5cW6Cy6lpD/ererZXVnLO1wollQ8yWLVvq+eef16233qq33npLn3/+uQYOHCi32621a9eqsLBQUVFReuaZZ9SpE5f3Aueitq4+4F0HfzSc36twY+nNrCZNmqS1a9dq8uTJSk5O1qJFi/TRRx8pJiZGN910k1asWKG77rrLypaAsPLJ5sMqOHbCUB/Qvpkuzm5mQ0cIJksv5JGkvn376uWXX7b6ywJhz+/36y9LzS+b/9FlHH2HI3bkAcLE2vzj2lBQYqh3TE/UqB4Z1jeEoCPAgTDx4hLzo+/bhnVUdBT7XYYjAhwIA7uPVmjh1sOGerMEt77bL9OGjmAFAhwIA39duldmdzW6eUgHxcey32W4IsABhyuq8Oqddcb9LmNjovTDIe1t6AhWIcABh5v9RZ5qTPa7nNAvU+nsdxnWCHDAwU7U1Gm2yWXzknTHcC6bD3cEOOBgb31ZoJIq4w4uo3q0UueW7HcZ7ghwwKHq6v3661Lzy+anXNbZ4m5gBwIccKhPNh/SvmPG7bcuykrTwA5cNh8JCHDAgfx+v14IcOHOnZd1ksvFhTuRgAAHHGj13mPaaHLZfPsWCRrTq7X1DcEWBDjgQIEum7+Dy+YjCgEOOMzOw+VatO2Iod4swa3v9s+yoSPYhQAHHCbQ0fctl3LZfKQhwAEHOVxWrbkbCg31OHeUfjikg/UNwVYEOOAgLy83323+e/2z1Dwx1oaOYCcCHHCI8mpfwN3muWw+MhHggEP8ffU+lXuNu82P7d1G7Vsk2tAR7EaAAw5QU1uvWcsCXTbPfpeRigAHHGDehkIdLvMa6kM6tVDfrDTrG0JIIMCBEFdf7w946uCUyzn6jmQEOBDiPtt+RDuPVBjq3TKSNeKCljZ0hFBBgAMh7oXFAY6+uWlVxCPAgRD2Zf5xrc47Zqi3TY3TuIva2tARQgkBDoSwFxbvNq3fNqyj3NH8+kY6fgKAELXrSIVytx421FPj3frBoGwbOkKoIcCBEPXikt3yG6+a182XtFeiJ8b6hhByCHAgBB0qrda76403rYqNidLkoR2sbwghiQAHQtBLy/cGuGlVptKTPDZ0hFBEgAMhpvSET6+v2meoR7m4bB6nI8CBEDNnZb4qTG5aldOHm1bhdAQ4EEKqfXV6ebn5Tavuuryzxd0g1BHgQAh5+8v9KqqoMdSHd01X73apNnSEUEaAAyGitq4+4E2rOPqGGQIcCBEfbTqkfceqDPULM1N1aecWNnSEUEeAAyHA7/fruc/NL5v/8eWduWkVTBHgQAhYsrNIWw6WGeqd0hM1pldrGzqCExDgQAh47vNdpvUpl3VSdBRH3zBHgAM2W7fvuFbuMd4ytlWyR9f3a2dDR3AKAhywWaD3vu8Y3lGemGiLu4GTEOCAjXYcLlfuFuMtY1PiYjRxcHsbOoKTEOCAjZ4PsGHDLZd2UBK3jMUZEOCATfYfr9J7Gw4Y6nHuKE2+tIP1DcFxCHDAJn9Zske19cZbxn5/YLZacMtYnAUCHLBBUYVXb6wpMNRjoly6Y3hHGzqCExHggA1eXr5X3tp6Q33cRW2V2SzBho7gRAQ4YLHyap9mr8g3XfsxN61CIxDggMXmrNyn8mrjhg1X9cpQ14xkGzqCUxHggIWqfXWatcz8lrE/GdHF4m7gdAQ4YKE31xaYbtgwtEsL9c1Ks74hOBoBDljEV1evFxabH33/N0ffOAcEOGCReRsOqLDkhKF+UVaahrBhA84BAQ5YoL7eH/CWsf99RRc2bMA5IcABC3y8+ZB2H6001LtlJGtk91Y2dIRwQIADQeb3+/XsZ+ZH3z8e0VlRbNiAc0SAA0H2+Y6j2nzAuF1advMEXXthGxs6QrggwIEg8vv9evZT86Pvuy7vrJhofgVx7vjpAYJo1d5jWpt/3FDPSPFoQn+2S8P5IcCBIAr03vePhndiuzScNwIcCJKNBSVaurPIUG+W4NbEwdk2dIRwQ4ADQfKnAEfftw/rqIRYtkvD+SPAgSDYdqjMdLPi5LgY/ZDt0tBECHAgCJ79LMBmxUM6KCXObXE3CFcEONDEdh+t0AdfGTcrjndH67ZhbJeGpkOAA03suc93y2/cq1g3Dc5W88RY6xtC2CLAgSZUcKxK764vNNRjY6L0o8s62dARwhkBDjSh5xbvVl298fD7xgFZykiJs6EjhDMCHGgih0qr9fba/YZ6TJRLd17O0TeaHgEONJHnF+9WTV29oX5Dv3bKbJZgQ0cIdwQ40ASOlFfr76v3GepRLjYrRvAQ4EAT+OvSvfLWGo++x/Vtqw7piTZ0hEhAgAPnqbjCq7+tyDfUXS7p7is5+kbwEODAeZq1bK9O+OoM9ZzebdSlVbINHSFSEODAeSipqtFsk6NviaNvBB8BDpyHl5bnqcJba6iP7pmhHm1SbOgIkYQAB85RWbVPLy/fa7p2z5VdLe4GkYgAB87Rq8vzVF5tPPq+snsr9clMtaEjRBoCHDgHFd5azQpw9P0/vPcNixDgwDl49Ys8lVT5DPXhXdN1cXYzGzpCJCLAgUaq9Nbqr0v3mK79dCTvfcM6BDjQSLNX5Ou4ydH3pZ1baECH5jZ0hEhFgAONUOmt1V84+kaIIMCBRpizMl/HKmsM9Us6NdfgTi1s6AiRjAAHzlJVTa1eXGJ+9H0PR9+wgWUBnpeXJ5fLdVb/LVmyxKq2gLM2Z2W+ik2Ovgd1aK4hHH3DBjFWfaGkpCTdcsstAde3bNmiNWvWKDk5Wf3797eqLeCsVNXU6oXFAd77HtVVLpfL4o4ACwM8PT1dr7zySsD1nJwcSdL3v/99JSZy/2SElkBH3wM7NNOlnTn6hj1C4j3wwsJCffLJJ5Kk22+/3eZugNM19N73vaMu4OgbtgmJAH/llVdUX1+vXr16afDgwXa3A5zmpWV7VVTB0TdCT8gEuMTRN0JPcYVXzwd475ujb9jN9gBfvHixdu3apdjYWN188812twOc5o+f7jK93/egDs05+obtLBtiBvLSSy9JksaNG6f09PQGH+v1euX1ek99XFZWJkny+Xzy+YyXNqPpnXyeI+H53nesSq+tMt9t52eju6i21hjs4SaSXu9Q0Zjn2tYALysr09tvvy1Juu222874+JkzZ2r69OmG+oIFC5SQkNDk/SGw3Nxcu1sIur9ui5KvzviP1Aub1+vgpi90cJMNTdkkEl7vUFFVVXXWj3X5/X5/EHtp0Isvvqg777xTmZmZys/PV1RUw+/omB2BZ2VlqaioSCkpbF9lBZ/Pp9zcXI0ePVput9vudoLms+1HNWXOekM9OsqlD+++VJ1aRsaprpHyeoeSsrIypaenq7S09Iy5ZusR+Mm3TyZPnnzG8JYkj8cjj8djqLvdbn64LBbOz3m1r05PfrjddO0Hg7LUrW2atQ2FgHB+vUNNY55n24aYW7Zs0apVq+RyuXTrrbfa1QZg8Nznu7XvmPGfsc0S3HpgdDcbOgLM2Rbgs2bNkiRdccUV6tSpk11tAKfJL67Uc4t3m67979Xd1Swx1uKOgMBsCXCfz6c5c+ZI4txvhA6/36/H39usmtp6w9pFWWn6rwFZNnQFBGZLgH/wwQc6cuSI0tLSdMMNN9jRAmCwYMthfb79qKEe5ZKe/E5vRUVx0Q5Ciy0BfnJ4OXHiRMXFxdnRAnCaqppazXh/i+napEvaq3e7VIs7As7MlrNQ3n//fTu+LBDQs5/tUmHJCUO9RWKsHhjD4BKhyfZL6QG77T5aEfBugw/l9FBqPKfPITQR4Ihofr9fj8/bLF+d8Xq2gR2aaUK/djZ0BZwdAhwR7cOvD2nZriJDPTrKpRnje3O3QYQ0AhwRq8Jbqyc+MB9c3jKkg3q04fYMCG0EOCLWHxft1KGyakO9ZbJH941ml3mEPgIcEWnH4XLNWrbXdG3qNT2UHMfgEqGPAEfE8fv9emzeJtXWGweXl3RqrnF929rQFdB4BDgiznsbD2jlnmOGekyUS08wuISDEOCIKGXVPj05f6vp2m3DOqprRrLFHQHnjgBHRPl/uTt1tNxrqLdOidNPRzK4hLMQ4IgYWw+W6dUVeaZrj17bU4ke27eIBRqFAEdE8Pv9enTuJtWZDC6Hd01XTp/WNnQFnB8CHBHhnXWFWpt/3FB3R7s0bVwvBpdwJAIcYa/0hE8zPzQfXE65rJM6t0yyuCOgaRDgCHu/W7BdxZU1hnq7tHjdfQWDSzgXAY6wtqmwVHNW5puuPXZdT8XHRlvcEdB0CHCErfp6v6bO3SSTuaWu6NZSY3pmWN8U0IQIcIStt74s0IaCEkM9NiaKwSXCAgGOsHS8skZPfbTNdO3Hl3dW+xaJFncEND0CHGHp159s1/Eqn6Ge1TxePx7R2YaOgKZHgCPsbCgo0Rtr9pmuTR/XS3FuBpcIDwQ4wkpd/Te3ivWbDC5H98zQld0ZXCJ8EOAIK6+v3qev9pca6nHuKD12bU8bOgKChwBH2Ciu8Oo3H5sPLu++oouymidY3BEQXAQ4wsZTH21TWXWtod4xPVE/uqyTDR0BwUWAIyyszTumt77cb7o2fVwveWIYXCL8EOBwvNq6ej06b7PpWk6f1rrsgpYWdwRYgwCH4/1tZb62Hiwz1BNio/Uog0uEMQIcjnakvFq/X7DDdO2ekV3VJjXe4o4A6xDgcLSZH25Tudc4uOzSKkm3De1oQ0eAdQhwONbKPcV6d32h6dqM8b0UG8OPN8IbP+FwJF9dvR6bt8l0bVzftrq0c7rFHQHWI8DhSK8sz9OOwxWGepInRo9c08OGjgDrEeBwnEOl1fp/C80Hl/eO6qqMlDiLOwLsQYDDcZ6cv0WVNXWGevfWyZp8aQfrGwJsQoDDUZbvKtIHXx00XZsxvrdiovmRRuTgpx2OUVMbeHB5Q792GtSxucUdAfYiwOEYs5bt1e6jlYZ6clyMHhrL4BKRhwCHIxSWnNAzi3aarv1sTDe1TPZY3BFgPwIcjvDE+1t0wmccXPZqm6JJl7S3oSPAfgQ4Qt7iHUf18eZDpmtPfKe3oqNcFncEhAYCHCGt2lenxwMMLm8ckKV+2c0s7ggIHQQ4QtpfluxRXnGVoZ4a79b/ju1uQ0dA6CDAEbIKjlXpT5/tMl37xdXd1Dwx1uKOgNBCgCNkTX9/i7y19YZ638xUfX9gtg0dAaGFAEdIWrT1sBZuPWyou1wMLoGTCHCEnGpfnaa9b77H5cRB2bowM83ahoAQRYAj5Pz5890qOHbCUG+eGKufX9XNho6A0ESAI6TkFVXq+cW7TdcevLq70hIYXAInEeAIGX6/X4+/t1k1JoPLftlp+m7/TBu6AkIXAY6Q8cnmQ1q846ihHvWvwWUUg0vgNAQ4QkJVTa1mvL/FdO2HQzqoV9tUizsCQh8BjpDwx0936UBptaGenuTRfaMvsKEjIPQR4LDdriMV+uvSPaZrD43trtR4t8UdAc5AgMNW3wwuN8lX5zesDerQXDf0a2dDV4AzEOCw1QdfHdTyXcWGenSUSzO+00suF4NLIBACHLap8Nbqyfnmg8vJl3ZQ99YpFncEOAsBDtv8YeEOHS7zGuqtkj26d1RXGzoCnIUAhy12HC7XS8vzTNemXttTyXEMLoEzIcBhOb/fr6lzN6mu3ji4HNKpha67sI0NXQHOQ4DDcnM3FGr13mOGekyUS08wuATOGgEOS5VV+/R/87eZrt0+vKO6tEq2uCPAuQhwWOr3C3aoqMI4uGyTGqd7rmRwCTQGAQ7LbDlQptkr8kzXHru2pxI9MdY2BDgcAQ5L1Nf79ei8TTKZW+qyC1rq6t6trW8KcDgCHJZ4Z91+fZl/3FCPjY7S9HEMLoFzQYAj6EqrfHrqI/PB5Z2Xd1LH9ESLOwLCAwGOoPvtgu0qrqwx1DObxesnI7rY0BEQHghwBNXX+0s1Z1W+6drj1/VSfGy0xR0B4YMAR9DU1/s1dd4m+U0Gl1d2b6XRPTOsbwoIIwQ4guYfawu0saDEUPfERGnadb2sbwgIMwQ4guJYZY1+9bH54PInI7oou0WCxR0B4YcAR1D85pNtKqnyGertWyTozss72dAREH4IcDS59fuO6401BaZr067rpTg3g0ugKRDgaFJ1/7ri0mxweVWvDF3RvZX1TQFhigBHk3p9Vb42FZYZ6nHuKD16bU8bOgLCFwGOJlNU4dVvPtluuvY/V3ZVZjMGl0BTIsDRZJ76aJvKqmsN9U7pibpjeEcbOgLCGwGOJrE275je/nK/6dr08b3kiWFwCTQ1AhznrbauXlPnbjJdu+bCNhretaXFHQGRgQDHeXt1Rb62HSo31BNiozX1mh42dAREBgIc5+VIWbWezt1hunbvqK5qkxpvcUdA5CDAcV7+78OtqvAaB5ddWyXp1qEMLoFgIsBxzlbsLta8DQdM12aM7y13ND9eQDDxG4Zz4qur12PzzAeX4y9qqyGdW1jcERB5CHCck1dW5GvnkQpDPckTo0dyGFwCVrAlwGtqavTMM89o2LBhat68ueLi4pSZmamxY8fqH//4hx0toRFKvNKfPttjunbf6AvUKiXO4o6AyBRj9Rfcv3+/rrrqKm3ZskXp6ekaOnSoEhMTVVBQoCVLligxMVE33nij1W2hEd7Nj1JVTZ2h3r11sm4Z0t6GjoDIZGmAnzhxQqNHj9a2bds0bdo0Pfzww3K73afWq6qqtGOH+SlpCA3LdhVrQ7H5P9ye+E5vxTC4BCxjaYDPnDlT27Zt05QpU/T4448b1hMSEnTRRRdZ2RIawVtbpxkfbDVdm9AvUwM7NLe4IyCyWXa45PP59Nxzz0mSfv7zn1v1ZdGE/rp0r/YWVxnqKXExeiinuw0dAZHNsiPwdevWqaioSG3btlWXLl309ddf65///KcOHDigZs2aafjw4Ro7dqyiovgneCjaf7xKf/x0p+naz6/qpvQkj8UdAbAswL/66itJUmZmph588EH9+te/lv9b27b86le/0sUXX6y5c+cqOzvb9M/wer3yer2nPi4r+2bjAJ/PJ5/PuP8ims709zar2ldvqPdqm6zv9WvL8x+mTr6uvL7WacxzbVmAFxcXS5LWr1+v1atX67//+791zz33qHXr1qc+Xr9+va655hqtW7futOHmSTNnztT06dMN9QULFighgc0CgmXLcZdytxlvB+uSX1c1P65PPv7Ihq5gpdzcXLtbiBhVVca3KQNx+f1muxc2vZkzZ+rhhx+WJP3gBz/Q66+/ftr6vn371K1bN1VXV2v27Nm6+eabDX+G2RF4VlaWioqKlJKSEtxvIEJ5fXXK+dMX2nfshGHtxgHt9OT4XjZ0Bav4fD7l5uZq9OjRpgdVaHplZWVKT09XaWnpGXPNsiPw5OTkU/9/5513Gtazs7N1zTXX6J133tHChQtNA9zj8cjjMb7X6na7+eEKkj8vzjMN77R4tx4c25PnPULwO2adxjzPlk0MO3XqZPr/Zo85ePCgJT2hYfuKq/Tnz3eZrv1sTFc1S4y1uCMA32ZZgPfr108ul0uSVFRUZPqYk/WkpCSr2kIDpr+/Wd5a4+CyfZJf3+vXzoaOAHybZQHeunVrDRs2TJK0cOFCw7rP59PixYslSYMGDbKqLQSQu+WwFm07Yqi7XNL3OtYpKsplQ1cAvs3Sk65PXn05c+ZMrVy58lS9trZWDzzwgPbs2aPk5GTdeuutVraF/3Cipk7T399sujZxYJay+AcSEBIsDfCRI0fqiSee0PHjxzV8+HANHTpUEyZMUNeuXfXHP/5R8fHx+vvf/66MjAwr28J/+PPnu7T/uHFw2SIxVveN6mJDRwDMWH7Z49SpU/XJJ5+cuqnV+++/r7q6Ok2ePFnr1q3TNddcY3VL+Ja9RZV6YbH5rWIfHNtdqfGciQCECstvJytJY8aM0ZgxY+z40miA3+/XY/M2qabOOLjs376ZJvTLVF2dcf9LAPbgxiM45eNNh7R0p/EMoSiX9MT43gwugRBDgEOSVOmt1YwPtpiu3XJpB/Vsy5WuQKghwCFJeubTnTpYWm2ot0z26L7RF9jQEYAzIcChXUfKNWvpXtO1h3O6KyWOwSUQigjwCOf3+/Xo3M2qrTfe02xwx+b6zkVccQmEKgI8wr3/1UGt2FNsqEdHufTEd3qfuv0BgNBDgEew8mqfngwwuLxtaAddkJFsugYgNBDgEewPC3fqSLnXUM9I8einoxhcAqGOAI9Q2w6V6eUv8kzXHr22p5I8tlzjBaARCPAI5Pf79djczaozGVwO65Kua/q0saErAI1FgEegd9cXanXeMUPdHe3StHG9GFwCDkGAR5jSEz798sNtpmt3DO+kLq24VyzgFAR4hHk6d4eKKoyDy7apcfqfK7lVLOAkBHgE2VRYqtkr8kzXHruupxJiGVwCTkKAR4j6er8enbdJJnNLXXZBS13Vq7X1TQE4LwR4hHj7y/1av6/EUI+NjtJ0BpeAIxHgEaCkqkZPfWw+uLzr8k7qmJ5ocUcAmgIBHgF+88l2HausMdSzmsfrJ1cwuAScigAPc1/tL9Hrq/eZrk27rpfi3NEWdwSgqRDgYayu3q+pczfJbzK4HNWjlUb2yLC+KQBNhgAPY2+s2aev9pca6p6YKD1+XS8bOgLQlAjwMHWsska//ni76drdV3RRVvMEizsC0NQI8DD1q4+2qfSEz1Dv0CJBP7qskw0dAWhqBHgYWrfvuP6xtsB0bfr43gwugTBBgIeZunq/Hp27yXRtbO/WuvyClhZ3BCBYCPAw89qqfG0+UGaox7uj9ei1PW3oCECwEOBh5Gi5V7/5xHxw+T8ju6htWrzFHQEIJgI8jMz8aKvKq2sN9c4tE3XHMAaXQLghwMPE6r3H9M91haZrM8b3VmwMLzUQbvitDgO1dfV6bJ754PLaC9toaJd0izsCYAUCPAy88kWeth0qN9QTY6M19RoGl0C4IsAd7nBZtf7fwp2ma/eOukCtU+Ms7giAVQhwh3ty/lZVeI2DywsykjR5aAfrGwJgGQLcwb7YVaT3Nx4wXXtifG+5o3l5gXDGb7hD1dTW69EAg8vrL26nwZ1aWNwRAKsR4A710vK92n200lBP9sTooZzuNnQEwGoEuAMdKDmhZxaZDy7vH3OBWiUzuAQiAQHuQE/O36KqmjpDvUebFN18SXsbOgJgBwLcYZbsOKoPvz5kuvbkd3ophsElEDH4bXcQb22dHn9vs+na9/pnqn/75hZ3BMBOBLiDvLh4j/YWGQeXKXExenAsg0sg0hDgDlFwrErPfr7LdO3nV3dXiySPxR0BsBsB7hAzPtiial+9oX5hZqomDsq2oSMAdiPAHeDTbYeVu+Wwoe5yfXPFZXSUy4auANiNAA9x1b7Ag8vvD8xW36w0axsCEDII8BD33Oe7VXDshKHeLMGtX1zVzYaOAIQKAjyE5RdX6rnFu03XHhzbXc0SYy3uCEAoIcBDlN/v1+PvbVZNrXFweXF2mr7XP8uGrgCEEgI8RC3Yclifbz9qqEf9a3AZxeASiHgEeAg6UVOnGe9vMV2bdEl79W6XanFHAEIRAR6C/vTZThWWGAeXLRJj9cBoBpcAvkGAh5g9Ryv04pI9pmsP5fRQaoLb4o4AhCoCPIScHFz66vyGtYEdmmlCv3Y2dAUgVBHgIeSjTYe0dGeRoR4d5dKM8b3lcjG4BPBvBHiIqPTWBhxc3jKkg3q0SbG4IwChjgAPEc8s2qlDZdWGestkj+4b3dWGjgCEOgI8BOw8XK5Zy/aark29poeS4xhcAjAiwG3m9/v12LzNqq03Di4v6dRc4/q2taErAE5AgNvsvY0HtGJPsaEeE+XSEwwuATSAALdRebVPT87farp2+7CO6pqRbHFHAJyEALfR07k7dbTca6i3TonTPSMZXAJoGAFuk60Hy/TqijzTtUev7alET4y1DQFwHALcBt8MLjepzmRwObxrunL6tLahKwBOQ4Db4J11hVqTd9xQd0e7NG1cLwaXAM4KAW6x0iqfZn5oPricclkndW6ZZHFHAJyKALfY73K3q7iyxlBvlxavu69gcAng7BHgFtpUWKo5K/NN1x67rqfiY6Mt7giAkxHgFqmv92vq3E0ymVvqim4tNaZnhvVNAXA0Atwib64t0IaCEkM9NiaKwSWAc0KAW+B4ZY1+9fE207UfX95Z7VskWtwRgHBAgFvg159s1/Eqn6Ge3TxBPx7R2YaOAIQDAjzINhSU6I01+0zXpo3rqTg3g0sA54YAD6K6er8enbtJfpPB5eieGbqyO4NLAOeOAA+i11fv09eFpYZ6nDtKj1/X04aOAIQTAjxIiiu8+k2AweX/XNlVmc0SLO4IQLghwIPkqY+2qay61lDvlJ6oO4Z3tKEjAOGGAA+CL/OP6a0v95uuTRvXS54YBpcAzh8B3sRq6+r16NzNpms5fVrrsgtaWtwRgHBFgDexOSvzteVgmaGeEButR69lcAmg6RDgTehIebV+t2CH6do9I7uqTWq8xR0BCGcEeBN66sNtKvcaB5ddWiXptqEMLgE0LQK8iazaU6x/ri80XZsxvpdiY3iqATQtUqUJ+Orq9dg888HluL5tdWnndIs7AhAJCPAm8OoXedp+uNxQT/LE6JFretjQEYBIQICfp0Ol1Xo613xwee+orspIibO4IwCRggA/T0/O36LKmjpDvXvrZE2+tIP1DQGIGJYG+OTJk+VyuRr8r7q62sqWzsvyXUX64KuDpmszxvdWTDR/PwIInhg7vujQoUPVpUsX07XoaGdcZl5TW6/H5m0yXbvh4nYa1LG5xR0BiDS2BPgdd9yhyZMn2/Glm8ysZXu1+2iloZ4cF6OHchhcAgg+/o1/DgpLTuiZRTtN1342pptaJnss7ghAJCLAz8ET72/RCZ9xcNmrbYomXdLeho4ARCJb3kL57LPP9PXXX6u8vFwtWrTQoEGDlJOTI48n9I9cV+4p1sebD5muzRjfW9FRLos7AhCpbAnw2bNnG2pt2rTRSy+9pKuvvjrg53m9Xnm93lMfl5V9c9c/n88nn8+463swXNQuWY9f212/X7hL5d/asOF7/dvpwrZJlvVhl5PfX7h/n/gGr7f1GvNcu/x+sy13g+Ppp59WdHS0Ro4cqezsbJ04cUIbN27UtGnT9MUXX8jtdmvBggUaMWKE6edPmzZN06dPN9Rff/11JSRYu0VZuU96Lz9Kq49GKSHar0curlOS29IWAIShqqoqTZw4UaWlpUpJSWnwsZYGeCB+v1/XX3+95s2bp759+2rDhg2mjzM7As/KylJRUdEZv9FgWZt/XMUVNbqqV2TsMO/z+ZSbm6vRo0fL7eZvrHDH6229srIypaenn1WA2/IWyn9yuVyaPn265s2bp40bN6qgoEBZWVmGx3k8HtP3yd1ut20/XEO6tLLl69rNzucc1uP1tk5jnueQOQulR49/nzu9f7/5fpIAgH8LmQAvLi4+9f/Jyck2dgIAzhAyAf7GG29IklJSUtStWzebuwGA0GdZgG/YsEHvvfeeamtP33Ksvr5es2bN0sMPPyxJuueee3ivDQDOgmVDzLy8PF1//fVq1qyZ+vXrp4yMDJWUlGjTpk3at2+fJOkHP/iBHn/8cataAgBHsyzA+/btq3vvvVdr167Vtm3btHz5cvn9fmVkZOi73/2ubr31VuXk5FjVDgA4nmUB3rFjRz399NNWfTkACHshM8QEADQOAQ4ADkWAA4BDEeAA4FAEOAA4FAEOAA5FgAOAQxHgAOBQBDgAOBQBDgAORYADgEMR4ADgUAQ4ADgUAQ4ADkWAA4BDEeAA4FAEOAA4FAEOAA5FgAOAQxHgAOBQBDgAOBQBDgAORYADgEMR4ADgUAQ4ADgUAQ4ADkWAA4BDEeAA4FAEOAA4FAEOAA5FgAOAQxHgAOBQBDgAOBQBDgAORYADgEMR4ADgUAQ4ADgUAQ4ADkWAA4BDEeAA4FAxdjdwPvx+vySprKzM5k4ih8/nU1VVlcrKyuR2u+1uB0HG6229k3l2Mt8a4ugALy8vlyRlZWXZ3AkANK3y8nKlpqY2+BiX/2xiPkTV19frwIEDSk5OlsvlsrudiFBWVqasrCwVFBQoJSXF7nYQZLze1vP7/SovL1fbtm0VFdXwu9yOPgKPiopSZmam3W1EpJSUFH6hIwivt7XOdOR9EkNMAHAoAhwAHIoAR6N4PB49/vjj8ng8drcCC/B6hzZHDzEBIJJxBA4ADkWAA4BDEeAA4FAEOAA4FAGOs/LWW29pxIgRatasmRITE9W3b1/9+te/ls/ns7s1NCGfz6dFixbp5z//uQYOHKi0tDS53W61bt1a48aN0/z58+1uEd/CWSg4o3vvvVd/+MMfFBMToyuvvFJJSUn69NNPVVJSomHDhmnBggWKj4+3u000gYULF2r06NGSpNatW6t///5KTEzUli1btGnTJknSlClT9Pzzz3P7ilDgBxrw7rvv+iX5k5KS/F9++eWp+tGjR/19+vTxS/I/8MADNnaIprRo0SL/hAkT/EuWLDGsvfHGG/7o6Gi/JP+rr75qQ3f4TxyBo0GDBg3SmjVr9OSTT+qRRx45bW3ZsmUaPny4PB6PDh8+fNb3b4Bz3XHHHZo1a5ZGjhyphQsX2t1OxOM9cARUWFioNWvWSJImTpxoWB82bJiysrLk9Xr14YcfWt0ebHDxxRdLkgoKCmzuBBIBjgasX79ektS8eXN17NjR9DEDBgw47bEIbzt37pQktWnTxuZOIBHgaMDevXslSdnZ2QEfc3IzjZOPRfg6dOiQXnnlFUnShAkT7G0GkghwNODkjkeJiYkBH5OUlCSJbe3CXW1trSZNmqTS0lL16dNHd955p90tQQQ4gLNw1113adGiRWrRooXefvttxcbG2t0SRICjAcnJyZKkysrKgI+pqKiQJHZrCWM//elPNWvWLDVr1ky5ubm64IIL7G4J/0KAI6AOHTpIaviMg5NrJx+L8PLAAw/omWeeUVpamhYsWHDqLBSEBgIcAZ38ZS0uLg44pFy7dq0kqV+/fpb1BWv84he/0O9//3ulpqZqwYIFp844QuggwBFQZmamBg4cKEl6/fXXDevLli1TQUGBPB6PcnJyrG4PQfTggw/qN7/5jVJTU5Wbm3vq5wChhQBHgx5++GFJ0lNPPaV169adqhcXF+snP/mJJOnuu+/mKswwMnXqVP3qV79SWloa4R3iuJQeZ/TTn/5UzzzzjNxut0aOHKnExEQtWrRIJSUlGjp0qHJzc7mZVZh47733NH78eEnfXKTVq1cv08elp6frt7/9rZWtwQQBjrPy5ptv6tlnn9WGDRvk8/nUuXNnTZo0Sffddx+nlIWRV155RbfeeusZH9e+fXvl5eUFvyE0iAAHAIfiPXAAcCgCHAAcigAHAIciwAHAoQhwAHAoAhwAHIoABwCHIsABwKEIcABwKAIcAByKAAcAhyLAAcCh/j+tg8aac86HmAAAAABJRU5ErkJggg==;" vertex="1" parent="1">
          <mxGeometry x="140" y="145" width="288" height="520" as="geometry" />
        </mxCell>
        <mxCell id="TsOxk-7bbi6E-Upar6m4-3" value="&lt;font style=&quot;font-size: 24px;&quot;&gt;Ego Frame, x [m]&lt;/font&gt;" style="text;html=1;align=center;verticalAlign=middle;resizable=0;points=[];autosize=1;strokeColor=none;fillColor=none;" parent="1" vertex="1">
          <mxGeometry x="185" y="670" width="210" height="40" as="geometry" />
        </mxCell>
        <mxCell id="TsOxk-7bbi6E-Upar6m4-4" value="&lt;font style=&quot;font-size: 24px;&quot;&gt;Ego Frame, y [m]&lt;/font&gt;" style="text;html=1;align=center;verticalAlign=middle;resizable=0;points=[];autosize=1;strokeColor=none;fillColor=none;rotation=270;" parent="1" vertex="1">
          <mxGeometry x="25" y="370" width="210" height="40" as="geometry" />
        </mxCell>
        <mxCell id="TsOxk-7bbi6E-Upar6m4-5" value="&lt;font style=&quot;font-size: 24px;&quot;&gt;Simulation Time [s]&lt;/font&gt;" style="text;html=1;align=center;verticalAlign=middle;resizable=0;points=[];autosize=1;strokeColor=none;fillColor=none;" parent="1" vertex="1">
          <mxGeometry x="661" y="670" width="230" height="40" as="geometry" />
        </mxCell>
        <mxCell id="TsOxk-7bbi6E-Upar6m4-6" value="&lt;font style=&quot;font-size: 24px;&quot;&gt;Positioning Error [m]&lt;/font&gt;" style="text;html=1;align=center;verticalAlign=middle;resizable=0;points=[];autosize=1;strokeColor=none;fillColor=none;rotation=270;" parent="1" vertex="1">
          <mxGeometry x="345" y="370" width="240" height="40" as="geometry" />
        </mxCell>
        <mxCell id="NF88TdcVxK6JHxtNJrKi-1" value="&lt;font style=&quot;font-size: 24px;&quot;&gt;(a)&lt;/font&gt;" style="text;html=1;align=center;verticalAlign=middle;resizable=0;points=[];autosize=1;strokeColor=none;fillColor=none;" vertex="1" parent="1">
          <mxGeometry x="265" y="710" width="50" height="40" as="geometry" />
        </mxCell>
        <mxCell id="NF88TdcVxK6JHxtNJrKi-2" value="&lt;font style=&quot;font-size: 24px;&quot;&gt;(b)&lt;/font&gt;" style="text;html=1;align=center;verticalAlign=middle;resizable=0;points=[];autosize=1;strokeColor=none;fillColor=none;" vertex="1" parent="1">
          <mxGeometry x="751" y="710" width="50" height="40" as="geometry" />
        </mxCell>
      </root>
    </mxGraphModel>
  </diagram>
  <diagram id="wk_hw1nYocD0M3D8te04" name="sim2">
    <mxGraphModel dx="1511" dy="937" grid="1" gridSize="10" guides="1" tooltips="1" connect="1" arrows="1" fold="1" page="1" pageScale="1" pageWidth="1100" pageHeight="850" math="0" shadow="0">
      <root>
        <mxCell id="0" />
        <mxCell id="1" parent="0" />
        <mxCell id="Qysu87LrH2-GhLI-RLq4-33" value="" style="shape=image;imageAspect=0;aspect=fixed;verticalLabelPosition=bottom;verticalAlign=top;image=data:image/png,iVBORw0KGgoAAAANSUhEUgAAAgQAAAMFCAYAAAALKe6HAAAAOXRFWHRTb2Z0d2FyZQBNYXRwbG90bGliIHZlcnNpb24zLjcuMiwgaHR0cHM6Ly9tYXRwbG90bGliLm9yZy8pXeV/AAAACXBIWXMAAA9hAAAPYQGoP6dpAABlj0lEQVR4nO3de5RcVZ3//e85delL0h1uD4QMnQQcIDrELIHBUeTHbcQF6KjLCw6/4RkcmBnFy08uYsJlAEVRJDABHURFxOeHo84ALgdc6uMFCQ8OymXW/JwADhBDYqMiSLqTdHdVnXOeP2Ja296fsr91TndVV96vtXopu0/vc6mqzu69v9/9jbIsywwAAOzW4nZfAAAAaD8GBAAAgAEBAABgQAAAAIwBAQAAMAYEAADAGBAAAABjQAAAAMysPJOD0jS14eFhGxgYsCiKZvuaAGC3l2WZjY6O2pIlSyyO+dsNs29GA4Lh4WEbGhqa7WsBAPyezZs32wEHHNDuywgaHx+3Wq1WWH/VatV6e3sL6w8+MxoQDAwMmNnON+bg4OCsXlCnW/mVa4Lt6UQp/ANpeEYlqjUZ8Sfhn4kTcbzYfDoS57ZUHK+uRxwviY4iZz+ZuiDVfz3cnlZd3cjzRmqTb9GeqZdYnVg9H9FPFodPnIm3onxu4n0ln3+zP1bFPWQl8ZDUtTbEycvinsWzUJ8Bdbyb6sf7Jgo8n3Rs3Ibf/9HJ37+dZnx83A5cttB+/kv1i8lv8eLFtnHjRgYFbTKjAcGuZYLBwcHdfkAQ94s3auwcEJRaGBA0xPEMCMxMvwTGgKDpeedkQCD+IWdA8BtqwGTWscu0tVrNfv7LxDY9tNwGB/IvaYyMprbsiJ9arVZjQNAmMxoQAAAQMjgQ2+CAGtlhPmFAAABoWWqZpe5pxHA/aC8GBMKyz38s/I1G+JHJmAAx/V+a8E8DRmLJwDsVL5cYnEsPqZi+jcV0r5ziVksAaslDXajoqFRT08zhbuQ0tvp95ZyKl7yxEWWxHOVdmhHT1aqftMkfg5F35lg9I7k+Iw5X7xVFfgacSwxyXUWdVxwfeg7idwcwW8hlAQAAzBAAAFqXZKklBcz2J1n+ZQfkwwwBAABgQAAAAFgyAADksDPLIP+aAVkG7bfbDwiWfS6cTRCNhUOp45ra7Me3mZDKGDDzR0yraHYZqC03jxHHq71UVKaE2vgoFhHc7mQC0Y/a/EZGgossCfEay81vnBsTyY2DBJkN4dwoSZGb91TE8xFZDzs7U9fke0/LnQ2L2iRLfcOZSQJ0E5YMAAAAMwQAgNalhWxLZAX1gjyYIQAAAAwIAAAASwYAgBySLLMky58hUEQfyGe3GRAs+/THg+2l7aI2gdiPX0VYeyPum83NyD3wC/q8qKj10rjveLXXvYqiV5931Y/MkpBZCc5Idue+9br8sagpIGsZqAfhO1xlhXgD/eXrKz4Dqcg+MGtWD8N3Terc3gwNSV2oehYq80RltnjnXkOZHt76DEBOLBkAAIDdZ4YAAFA8NibqHswQAAAABgQAAIAlAwBADqlllrBk0BW6bkCw/Ia1wfbyuKhNILIG4rqIHFe1CVR0tbfOgJmuBeDcql9HxYt2ZxS6N/tAtSuq/1g8U5XFIGsBiOuJE5V9IPpRz029Liri3jlfJ5+nOK96bqmzhoX6bJj578FUlL63voXIDJGc1ymzCdSj8GYXha7fe09ATiwZAACA7pshAADMHbIMugczBAAAgAEBAABgyQAAkAO1DLpHxw8Iln1K1CDYEZ7cKIs9x8vbRdaAMyJeZSV4I/pjka1gZpaK/drd0fvOrAF5PeJdIu9B3HNaCbd7o+6Lym5wR8SrCHf1esl+fEULZP/eLBJ5PaL/grpvxlvjQD4Lse+/rpUg+hfZBKp/RWY9qGddn/5mjGpM4GJu8Y4DAACdP0MAAOhcqeltF7z9oL2YIQAAAMwQAABalxS0dXERfSAfZggAAEDnzBAsv/GaYHt5NBxWXN4hsgnGw/2rmgIya0BmGYRHsWk5fD3q+GYR7uVauF1FWHtrE6hnkUXhHyh5o/RVZoU360FFZHsXG53h8vI5q+7V83TWCFBU7QAZiS8i5WXEve9yml6/O6PDmeEgF5pVPwW95yRZc0GdWDQHXjNZPwGYJR0zIAAAzD9JtvOriH7QXiwZAAAABgQAAIAlAwBADuxD0D2YIQAAAHM/Q3DgP64NtlfGRG2CbSKbYEe4f5U1UKr59hZvVmsg2L/ah14MuWIRmd6Mqikgt8YXVPR7pmoNyGgf54nVPXv30ncOY2W0v/yBcLN6T8jrcd6veiFV1oN7v3x1WmcwV7NXXb5TZL0NZw0C5+fMTdUsUIUj1MNQ2RYVVegjdLDoG5glLBkAAFqWWmSJP3k12A/aiyUDAADAgAAAALBkAADIIc12fhXRD9qLGQIAADB7MwQqm6Dn1yKbYHu4n8r28LCxNBE+XkUnqywD797r7r3aBRW03PTciaiXoAKX1Z78Ivq91FDh9aJ/FZ4uw9nD3yjqmernJn5APZ+C9uOXidXq+aiMFJHdoOpnqPdWWhKfAXE5SrPXxZ3JIJ+F789F+R4Sr7E8XtUPkJkhol09I5Lt0cFYMgAAtCwpKMugiD6QD0sGAACAAQEAAGDJAACQA0sG3YMZAgAAMHszBL3PhscaPS+Ew3IrIsugNKGyA0S73IfemeSqgo1LYu91MbRSWQ9Z7B8Nl8Q9p+KaVL0EFejszpSY7ewAb0S2eKSpN+JbfCrUe8tbS0LWGvDWSlDdiwh9mX2g+i/yDzZvhoYzK0HWPhCfAXfGiPwgi+PVayBrJQSa3G8sIB+WDAAALUuzyNICBi9F9IF8WDIAAAAMCAAAAEsGAIAcyDLoHswQAACA/DMEL/1f1wXbF6psgh3h0O7KtnA4cJSE+4lFu464Dx+fVFWIu8om8O3fn1ZEP00Gw6nzVVHR+KqWQaQyHGT6gWiuiP5V5LV4DdSzVuSzUxkmKtJc9aOi/VXtA9GPzPJw9iP7d9Y4UC+MzG7wXmeT77kzKMSLIz9/vm4klQXgPa/i+f1R1DmBmWLJAADQssRiSwqYbFY1yDB3WDIAAAAMCAAAAEsGAIAcsoI2JsrYmKjtmCEAAAC+GYLj/+4GK1V7p7Tt8etwKEhlWzisOKqHQ9lj0S63EC+HxzKlRriftBoOmVaB1GnFt8G7jMh27slu1kKNABW4LPpRdR1UdLq8BW90urOmQCbenSq6Xj3TpCr6byWK3sH7B4+s6aCyJFQWico6Ec9BPf+WalWoz6vz8yEzVVQmjPdZ+w7XL6bKBJD35chiIMkAc4wlAwBAy9iYqHuwZAAAABgQAAAAlgwAADkkWWxJ08CSmfZTwMUgF2YIAACAb4Zg0X9vs3Jpaoh3vKMWPrhWD7eXRLhxyTc2SXvERvqCM8BdHy+yDyIRua9CsmXUten6BzIaX1ysbHfWDlAR394/ClTUujqBykv23q+MlhfvfhVQLp9DuFmSz0FlE4jrVNkHqhZG1FAZMr76HE1jv9wPQ3TjrUHgvTfx+XOnwjszf6hPgE7GkgEAoGWpRZYWMNmckmfZdiwZAAAABgQAAIAlAwBADmxM1D2YIQAAAMwQAABaV9w+BAQVtptrQLBt6QIrV6YWN+r7ebiLWBQZiibCuVKReDOoFLlMpf+pdB9RDEnxpuZlJZWr5urmN52JZlF8SN2zTLfzplypdvX59aZBxr77Sp1FibxFg+Ttin5ilf5X0HXKdFPZj/MXqzettFn33ve7s7iRfqbq94c4rXyvO5+ds9hSlKgiSaFLYQodc4slAwAAwJIBAKB1O/chyD+bUUQfyIcZAgAAwIAAAACwZAAAyCG12BK2Lu4KrgHBt299rw0ODk5pO/xvrw0e2/9cOPS6NBYOy43r4TdDnISPl1kAqjkN99/oUxVuRNSyiPRPRbuiIuvN/FkAMhrcmR2gshJUsRx39oE6XGUBFBSBLjNP1PNUz99ZPMnLnRXifG7uYlQF9WPmz9yQBaZElL63QJPKMDGV1VT2vam9mR7B+yrofQXMFEsGAACAJQMAQOvYmKh7MEMAAAAYEAAAAJYMAAA5pBZbSpZBV8g9IHj4M+cF21e997pge2U0/KJXdoRDaksi+0BF6atsBe97TUfciyhkcT3uugEt9KWkor6CN2rdu/e+3j9e1CxQ0fWqf+9zEO9ymR2g3ive/fW9nNkfOnRfvQCiWUToy0j/JtHvMtND/4iPiN6X2Qfu7ADn9ahn5KxDEHoNZOYEMEtYMgAAACwZAABal2SRJQVUZiyiD+TDDAEAAGBAAAAAWDIAAOSQFFTLICHLoO1mbUCwfUn4xe35dXidKNkafkPF9XD/KvugVBPRxs7lKVX7QJG1CURz08h057UmVW9UuehI3bLMGhDtzmehyCyDgua1vFkM8j002/flzOaQRQjkBYluxH7/3iyPJqfQe/6rm0ud2QTO97RU1L9VLJOjg7FkAAAAWDIAALQuzWJLC5i2S6ll0HbMEAAAAAYEAACAJQMAQA5kGXSPWRsQPLE6XOPgoGvXBtsbfeE3VHUk3H9pItweN/7gpU0RqePFvvuqf7WEpvZ9T6pNrklEdxfGWZsgragaBOIDrPpR+9yr3wPqmYrnk1ZEP8779fLWgJDaFYGunk8LdTj03v6iryZdBY8X+/u762Go95Y3M0edV9UhUO+VJvUhgLnCkgEAAGBAAABoXWq/rWeQ56uVSZLHH3/cbrjhBjvzzDNt5cqVVi6XLYoiu/LKK2f089/+9rftlFNOsX322cf6+vpsxYoVdvHFF9u2bdtauJr5jxgCAMC8dOONN9q6deta+tnrrrvOzjvvPIuiyI455hjbb7/9bP369faRj3zEbr/9drvvvvtsn332KfiKOxszBACAeemwww6zCy64wG677TZ79NFH7YwzzpjRzz3yyCN2/vnnW6lUsrvvvtu+//3v21e+8hV78skn7cQTT7THH3/c3vGOd8zy1XceZggAAC1LLba0gL8tW+nj7LPPnvLfcTyzPq666irLssze/va328knnzzZ3t/fbzfffLMddNBBdvvtt9tjjz1mK1ascF/XfDXnA4Knzjs/2L78hnD2QVYKv8ClcZEFIGofyHZnVkIsaih4NdtuXkZGO1+ttCSyA8SOYKoGgYw2dx4vo9nF4bJWgnoOzmwC1b+MNFe/awqrASH6UadVdQC8/Tuvs1mSgdpszl8HQmQTePtXREfyGakFbudrFjUctRiYv50VtVrN7r77bjMzO/3006d9f9myZXb00Ufb+vXr7c4777Q1a9bMqN/LL7/crrjiCrvsssvs7/7u7+wf/uEf7Otf/7r9+te/the96EV27rnn2llnnWVmZo899ph98IMftO9+97v2wgsv2KGHHmoXXXSRnXbaacXdaAuYIQAA7DZ+8pOf2I4dO8zM7Mgjjwwec+SRR9r69evtkUcecff/9NNP2xFHHGHVatWOOeYYe/bZZ+3ee++1s88+21544QU7+uij7aSTTrIlS5bY8ccfb5s2bbIf/OAH9ra3vc3MrK2DAsagAICWJVlc2Ndc2Lhxo5mZ7bHHHjYwMBA8ZmhoaMqxHrfccou94Q1vsCeffNK+/OUv23e/+1278847zczsiiuusLe97W32gQ98wB599FH753/+Z7v//vvtH//xH83M7JJLLmnhjorDgAAA0DFGRkamfE1MiF3oWjQ6OmpmZgsWLJDHLFy4cPJavJYuXWrXXXedlcu/nYB/3eteZy996UttdHTU9ttvP7voooss+p3N7971rnfZXnvtZU888YQ9/fTT7nMWhQEBAKBjDA0N2aJFiya/rrrqqnZfksvxxx9vvb2909oPPvhgMzM7+eSTpwwGzMzK5bItX77czMyGh4dn/RoVYggAAC1LLbK0gH23d/WxefNmGxwcnGzv6enJ3ffv2rVMsH37dnnMro2Jfvc6Zmrp0qXB9l2zDur7u65rfHzcfc6idMyA4KfvCWcfKC+65tpge3mb743pzkooi/7V3uiyVoK+JhUx7c2I0NH1znB/1b/MPgi3qwhxVdehWSZG8LzOaHkl9WYxuCPoRT/Offp1P+JynPv9y/tt9roU9CyKOt5dZ0JlMYSyAMwsSn0XKmscYNLg4GBL/xDP1K6/xF944QUbHR0NxhFs3rx5yrEefyj1caapke3QuVcGAEDBDj30UOvv7zczswcffDB4zK72ww8/fM6uqxMwIAAAtGy+ZRlUq1U79dRTzczsi1/84rTvb9q0ye6//34zM3vjG984J9fUKRgQAAB2K6tXr7YoiuyWW26xb3zjG5PtO3bssLPOOsuSJLE3velNu9UuhWYdFEMAAJh/EostKeBvy1b6ePjhh+2cc86Z/O8nn3zSzMxuuukmu+uuuybb77zzTtt///0n//vwww+3tWvX2nnnnWennHKKHXvssbbvvvva+vXr7ZlnnrFDDz3UPvWpT+W4m/mJAQEAYF4aGRmxBx54YFr7li1bbMuWLZP/HdrL4Nxzz7WVK1fa2rVr7Yc//KFt377dli5damvWrLE1a9bITYu6WZRlTWOGzWznQ1+0aJFt3bp1VqM/i3Dg9eGaCFE9HA1cEntelMZEHQARqe2NBI+SJt9rpTB4qB/xyqYqCr2wfeKLOd67pKjuS/WvnrPMMlDc1+mrQaAi31WEe1px7tPvfL2aZX/I10DVXRAKqxvhjepXz0Jl7Kj78iYTBPpPx8Zty/v+oWN/7+76d+GaB19lfQvz/205tq1hFxx5X8fe7+6AGQIAQMvSLLLU/VdDuB+0F0GFAACAAQEAAGDJAACQQ1pQlkHK36dtxysAAAC6b4Zg43vDNRGW33hN+AfEvv6ZeDKqNkEsshjU8ZGKxrYmtQxEZoI3Ilvuae/de98bCV4UGVHuPF5dv2qXtQBEVL93X39ne1L11T6QSQzy+ag0lRaCv5zZAe6sgaKyEtQ9F/ZaOj4c3mIeQE5dNyAAAMydNIstLWDb4SL6QD68AgAAgAEBAABgyQAAkENikSXu7UnD/aC9mCEAAAC7zwzBT995QbB92WevDranE+GxkqqJENfD542dWQlmTaLWW4nuDnYUblYZEWrYqI6X0f7qclRtBWc2hPe86jVT0fuyn4aoKeDsR9aSkPvou7rXnMHszeoDuOslqHsuiwwK8awz9fCcGSOReHNl3ofkTekIPVP+XMMc220GBACA4pFl0D14BQAAAAMCAADAkgEAIIfEiskQEBuxYg4xQwAAAJgh2HT2hcH2Zbd+NPwD28OPLOkJRyGnIpugvF1fU1INt0eJiLx2BkDHNRFJrc6rtrSviOtJRNS9OF7XXBB/dchwfFWXInx8IrISVGyTynrwZiXIrAFxvNwWX9ZWcF2OfJ4ya6OFLfZV5ox8jdW9Od9D8rziqcpaBt4Xp8g6EMAc2e0HBACA1pFl0D14BQAAAAMCAADAkgEAIIckiy0pYLq/iD6QD68AAABghkDZ9Nerg+0y+0DIJsKh2vWSjjZWWQCpeLXU8SoCWu2xL6PrnQnCkarFoIafKuo+80Z8FxPtLyPWvVH3Mj1AtDuzBlK13783+8BbZ6BJzQj5Eqj6E96ge3Fv3j9tZO0Dxfunk+pe1YEINbeQzQHkwYAAANCyzCJLC9iYKKP8cduxZAAAABgQAAAAlgwAADmQZdA9ZjQg2BXcNTIyMqsXMx+kY+O+HxBBhZHY0tjMzMT35OfFGVSoggQLCyr0BrU5g/vcQXyqG+95ncF3RQUVqufTtqDCJr+3ZVferXxV0J/cKth53qJeM0Vdv+M9t+t3jQyuBQo2owHB6OiomZkNDQ3N6sUAAKYaHR21RYsWtfsysBuY0YBgyZIltnnzZhsYGLAoIhIUAGZblmU2OjpqS5YsafelNJVmkaXu/NFwP2ivGQ0I4ji2Aw44YLavBQDwO5gZwFwiigMAAJBlAABoXWKxJQX8bVlEH8iHVwAAADAgAAAALBkAAHIgy6B7MEMAAACYIQAAtC612NIC/rYsog/kwysAAAAYEAAAAJYMAAA5JFlkSQEBgUX0gXyYIQAAAAwIAAAASwYAgBzYh6B7MEMAAAAYEAAAAJYMAAA5ZFlsaZb/b8usgD6QD68AAABgQAAAAFgyAADkkFhkiRWwMVEBfSAfZggAAAADAgAAwJIBACCHNCtmU6E0K+BikAszBAAAgAEBAABgyQAAkENa0MZERfSBfHgFAAAAAwIAAMCSAQAgh9QiSwvYVKiIPpAPMwQAAIABAQAAYMkAAJBDkkWWFLAxURF9IB9mCAAAAAMCAADAkgEAIAc2JuoevAIAAIABAQAAYMkAAJBDalEx5Y/ZmKjtmCEAAAAMCAAAAEsGAIAcsoJqGWQsGbQdMwQAAIABAQAAYMkAAJBDmhWUZUAtg7ZjhgAAADAgAAAALBkAAHKglkH3mNGAIE1TGx4etoGBAYsi1nkAYLZlWWajo6O2ZMkSi2P+scTsm9GAYHh42IaGhmb7WgAAv2fz5s12wAEHtPsyJIIKu8eMBgQDAwNmtvONOTg4OKsX1On+5JZ1wfZ4IjyCj5JwP/GEfvNHDfEz9fDPRKnoKBP9iGsy0Y/qPxL9S85+vL8fYvHc0or4Aef1y/tV1+/8o04+B9WPeD7yuYl2+f4Rmt2X6kv9TCp+A5VqvuNV/973lvc1VtfjfQ6h9nRi3J66/oOTv3+B2TajAcGuZYLBwcHdfkAQ9/WG2yPngKDJ0ov6hy2OGRA0o2ZVo6r4AQYEO5vbOCCI1IBAXWuHDQjU9RQxIJjsi2VazBGCCgEALUsL2rqYaoftR6QKAABgQAAAAFgykJZ/4ppge6keHkOVxsX6fiPcXhr3X5MKtFJxCnLd0xsToNZDS+H2uB7uKBMxEEqc+hb51X2pmAm1jpypBWxvzIE4b5SJ5yPWitVzyMrh473r43OR/i1fm7qzI/Wels9atHtPK56RjMdR51WvQeD5ZCKWqNOQZdA9mCEAAAAMCAAAAEsGAIAcWDLoHswQAAAABgQAAIAlAztw3dpge2W7M5vAGUUdi4yBZn2pCGUV1e/NMvDu9mYTvv5VR+5d4wSV9aCyJNRwOG54T+zrP1XZGc6sCkvCx8fq9VXPWXSvskKa7myo3orinvW5w+1qF08v+V537tqoT+A8PnA9Mnuow7Bk0D2YIQAAAAwIAAAASwYAgBxYMugezBAAAAAGBAAAYDdaMnjRx68NtveMhsdEKppZ1SAoTYiIb9FPs/3jVWbCbEcdq+h6FW0eiyj3VBazFyf2RmSrbrzPR5UsUNfpvX6VeeLMIpHXoyL31fWo+3VmW6SihsLOc3tvQvTj/IY3Q8Y7O60+x6n6Dep8b4U+85m3zkObZFZM6eKCfg0gB2YIAAAAAwIAALAbLRkAAIpHlkH3YIYAAAAwIAAAAF24ZHDoB68LtveMhaejZNZATWQNqAwAETmu+mm2Z7o3m0BGlYuIb3fktTNiuiSyD4o6r9wvXw1vnZHp3nBnlYUhOQ9XtQ+8tR5UdkNaEf2LyPqoSc0FmbEg3ovqeJWpos4t63NEop+C3uuy7oj4DKuaDqFsBVmbo8OwZNA9mCEAAAAMCAAAQBcuGQAA5g5LBt2DGQIAAMCAAAAAzIMlg4OvCtcgKG8LTy9Vx8L9VLb5ag3E9fDxZVGzQEWm6+wDnWagotZldPcsbwKeVsT1qEhq8a5SEd8qslvdb1G1EtR9yT38xXmzkoig986Aqn3unWkJcr98Z62KZpkw+uSi3RmlrzJV3JH3IhVDZiUUlNHhfaaV7dNPEIsMpU7DkkH3YIYAAAAwIAAAAPNgyQAA0LmyLLKsgOn+IvpAPswQAAAABgQAAKCDlgwOvSJcg6B3a3gaqTIajsCt7Ai3l0TWQGlcRCGLKGeVHZCJCPS4Lo6Xm6k3ySZwzqh5o/rlPaio+7I4fkxFiIsofRGRrSK+SyLTwxuBLiPNxTDZvY++ijR31nSIVB0A+TqG21WWhKrPIbMexGfJTL8nFHkPqiZCTXRU0GyzSqzw1iZQ7xV1X6F2WWujw6QWWVrAC1BEH8hnnrzlAADAbGJAAAAAOmfJAAAw/7AxUfdghgAAADBDAABoHfsQdI85HxAc9v5wNsGCkXBUbs9WkU0wGg77LY+H2+MJ0S6yAKwh2tWcigpPbmUORmQHqKh1JSuFT56VVbuvfxmdrmoHqP7VfalaBpXw9atIcPUayChulQUgI8rD7WmlmP4l+dzE4SJbwVtnoFn0u8oAkRkpMhrf+14X7c5/Y1RtE0k8I/VeTKvi+MBnKVMZFcAsYckAAACwZAAAaB1Bhd2DGQIAAMCAAAAAsGQAAMiBLIPuMWsDgsP/7tpg+x7PhsNve54Ph6yXt44F26MxEYIrIqmjCRESLyPxRdhy7JxUEf2rCHozMxPnTqvhlytKRb2ESrifLBHHJ757U1kMkejfTIXpq736w78gZD0Jb60HlW2hou6dWQwqC0NG6Yv7VXU1UvHpledVWQwq60FmYTR50OJblbHwa5ZUfRkmqg6Eqah+ld0g6nOo61EZF4p6RJ5aDPJegVnCkgEAAGDJAADQuqygLAOWDNqPGQIAwLz0+OOP2w033GBnnnmmrVy50srlskVRZFdeeWW7L21eYoYAADAv3XjjjbZu3bp2X0bXYIYAANCyzHbGcuf+auHchx12mF1wwQV222232aOPPmpnnHFG0be3W5m1GYJ9738u/I1f/CrYnI5sC7bLPc1FRLbU1xduL6tQbRFtrI4XmQFZVW1o34QI7453TIQPr6h7CH/E4vHwhu1Zb7gf777ySlwLh4LLbIVMbRQfvp6kR/SjuhF1LLKSs5aEiFiXSRUqYr3uqzXgpaLWVSS+jHJvkiETi2h/Fb2vah8kPc5of/USiAwNlXGhsg8UlXmiMjTUeyt0/ZmqFYJJZ5999pT/jr1ZYJiCpwcAwG8cd9xxFkWR3XPPPfbv//7vduqpp9ree+9tAwMDduyxx9r69esnj/3GN75hJ554ou255562cOFCe/WrX20PP/xwG68+HwYEAICWpRYV9tVJ7r77bjvmmGPsmWeesVe/+tX2x3/8x3bvvffaq1/9arv//vvtk5/8pJ166qk2Pj5uJ510kv3RH/2Rffvb37Zjjz3WnnjiiXZffksIKgQAdIyRkZEp/93T02M9PT1zfh1r1661L3zhC/ZXf/VXk23nn3++XXvttfY3f/M39rOf/cy+9a1v2YknnmhmZkmS2GmnnWa33367fexjH7PPfOYzc37NeTFDAADoGENDQ7Zo0aLJr6uuuqot1/HmN795ymDAzOziiy82s53pju985zsnBwNmZqVSyS666CIzM/vOd74zdxdaIGYIAAAtK7qWwebNm21wcHCyvR2zA2Zmp5xyyrS2vfbay/bee2977rnngt8/+OCDzcxseHh41q9vNuQeEBzz+o8H23sXhl/EUmPPYHsci7DfVIUtq43lBXW8yBqIVBaD7Cd8/VFN1VBQG8ubZSq8WO5173wWItI5avii+ovaaz0TUesqql9FapfHws8hraiaCyoC3Xde73758neneM4qIr40Hn690qpv4k9G4otumu3rn1Z82QRq2TiWGRcqSl9k1KgsAJkdIF4D77936njxrMO1DHbPYgaDg4NTBgTtsnTp0mD7woUL7bnnngt+f2BgwMzMJibCGWGdjiUDAAB+zx9KYezGFEeWDAAALUuzyKIClgyKqIeAfLpviAMAANwYEAAAAJYMAACt21WLoIh+vB5++GE755xzJv/7ySefNDOzm266ye66667J9jvvvNP233//3NfY7VwDgpNOX2flSu+Utr5fjAWPLf16e7A9GhP78at969W+6SpKX0Xci5oCkdhHX/avAklU9LO35kKBZPaBCB/PKiJTQnxSM5WV4K0FIF9jUdNhIlyLQZGB6WX1WopmcZ2lmjNLQmQlKPGEr+ZCXBPZByrbQry+KptAZVWYNcncULVB1DMV55Y1AtRr7Pz4qetRtU28mRgqMyfUT7NsDuw0MjJiDzzwwLT2LVu22JYtWyb/e75G/c81ZggAAPPScccdZ1nB6Zn33HNP0+//9Kc/bfr9oq9nLjEgAAC0rOiNidA+BBUCAAAGBAAAgCUDAEAOLBl0D9eAYMGmUSuXalPa4l9vCx6bbQtnGchwC5FlkCXh9khkDciIddFPVlIR1r59/W2iFm4XtRJUBL2Zmam6Doq6Z1FfIXPuBy+pKH1BRnALqsaBjvj2RbK7Q39khLgza0Ds05/F4XaVHRDXfdkEsraCehlVtoWzdIZZk9dAvNXle1RQmR4qI0KfV5xAfjbUZ0k0q6yE0PHzNzYN8xRLBgAAgCUDAEDrqGXQPZghAAAADAgAAABLBgCAHNpZywDFYoYAAAD4Zggm9ltgSXlqcaNeUWhGZu+MhYshmSiUExVVHEil+anUNlWFRFHphc6UtKa86YKqXRTFUf3LFDBRyMZb3CgTr40qupPKokS+Z636N5VWp4bPziJA8rMhnpssiOMsziTTC1UhIfU+aYFMt5PPWqVghq8pqTqfXVHFitSzkwWywu3hThzHAgVgyQAA0LKdSwZFbExUwMUgF5YMAAAAAwIAAMCSAQAgB2oZdA9mCAAAgG+G4Ot3nGuDg4NT2o7/848Gj+3ZIooGNcJZCaqIkQz5rof7kVH9ImIl8kasJ+J6nMWWsp4mjz72XZPqK1JZAIo3K0F1o14DVXxInNdbNMg7vNVZDypEXDQ7izZJ6vUtqACQzD5wzhM2i5SXmRXiNW70FvRXoXgtU5ndoIqaiX7EM1J/1Kr3VqzO20LBqE6RWTEJEcQUth8zBAAAgAEBAAAgqBAAkANBhd2DGQIAAMCAAAAAFLBk8L1vrw62n/xH7wm2J796Ptie1WvhE4hI6rivL3y4ivYXdHaDuBxnNoFVWnjEqu6CeBZRPRyinFXC4elZSYStq+h6lQWg+lfR786IbG9tAr0/varRIDpyZjckPaIWg6px4M2GKCibQIVxq6yKlmZw1UtZb6GvAJXFEIsofVm/QVyoOj6VdSZ8sfGJqMUQBT5KqXwhOwxpBl2DGQIAAMCAAAAAkGUAAMijoCyD1taoUCRmCAAAAAMCAAAwi0sGz52wPNje/4s/Crb3PLsj2B6NhbMPopoIW1Y1DhRVN6AsIvHlfvOiH2//TahocxXt797bX9R1KCoLIK2IaPxGOBxfRe+7ObMM9P36TuutQaBqCqgIdyVS2QTicarnIGsWNLkcda0qul5mnqhyGOLjLWsiiGcRiYekshjkdTrfFHJWPNCu3j+dJst0GRRvP2gvZggAAAADAgAAQJYBACAHahl0D2YIAAAAAwIAADCLSwY//H/OD7avPP+6YHvP89Vge99z4U3KyzvC7aUJtal5OIQ1ronjlUSEwqqhlYrUFhH9O38m/EMqk0G1q33Wk97wyx45701Gyzuj9FORcaGyHhQZle3dw9+bneGsfeCtNSDPq67f1438bKQiM0BmDJhZJGp6qMwHGdUvjm/0ylOLC/Kd15uhod9bvn5CGR3i10DnyaJiNhViyaDtmCEAAAAMCAAAAFkGAIAc2JioezBDAAAAGBAAAIA2LBn8n7XnBttXXBrOPmj0h8N1K9vD7eXx8LxTqRYO2Y1rIipaRPjGoh8VXa2inOXxTXij2b3Hp9Xw+FDtT68istXcnzsa35nd4K41oPpXtQ/U8NlZE6GoYOpUfXqdWQyRuCCZAdD0mmY348KbAaKouhHyLa3ecjJ7ItyuajEk1eknSLxv6HbJrIXUFtEP2ooZAgAAwIAAAACQZQAAyIFaBt2DGQIAAMCAAAAAdNCSwWMfCmcfKC9ZE85KqG4NHx+l4ayEUi18vM5WEPUExGxXSWQxtELWGlCncEa/q8wHdbx4pPLEKnND7ZmveGcW5f7xKkJcZFXI5+m9HmfNBd2PL4tBPf+kwN8CshaAenbyPST6V6VKVNaA/AyoE6h+nJ8ZcXwSLtky/yPs5/v1w8yYIQAAAMaAAAAAWActGQAA5h+yDLoHMwQAAIABAQAAmMdLBhuuCmclHHpFOPsgVtkEY+H2dHu4PWqEp7ViEf3c6BO1EsTxzfry1gdVUeV6i3Rn1Lozolxx1ziQ/fjaPfvKm5lFqkaDqq0geCPc5euoiH7SiriegiL9zfQe/vI94czciMS1+jM9nK+ZekZpQe/dQP9Zk+fcUahl0DWYIQAAAAwIAADAPF4yAAB0gsjctcdlP2gnZggAAAAzBACAHAgq7BpdNyB4/LJw9sEff/TaYLvcp19Emsf18HnjiXB7SRxv3shxM4tFhoOcaRMfsLjh/OQ593f3UtH7Xu4aBGJ+TEXKx4mzpkNBtQ8idZ0ia0C97jIrRPUvnmcc69dLZlCo49V7SGWMyH6c53XWt5AZLN7sCUcdi3S+ZBmga7BkAAAAum+GAAAwh1gy6BrMEAAAAAYEAACAJQMAQB5Z5I/qVP2grXabAcETq88Lth903dpge2lMRFjXRHtv+LylifDxJVFbwazJPu4iMyFKVWi0OF6cIBJ7+6uIaVULwB1pLjI91P3K3xvO86pgebnnv/i0qOemshW8WSHqftOK+oY4rcrmUGu3KvugWXaJM6NDvcby2Tmv1ftZUse739Mim0CeN3C/86aWAboGSwYAAGD3mSEAABQvy9yFWGU/aC9mCAAAAAMCAADAkgEAIA82Juoau/2A4Klzzw+2L//kNcH28rbwpEoisgzSnnDYcrZNX5OKco9F1HEk9thXHzCZ4aCi6EUWQyLuTdVKSMu+64yT8Ddk5Lh3r35xv2p/fZnNISLKVfaEN8vAS0W4Z+rEBdVcaEplAai9/QX1mnlfe8VTa2DniZ3nVYkhgfPKGhnALGHJAAAAMEMAAMiBjYm6BjMEAACAAQEAAGDJAACQQ5TpoE5vP2gvBgTCT991QbB9+T+Fsw9UFHI6Hp6EkXu1m65/0FDZB3XdV4iMgBbtcd23tpeVRGaFswZBmopo/6Ki8b376zfbwz/YkfNwkUWirlPul6/6cUatFxW5bzb7y8Pee5OZGOo94awzIbMJmJNFB+PtCQAAmCEAAOTAxkRdgxkCAADAgAAAAMxwySD7TV3KkZGRWb2Y+SAdGw9/Q013TYTHXNFEk5PUfEF5mTeoUB2vgtec/cugNmdQoYngvnYFFboD4wgq/O3PzPaeM95rct5bUUGFnueQTOz8XZN1el1gNibqGjMaEIyOjpqZ2dDQ0KxeDABgqtHRUVu0aFG7LwO7gRkNCJYsWWKbN2+2gYEBi7ypVwAAtyzLbHR01JYsWdLuS8FuYkYDgjiO7YADDpjtawEA/I55MTNAlkHXIKgQAAAwIAAAAGxMBADIgyWDrsEMAQAAYEAAAABYMgAA5MGSQddghgAAADAgAAAALBkAAPKglkHXYIYAAAAwIAAAACwZAAByiLJiSpIXVdYcrWOGAAAAMEMAAMiBfQi6BjMEAACAAQEAAGBAAAAAjAEBAAAwBgQAAMDIMgAA5BBZQfsQ5O8COTFDAAAAGBAAAACWDAAAeVDtsGswQwAAABgQAAAAlgwAAHlQy6BrMEMAAAAYEAAAAJYMAAB5sGTQNZghAAAADAgAAABLBgCAHKKsoFoGLBm0HTMEAACAAQEAAGDJAACQB1kGXYMZAgAAwIAAAACwZAAAyIMlg67BDAEAAGBAAAAAWDIAAOTAxkTdgxkCAADAgAAAADAgAADkkUXFfTk9/vjjdsMNN9iZZ55pK1eutHK5bFEU2ZVXXjmjn//2t79tp5xyiu2zzz7W19dnK1assIsvvti2bdvmvpZuQAwBAGBeuvHGG23dunUt/ex1111n5513nkVRZMccc4ztt99+tn79evvIRz5it99+u9133322zz77FHzFnY0ZAgDAvHTYYYfZBRdcYLfddps9+uijdsYZZ8zo5x555BE7//zzrVQq2d13323f//737Stf+Yo9+eSTduKJJ9rjjz9u73jHO2b56jvPjGYI0jS14eFhGxgYsCjyT+sAAHyyLLPR0VFbsmSJxXEH/+3Wxo2Jzj777Cn/PdPndNVVV1mWZfb2t7/dTj755Mn2/v5+u/nmm+2ggw6y22+/3R577DFbsWKF/8LmqRkNCIaHh21oaGi2rwUA8Hs2b95sBxxwQLsvo2vUajW7++67zczs9NNPn/b9ZcuW2dFHH23r16+3O++809asWePq/6GHHrLrr7/e7r33XnvmmWesv7/fhoaG7KSTTrJ3v/vdtmzZMjMzu+eee+z444+3Y4891r75zW/aRz/6Ubvtttvs6aeftn333df+8i//0q644grr7e21rVu32oc+9CG74447bHh42BYvXmxnnnmmXXLJJVYuF7fyP6OeBgYGzGznG3NwcLCwk89Hf3LrPwbb495GsL1UScIdNQmg6e+vBds/c9j/Drb/3X/9z2B7tRQ+9456Jdiursg7cM/Even2cD9FTUZFIsE5LijxuRSnrvOq51AuhfspSjkW70WhlfdDRTwL9YzUaxA733Wq/1Q8a3Ve9Z7rLdVd16POW3Y8h/r2mt39hi9O/v5FMX7yk5/Yjh07zMzsyCOPDB5z5JFH2vr16+2RRx5x9f3xj3/cVq9ebWma2iGHHGKvf/3rbWxszJ544gm75ppr7E/+5E/szDPPnPIztVrNXvOa19gjjzxixx13nB166KG2fv16u/rqq23Dhg1266232itf+Up7/vnn7X/8j/9hBx98sN177712xRVX2C9+8Qu78cYbW3oOITMaEOxaJhgcHNztBwRxX69oDw8I4hYGBKX+8PcWDoSnw0r9PeH2cvjcpRoDArPOGxCUZntAIAaISivvB/UP3nwZEKj2Ssn3ZixiQLBLpy/TzreNiTZu3GhmZnvssYccbO2aEd917Ex87WtfswsvvNB6e3vt1ltvtbe+9a1Tvr9hw4bga/mDH/zAjjrqKHvqqads7733NjOzTZs22cte9jK766677LjjjrNDDjnEvvSlL1l/f7+ZmT344IP2ile8wj796U/bmjVrbOnSpTO+zmY6eGEKALC7GRkZmfI1MTFRaP+jo6NmZrZgwQJ5zMKFCyevZaYuu+wyMzP78Ic/PG0wYGb2kpe8xF784hdPa4+iyG6++ebJwYDZzmWLXQGSGzdutM9+9rOTgwGznTMYJ598sqVpavfcc8+Mr/EPYUAAAOgYQ0NDtmjRosmvq666qt2X9Af9/Oc/t//4j/+wOI7trLPOcv3s0qVL7bDDDpvWfvDBB5uZ2RFHHGH77ruv/P7w8HALVxzGPgQAgNYVnGXw+7FqPT3hJdFW7Vom2L59uzxm18ZEM10if/rpp83MbP/997dFixa5rkdN9++apVDf33Uf4+PjrvM1w4BAWP7Ja8Lf6HO+88VaYhTrfsbFGv9bHvzb8CnEObZtFxNAzsW6NCkF22O1di7uTcUKZGn4OmPnmnpZxEyo55NkvgmyWNyXWi9OU7F+LfpJxHNQVExALJaca43wxz0Vr0tFPH+1Xr+zr/DJG+Lcil7LD99zrRF+j1ZFIKW6A3X94xb+TDbEa6YCeuWJA+ric9ftZjtWbfny5WZm9sILL9jo6GgwjmDz5s1Tjp1NfyhVci5TTlkyAAC0LvttYGGer0JmGWbg0EMPnRKcF7Kr/fDDD59Rn7v+in/mmWds69atBVxlezAgAADsNqrVqp166qlmZvbFL35x2vc3bdpk999/v5mZvfGNb5xRn4sXL7ZVq1ZZmqb2uc99rriLnWMMCAAAu5XVq1dbFEV2yy232De+8Y3J9h07dthZZ51lSZLYm970JtcuhbuyDC6++GK7/fbbp31/w4YN9uijj+a/+FlEDAEAoHVt3Lr44YcftnPOOWfyv5988kkzM7vpppvsrrvummy/8847bf/995/878MPP9zWrl1r5513np1yyil27LHH2r777mvr16+3Z555xg499FD71Kc+5bqWN77xjfbhD3/YLrnkEnvzm99sK1assFWrVk1uTLRhwwa75ZZbgqmHnYIBAQBgXhoZGbEHHnhgWvuWLVtsy5Ytk/8d2svg3HPPtZUrV9ratWvthz/8oW3fvt2WLl1qa9assTVr1rS0Q+RFF11kJ5xwwuTWxXfccYcNDAzY0NCQXXjhhXbCCSe4+5xLUZap2O/fGhkZsUWLFtnWrVu7bqfCg65bG2y/5i/C2wSf+53pe1+bmUVip8JqX3jL03pNj8XUxmRZQRvZZSL6XWZEiGhz2U9BG6vFZd951XOLVcS3s/66yp5QOxLKftR1ql3+xPMvamdJFbmvshWa3a/chdG5g6Gitkb27grZUwp/XhVv/+p4lX0wEcjCaGyfsHted2PH/t7d9e/CQZd8xEq94R1cPZLxcXvqyos69n53B8wQAABa18YlAxSLoEIAAMCAAAAAsGQAAMhhvlU7hMYMAQAA2H1mCA66NpxNkPSHo5bPve+0YHu8MJw1kNbDY6uJ7dXwBSVNItxV9L6XOkeTOgohmXfcqA5Xp1V7+4vrl1kY6rQqkN37mEWygsoCUPviq2yCROz3Xxd/OpVKvqwHVUNhTNQB6Kn4IvHN9D2Xxbb8qgZBSWV0lMPXlKjsBvEs0ixcm0BRtRXU/arMDVU/IyaiDh2AGQIAAMCAAAAAMCAAAAC2G8UQAABmARsTdQ1mCAAAQPfNEBzyoeuC7ZnYGjsSEf1ZLTxWSifCUdGRiuhvof6A6kttve/O31XHq+j9svgBbz8iKl5mVYggd9mPkDWcNRfU9YjaCuo5qH3u1adOZR9kafi9mIg3V0lE9KusDXVemQEgsirM9D3XRAZFWZx7vB4+dyPx/Q2j7k3VaSiruheCqq1QT8LXr7IVQhqJ71qAvLpuQAAAmDtsTNQ9WDIAAAAMCAAAAEsGAIC8mO7vCswQAACAzp8huPLHrw22/+8vnxhsb+wp9pXvEdHGIpugtMP3aCIVeC1GzvJ4M8tElLj+AWc/6ngxPIxEsLMKopdKzh9QNRea1YEIkFkJqn/VLrIP0oZvXK1qFqTivHHFmX0gsioiVR/AROaMqrngjPQ3MyuLDI2GuIdUPWtVyEJQV5qqt5a4HpU9obIGZAKL40Ojng0wWzp+QAAA6GBsTNQ1GIICAAAGBAAAgCUDAEAObEzUPZghAAAAnTND8LJ3Xhts374knE2Q9YnoXhFh3ftLEdktItBLEyJSW0Xcqwh9Z0T/zm+K5oo4hzMLQNUmSEX/qiN5DyqQ2lmbIBMR5Sp7Qv6FIWsuqPtSqSGiH6XqK2SRieyJ1Dluj0StAdW/ep+UxPNJnFkVZvJRy2wCVS+hVg9/jtXxKqo/Em+Wmvj9URE1DsbV9Yj3UEnVqwhcp8p4AGZLxwwIAADzEFkGXYMhKAAAYEAAAABYMgAA5ECWQfdghgAAAMz9DMERZ4WzCep7ir3C6+F+4jERnTwRPl5F4kciyllG0HuzBkR7sy3NZV/iWajj5TnUXvfiGanoepnFoLIGVCaGeg1U/2Ijetl/TfRfEZkqqlaCM6sim1AXpPoR9yWej4kkhqwsXl9REyESb+rGRPjXQ1xVbxStURf1EtQ9x+I1U58/2S4fdrBVZjeI+hOxyBpIxXt0IhP9BJ5D0vA/ZyAPlgwAAK0jy6BrsGQAAAAYEAAAAJYMAAB5sGTQNZghAAAAszdDcOLxHwm2p4f2hi9kR3h42Pt8uP9SLXx8XBdRyyXfRvQqYj2piP3mq6IfFYHeZCiWinOIAGWdTeDMDohE1LqqcaBOqyO7Rf8iK0Htf6+i7r21G6Lx8IuQVlWdDNG/ul2VxaCyBsQTzVSCtnoPydoW4R9QEfrqBU7G9a8NVUdBKYnMh5rIcIhEjYA0KeZvm4bov1IJP9RU1BtInFkPceC8SSKKdgCzhCUDAEDL2Jioe7BkAAAAmCEAAORAUGHXYIYAAAAwIAAAALO4ZJCJEPG9Hh0Ptkdi728T7WlvOAI36Qm3y6yBHhFpLp5MLCLNGyJyPOkJH988gEZkSog99jMRjKyyA9QwMK41u6bAeZ1ZDEqssgZUdoDKhlCZHuKCVD+lCV8Wg8wmELUMMpHFIKdMVVaIej+oN1dddCSyPExlQ5R1JkFWF28ucY7GmK9eQtoQ/YtrUhkpqmaByrhoiPOq95buX+bmiPZ5gCWDrsEMAQAAYEAAAADIMgAA5MA+BN2DGQIAAMCAAAAAFLBk8NL/dV2wvX9xOOS7PBaOvi1NqP3jRbRuWUT9ioj7LHaGvguJiNxXWQyliXC7ymIw03v4yzk1tT96XRyugsRVNLvaw188C3le9dqIdrXnfyb2m1fXGfu219fPQbSL7exllL6uGSHqc6gId5GFIbMDFJGtIP9ckG9Q0wUuVPaBuIe0Hn5TqFoJKvtA1T5oiP5jkQ2RimynWHwmG2m4/5LIhkgCtRgS9bp0GrIMugYzBAAAgAEBAAAgywAAkANZBt2DGQIAAMCAAAAAOJcMXnXuJ6xU7Z3StuDX4XmeyrbwXuRRIuaFRORyVvJF2qpsgrTsjNgV16MixOOGiE4W51WR9U0vSZxb1YFIK+Lc6gTOKTtV10FlXMgIdFUTQfSjsg/kDThrLsjrV89HXY+IcJf31XBG+6v3g7oxdb+qloGi6gnsPHm43XkP6nhVm0AlPqjaBIrMwBEPL1XZS+I5yMyZQLus29BpyDLoGvPkHQcAAGYTAwIAAECWAQAgB5YMugYzBAAAgAEBAABwLhks/FnDypWpoeUlUZtARb4rkQgHTkvhMUtaVVkAKro3fF6ZBeCMQPfWSojCSRi/+aZoF/eQ9LZnz3NZm6Coy1FvIRXY7a19oM6rXhtn9oGKiJeR+OpwdT3iQcssCVE3IBJ75ruzD8z0Q/XWS3C+9jJzQ92DfJP6XhslE/ebiA9NFHhPZIV9kGZXZO7HI/tBezFDAAAAGBAAAACyDAAAeZBl0DWYIQAAAAwIAAAASwYAgBwof9w9XAOCsb3LVqpO/ZG+58I5UeWxcHvcCOfOqfRCmYol+smicD+yKJEsthRuVumFuhCP6KdZcSNxSWnFd7y3yJC7KJEzQ0t+3lVBGedwtagsLflayh8Q7SLd0Z3Cpt4r6rmJVDuZfinTI5tfV5BMI3T+tlf/Ooh7i9SzVrzHKzKFVBVhEtcfaFfHArOFJQMAAMCSAQAgB7IMugYzBAAAgAEBAABgyQAAkBfT/V3BNSD4/o3vtsHBwSltf/rX1waPrYiCO9URkX1QF1kDKtS5FG5XWQOJKGKkqOwA2S6LM6kiTPrcMptA8RaCkcWBxPUUFO2v7ksGU6tsi6rvt4/3fpW04isOJKP0nWkYmShKpLNLCjq+SOoe1Isvq4uJz1OsPpiiuaCMFNVNXG5WvSxwfOA1yErONyiQE0sGAACAJQMAQOvYmKh7MEMAAAAYEAAAAJYMAAB5sDFR18g9IPjRrecF2096+QeD7d795rNKeCP3NA1PbqQimyAS2QdpxdeP3O/fyRu530wm+vLWJlDX5L1ndT1qPkptc5+Jfet1NL5ol6Hg4niRTaCo7AN5/SqA3plN4M5iUOR1OjMAzGSNAFVrIBN1FOKKL0pflDBx1wOQ2QrqeJnFED5vKJvAzCwLPNOiMiGAmWKGAADQMoIKuwcxBAAAgAEBAABgyQAAkAdBhV2DGQIAADCLMwSNcLTuCysHg+1qdBg3RLSuaFf706tI+UzUGpD78YvsAxmhH06SaJploK5J1QKQ96aGe+p4Z9S6ugf5Gshof5EBUhXHC94MllRE9cuaBY2CahaoiHgRcS+zFbzZAc4aCvI6m+3Tr04trlVdaqksapuoWgbynsPtZWf/SknUG0jFa6mOD12/N9MCyIslAwBAy8gy6B4sGQAAAAYEAACAJQMAQB5kGXQNZggAAMDszRB866HLg+2vfOs1wfbt+4bD8euDIqq4ET5vaUJckAoQF/24iaGVzCZoMhqWe/KLjAUVGO093js8VHvvJ853lQomSsX1y+O9NQWcEeVZVfSv9u8X/WcytF60qxoHIpJd9qMi9EXEvfrMxKp/09H+MpFBHe/MJlBZCe5aBs4aBOr43mr4F0siarAEnwNRdphjLBkAAFrHkkHXYMkAAAAwIAAAACwZAAByYGOi7sEMAQAAmPsZgvu/ckGw/fC/vTbYPqH29e8L918fFNHAiS+iPK6Jbzj3g1ej3mYB7rIGgcomkHUafNekovQVWadBtEsigltF0Sc9zj8l1PNMRYS7iup3Z2GIveidtQ8i9Xyc2QFRrCLxw8fH4ngV0W9mljTCD0nt4e+lawGEj1f34M1iqJTCr2UqsgZkNoS4nmrgvZKUi0qBAmaGJQMAQOvIMugaLBkAAAAGBAAAgCUDAEAOUZZZlOWf7y+iD+TDDAEAAOicGYKHP3Oe6/gV/3BdsL22R3iUmfaI6OR6ONo4Fu2RChxXg1sRXK3qFTQ7hzvLwBnNLtsFVSPAXUPBu7e/albHq/M6+5fHK2r/e5U1oCLfnRH6kfM6VT0B9bqkqoaCmVV7wpHx6mdUjQAVja9qAciofnUPwVaz/p5welGtEX5TqyyGwd5wUZVaMvMUnEz0DcyWjhkQAADmIbIMugZLBgAAgAEBAABgyQAAkAO1DLoHMwQAAGD+zhA89sFzg+2HfCicfVBXe5pXw8PSRr/ISqipjeLDzVKTSO3IG1wso+7VCZwFFrxDd3VrsuaCM9pfRemr4a08XmQBeLMh1OEyy0BcTiz2yxevi4pwV1REv2pX+/2XVY2GJkriNVY1AuS5K3XfedVrL6iMi1CtATOdxaCuvyJes0Yge8L7KwXIa94OCAAAHYAsg67BkgEAAGBAAAAAWDIAAORAlkH3YIYAAAB03wzBTy4NZx8ctPbaYHumAqZ7w9+IFohI8PrM9yg3M7OGjiGWA+UmmQlB7mwCVXjBmX3gPb6g7AAlLhe0J7y6LZVNoLpx1g6oOK9fZR+o7Al5Par/JseXRdZALM7dSMIvvroHd7R/+LTytSk7MzdUzQVFZYwsqEyvodAItAGzqesGBACAOUSWQddgyQAAADAgAAAALBkAAHIgy6B7MEMAAAB2nxmCp84/L9j+x1eHsw+uPuVLwfZzv3N6sD0SWQmlqoi6Luno5KQRzljIVBKAiupXwexq73oR8S2j+lXWgzreG/KtkgzKvij9oqL9FbVPvzd6X/cv6nCI112dV7WryHpVByBtcluVJu/rkGq5EWz37uOvMh9UFkASqB1gpmsrKBVv/QnHaxC3UDOiLQgq7BrMEAAAAAYEAABgN1oyAADMDgICuwMzBAAAgAEBAABgycCeuDCcfbD8EyJaulfsEy/2my+JSOFGXT/6vv6JYLuKKm80fOO6VGUHiHuQWQyCe298Z2S62pM/SURkt7P2gYrqV+dVkewq0lxmAYjraVY7wNO/yhrw6q2EMwPMdE2BRDyLivPZqWftrUFQFdkB3qwEdV5vlkHoeNVHx8mynV9F9IO2YoYAAAAwIAAAAAwIAAA57Nq6uIgvr8cff9xuuOEGO/PMM23lypVWLpctiiK78sori7/R3cBuH0MAAJifbrzxRlu3bl27L6NrMEMAAJiXDjvsMLvgggvstttus0cffdTOOOOMdl/SvMYMgfDTd18QbF/2mauD7ZmI3FcR+ir7wExnAfSI6O6Foo5CTdREqDXCL7s3Wl5dZ1lE6TdErQT1jFR2QKz23i+F+1fHpyJyXEXpe/fLj51R4uq5lZ3766vr9Eb0q3ZvRH+zvtSz6y+F3+ve6H1vhkY5Eq9lqS6uJ/we6i2r42d+/fVyLXhsx2ljLYOzzz57yn/HMX/j5sHTAwDgd2RZZnfccYe99rWvtcWLF1u1WrXFixfbq171KvvYxz5mY2Njk8defvnlFkWRXX755TY8PGxnn322LVmyxPr6+uywww6zm2++efLYxx57zE4//XRbvHix9fb22qpVq+zLX/5yO24xiBkCAAB+o16v29ve9ja74447LI5jO+qoo+yEE06wX/3qV7ZhwwZbvXq1nXbaabZ8+fIpP/f000/bEUccYdVq1Y455hh79tln7d5777Wzzz7bXnjhBTv66KPtpJNOsiVLltjxxx9vmzZtsh/84Af2tre9zczMTjvttDbc7VQMCAAALYvSnV9F9NMJVq9ebXfccYctX77cvvrVr9qqVasmv5dlmX33u9+1Pffcc9rP3XLLLfaOd7zDbrjhBiuXd/7T+m//9m/2F3/xF3bFFVfYXnvtZR/4wAfsoosusug3u5ytW7fO3ve+99kll1zSEQMClgwAAB1jZGRkytfERHjn1tnwy1/+0j7xiU+Ymdm//uu/ThkMmJlFUWQnnniiLVq0aNrPLl261K677rrJwYCZ2ete9zp76UtfaqOjo7bffvtNGQyYmb3rXe+yvfbay5544gl7+umnZ+muZm5GMwTZb7aUHBkZmdWLmQ/SsfFge2ThwK800du8KonYQjgRQYWJCDpLknBQYdIQQWoFBRVGIjgukUGF4csR8VqWOYMEvceroMJMBaiJ/t1bPqstk8U2u0qqtkYuKKhQ3W8zDfGsS+Xwe7pUUFCh2m5ayVRQoWhXQYVRAddf374zqDDbzbb0HRoamvLfl112mV1++eVzcu7vfe97VqvV7IgjjrAjjjjC9bPHH3+89fb2Tms/+OCD7T//8z/t5JNPnjIYMDMrl8u2fPlye/755214eNiWLl2a6/rzmtGAYHR01Mymv1AAgNk1Ojoa/Iu0YxScZbB582YbHBycbO7p6Smg85nZtGmTmZmtWLHC/bPqH/OFCxc2/f7AwICZmY2Ph//YnEszGhAsWbLENm/ebAMDA9NGOACA4mVZZqOjo7ZkyZJ2X8qcGhwcnDIgmC/+UMrjfEiJnNGAII5jO+CAA2b7WgAAv6OjZwa60K6/4h977LE2X0l7dP6QBQDQsdpZy6BoJ5xwglWrVXvooYfs4YcfbvflzDkGBAAAmNm+++5r73znO83M7C1veYv9+Mc/nvL9XWmHW7dubcflzTr2IQAAzEsPP/ywnXPOOZP//eSTT5qZ2U033WR33XXXZPudd95p+++//4z6vPrqq23jxo32ta99zVatWmUvf/nL7cADD7Rf/epX9l//9V/2s5/9zDZu3NiVyzkMCAAArcsynTvs7cdpZGTEHnjggWntW7ZssS1btkz+t2cvg2q1al/96lftS1/6kn3+85+3hx56yB588EHbe++97eCDD7b3ve99tnjxYve1zgdRtrsluQIAchsZGbFFixbZUX/xIStXpuffezXq4/bDr11qW7dunZdZBt2AGAIAAMCSAQCgdUVlCHRClsHujhkCAADAgAAAALBkAADIo+BaBmgfZggAAAADAgAAwJIBACAHsgy6BzMEAACAAQEAAGDJAACQRxtrGaBYzBAAAAAGBAAAgCUDAEAOZBl0D2YIAAAAMwQAgBzYurhrMEMAAAAYEAAAAJYMAAA5EFTYPZghAAAADAgAAABLBgCAPNJs51cR/aCtmCEAAAAMCAAAAEsGAIA82JioazBDAAAAGBAAAACWDAAAOURW0MZE+btATswQAAAABgQAAIAlAwBAHlm286uIftBWzBAAAAAGBAAAgCUDAEAOlD/uHswQAAAABgQAAIAlAwBAHtQy6BrMEAAAAAYEAACAJQMAQA5RlllUwKZCRfSBfJghAAAAM5shSNPUhoeHbWBgwKKImlQAMNuyLLPR0VFbsmSJxTF/u2H2zWhAMDw8bENDQ7N9LQCA37N582Y74IAD2n0ZWvqbryL6QVvNaEAwMDBgZjvfmIODg7N6QZ3uT754bbC9d+FEsL2vpx5sL8V6vWzvvu3B9n89+P8Ntv/Pp44PtveXw+ceqfcG28tREmxPs/BfJ3Hk+wSrfhTVfyy2NPO2l0X/8jmIiu1l8ZusHPueZ18p/HrJ+3L+Bi3H4eNLop+euBFsr2cleY6eOHwPFfFM1b2p40siNy0Sr6W6N3VeZSAedx2vVCx8X5Vo+rPesS2xvz3mscnfv8Bsm9GAYNcyweDg4G4/IIj7wv+YlvrD/1iUesK//JsNCMr94V/EgwPhvioLquH2cviaKvXw8QwIdqqIf8iTTDxPNbBwDgiq4t9Zdf3qHzvFPyAI32/cZEDQK17iSuR7D1XE0qQaEKh+ihoQ9Mf6nj0qYsW10uR6WKbFXCHLAADQMrIMugeRKgAAgAEBAABgyUBa9umPB9sri8Lr++WyCBYqhdcwq6Xw8WZmE0n4ZXnNo6+VPxPy/PgCcU0iwEu8HdT1qH7UGnwq1uATFWQngiLVnue9KihP/EBDnLeRiDV+GWQXPn6sXgm2q+DBidT3cVT9KLGYkm1kvvP2l2qu482aBCKK9lTEHKigxUT0U3LGFiTib6Sauk5xfG/ke23qgdegLj4vHYdaBl2DGQIAAMCAAAAAsGQAAMgjy3Z+FdEP2ooZAgAAwIAAAACwZGDLb7wm2P7N114XbD/1/3tXsL0kdhrrq4Sjjccb+tGraPwdol3uZCfad4jod3XeHpFNMCHuoVFQIRZ1PfUkHPFdE+395XBUvHcHxkYaPl7tAKiyG1Q2gdzGV2RtNFIV+R5+bqnY8U5tUayMp+H3TzNqK+JemTUQftYqW6E3sPWvmc4aUBHt/XF4C3KVTaCorAT1HMaz6c90QryOnSbKdn4V0Q/aixkCAADADAEAIAeCCrsGMwQAAIABAQAAYMkAAJBDlO78KqIftNduMyBY9pmrg+2lPcNRzm9+5Oxg+z57jgbba41wVPG2iZ5ge5LqCOJMRNdHzjBcFRWvahDIfkT0vlISUffe45O0N9jeUw5HlKfifseTcFS8iuo3mX0QPr4ch7MYVK2Eqog0HxPXOSGyCXpE9oHKkqjG4evfnoTfo33ivrxZCWZmdRMZEeJz0COyBkoiPUBlH8QiUl9dTyLeQ6o2QSg7wMxsgchW2J5Ww/0Hsi3q5vucAnmxZAAAAHafGQIAwCwgy6BrMEMAAAAYEAAAAJYMAAB5ZCa3gnb3g7bqugHBgdevDbZHe6qI7PC7UEX6j46FI99VtHQrVF+xiBL3qtfDL7vKYuipiKh+8YxKsS9Lwps9oWoZqGyFsYZv7331nugphZ+DqqGgayWIuhelcCR7XdUsyEQNBfFWVLUPyiLrQdUBkPUBzKxk4WtS75WKqrchovFVnQZVI8BU9oEzx03d10A8FmyvZ6peRbif0PH+XA4gH5YMAABA980QAADmTpRlFhWQIVBEH8iHGQIAAMCAAAAAsGQAAMiDjYm6RscPCL7+1GHB9nd97e3B9mzv8P7rfQvDe4s3RA2CsR3h/d1VRLzMMlDb5YuoazOzuByORPbmMcQlXyR1LOaLVJ2Gkuhf1VAoiWc3XhM1F8oi+l30r1RF7QZV06EsIsFVdoDKJlC1DMZF1oN6bv3l8HtaRdyrbIKG2L+/LGoiVFqoNqOi8VX9A5VNoLIGEpW5IT5ooRoBzahaCSqzYjwLX39V1GIAOhlLBgAAoPNnCAAAHSwzExND/n7QVswQAAAABgQAAIAlAwBADmxM1D06ZkCw4h+uC7aPDf3f4R/YIxzFG5fE3ugv9AXbo0p48SsTke+WiFh/cV5T2QQik8DMLGmIWgPqZ0SGQyKiymN1z6IWQBKJaHaRfVCpqAjxYLOVVbZCEn4N1PE6C0A8HxHVn4r7VeriOfeUw+9RFdWvrnM8CWclqGwIVRNBZSWoLAkT/assBjP97PoiVadBPGvRrO6hLmoWlES9B5XFMC5qEPRH4UwPdV6VZZCKSdmqTX8+KnMCmC0sGQAAgM6ZIQAAzEOZFbQxUf4ukA8zBAAAgAEBAABgyQAAkAe1DLrGnA8IDr08nE1Q20dE0JfFm6QRjjbOxsJ7i4sAdLMdImJaZQ0IUcM32ZKpbIUm584Sca3i5iLx7FLx7KwSbo9E9Lt3c7I4Dl+P2vVd1ywI/0RV1D6oiedWVlkV4rwT4jmURD+ROK/KJlBZEmXxpMeT8MdXZTH0iHalLrIPVF0CM30PE2n4WlW0v2pXWQYlkRGhsgCU/ljUjVCZGE41kcUQot5vwGxhyQAAALBkAADIITV/KVbVD9qKGQIAAMCAAAAAsGQAAMiBWgbdY9YGBKveG84mmDg0HD2ciYj4aHs4SjgSkfJxTSxmqbkQtW4lulHXqeoJmIisT8tNFt3Ez2Qq8yEWGRfq5sR+84moHRCL2gQlUVvB+7nOVPR+SbxXxPFjtfCe/z2VcFT8uKgZobIGVHaAUhFR/Q2RxVAV91tzZhPURER/SWQAqD3zxduqacR9Kl77irg3ZVvSE2xXGQ7qHlS2gso+SMQHv1fUYkjEL5btafj6F8QTwXagE7BkAAAAWDIAAOTAxkRdgxkCAADAgAAAALBkAADIgyWDrjFrA4JtQ+EXt7QjPCkhgoEtrotQZ7V/v9qnXwWIq0jqioj0F5HmMgBdZB9EsriC/hlVL1xmPqj6CiKLQWY3iOtRWQmR6l984NXxqvZBIrpX2QQqa0BRtQxUFoDqv56GI9n7yuGIdZXF0Os8XkXcq+vR2RDh43vKupaBykBQtQzqUfgci8pj4ePFNanPscom6I3Dz1QZz8IZLN5aDKqWQW80vYZCzNZ9mGMsGQAAAJYMAAA5sGTQNZghAAAAzBAAAHKg2mHXYIYAAADknyF40TXXBturW1WtgXA/ItBZR9ar/ftFELJqV0HLJZGtkIaDjS2TkfvhZp2WYJapDAdxz5EaWYt21b+6JpVloIhSCWbOaP/UmaGhsgMm6qpmgciEKaiWgTp+QtQmUNkH40n4Tddb8kXKx+KNkojrLIvn0FAfJjOriloDMmNB/ELYkVTF8eH+VTbBQGk82J6IbAjVT0n8Ikple/jZqeyDNPCLItQGzCaWDAAALaPaYfdgCAoAABgQAAAAlgwAAHmwD0HXYIYAAAD4ZgiOuvSTVurpndI2sE10PO4b7YmtziURJGxJjy/7IBb9pOEgZ309JZGVUBXPoVnAukpYEFvIqyyAtMeZ2KteMhVdr5IVUhF5HYUfdrmsUkzCVI0DdfkqK0G1q+h6L9WPrh0gno83O0O8uVSdARW5781KMNPZBKovRUXjl0Q/sn6D+OCrLINeC2dueK8fmI9YMgAAtC7NZLE5dz9oK5YMAAAAAwIAAMCSAQAgD7IMugYzBAAAwDdDsMdTDStXpkYkRyryXdUOKIssAJU1UA0fr7IJVKx5WlH9uLrR7YIIlm46EktlMQBxfDUcAR2J7AP1rN03J6L9RTKBuyBapmorOGsKePuvJeE3b7Uk9qEX/cQi0MrbrrIPauLjWxZZDNWyqgOgUm3Czeo6zaxJYQ1xCvHs6iayA8Sz6I3D2QEV9Z4uKGtAZR/Us/yTryoTApgtLBkAAHIoaMnA+wcJCscQFAAAMCAAAAAsGQAA8iDLoGswQwAAABgQAAAA55LBtj8qW6k69UeqIyKFqqEq34hmZ5qirmTja1dpgZF4MirjSs12qdS/tOyfHksrLRRKCh6vqic5j3c+C3WhaSKK+lR8RY9UsSJFbZ3eK4otqaI+FddZdaqdUhVphKqIkSqGpIobKbE4b7NCPyrlUd1zIt50ZZHPLNML1QdZ6BH9JOrDpJ6dOK/qx/temRfSzArJEKCWQdsxQwAAABgQAAAAsgwAAHlk6c6vIvpBWzFDAAAAGBAAAADnksH9V7/LBgcHp7StuPS64LGluoiA3iE6V7NFKuhXZCWoAG5Va0RmN8isB9W/KKrUwqJMVnJG2ybiplvIZAiRtZbkwxaZJyJ6X0lFhkZZ9KOi64vSI4obqYI7KjvAq1oKR9yryH1VDKlcCj+fZlkDIaUm2RwN8cFR2QcqO6AkfiHU1QdT/Gmj+lcZFyr7wJuhoc7btDDUfMXGRF2DGQIAAMCAAAAAMCAAAOSRZsV9tehf/uVf7LjjjrM999zTFixYYKtWrbKrr77a6vXwElAzzz33nH3+85+397znPfbKV77S+vv7LYoi+/M///OWr2++IO0QADBvve9977N169ZZuVy2E044wRYuXGjf/e537QMf+ID927/9m33rW9+yvr6+Gfe3fv16e/vb3z6LV9y5mCEAAMxLX/3qV23dunW2cOFCe+CBB+yb3/ym3X777fbf//3ftnLlSrvvvvvs0ksvdfW533772d///d/bTTfdZD/60Y/sU5/61CxdfefJPUPw2IfODbYf8qFw9kFtIDwtVB4LR0yrQHa5vb4IQlbktvKi3VtPQAUnN7tO+TOqvSKixL3DPWd2gwoKjkU/KltB1SCI43B7Jl401V4S/XhrHyg95XAWgKKyIapxuB+VNaAi1nUtg/Dzib21MJpQ2QRKXXwQ1L31x7Vge0lkSsTOPfbV9ZREPyr7QGVuyDoW0fR+VJ2HjtPGLIOPfOQjZma2evVqO/zwwyfb99lnH/unf/onO+aYY+wTn/iEXXrppbZo0aIZ9fmKV7zCXvGKV0z+949//GP3dc1X8+QdBwDAb/3sZz+zH/3oR2Zmdvrpp0/7/qte9SobGhqyiYkJ+/rXvz7Xlxf00EMP2V//9V/bgQceaL29vbbXXnvZqlWr7P3vf79t2rRp8rh77rnHoiiy4447ziYmJuyKK66wQw45xHp7e23p0qX2gQ98wMbHx83MbOvWrXbBBRfYQQcdZL29vbZ8+XK7/PLLrdHw/aFixoAAADAPPfLII2Zmttdee9mBBx4YPObII4+ccmw7ffzjH7ejjjrKvvCFL1i1WrXXv/719qpXvcrq9bpdc8019r3vfW/az9RqNXvNa15j1157rb34xS+2V7/61TYyMmJXX321veUtb7Hnn3/eXv7yl9sXvvAFO/zww+3YY4+1X/ziF3bFFVfYe97zHvc1ElQIAGhdZgUtGez8n5GRkSnNPT091tPTM+3wjRs3mpnZ0qVLZZdDQ0NTjm2Xr33ta3bhhRdab2+v3XrrrfbWt751yvc3bNhgUWBN9Qc/+IEdddRR9tRTT9nee+9tZmabNm2yl73sZXbXXXfZcccdZ4cccoh96Utfsv7+fjMze/DBB+0Vr3iFffrTn7Y1a9Y0fT6/jxkCAEDHGBoaskWLFk1+XXXVVcHjRkdHzcxswYIFsq+FCxea2fRBxly77LLLzMzswx/+8LTBgJnZS17yEnvxi188rT2KIrv55psnBwNmZsuWLbMzzjjDzHYOdD772c9ODgbMds6KnHzyyZamqd1zzz2u62SGAADQMTZv3jxli/zQ7MB88vOf/9z+4z/+w+I4trPOOsv1s0uXLrXDDjtsWvvBBx9sZmZHHHGE7bvvvvL7w8PDrvPN2oBg8KnwFNLz0+/NzMyS/nBUbiT26Vfbr4stxHU2gZojEf3Lmgiy/xZqHIgIa1UvQWYHOGsZRGKve5VBUVLZBK6ztpB9INrV8aq9ImoTqL36VT86cjzcrLIG1MdRRcpXS+FNV9TxKgNA3a+KlG8WuV8Tb+w+kR2gXktVy2BC9N9fCvc/IT6wC+NxcV7xXpG1CcLXqa7fc7+qj45TcJbB4ODgtJo5IQMDA2Zmtn37dnnMtm3bJvtsl6efftrMzPbff/8ZZzrsoqb7d818qO/veja7Ag9niiUDAMC8s3z5cjPbOaOg7PrermPnmzhu/k/0H/q++3yF9gYA2L2kaXFfDi972cvMbOdWwypo8MEHHzQzm7JHwVzb9Vf8M888Y1u3bm3bdcwEAwIAwLxzwAEH2J/+6Z+amdkXv/jFad+/7777bPPmzdbT02OnnHLKXF/epMWLF9uqVassTVP73Oc+17brmAkGBACAeemiiy4yM7OPfvSj9vDDD0+2P/fcc3bOOeeYmdm73/3uaWv3d955p61YscJOPPHEObnOXVkGF198sd1+++3Tvr9hwwZ79NFH5+RamiHLAADQujZuXfyGN7zB3vve99r1119vf/Znf2YnnniiLViwwL7zne/YCy+8YEcffbR96EMfmvZzW7dutccff1wG3f3Zn/3Z5P9/9tlnzczsRz/60ZT2Sy+91E499dQZXecb3/hG+/CHP2yXXHKJvfnNb7YVK1bYqlWrbGxszJ544gnbsGGD3XLLLcHUw7k0awOCB285L9i+8vxwjYMd+4X7aeyh0gbCzVFNTHqoiPuGLyZeZTeoDADVHqX6vJnKGhAZCzLLQAW/i2yCSO35Lx5pLKL0VQ0ClU0Qq739y+H+VVR/WdxXybm3f0UcryLEZbt4k8oaBCKSvSqes+KtJ1AkbzaBalf7+PfGvnK2C0vhX/iqBkHF2b+ishLUfS2IJ6a1RW18HeeTdevW2dFHH22f/OQn7f7777d6vW4vetGLbPXq1XbuuedatVp19/nAAw9MaxsZGZnSvmugMFMXXXSRnXDCCXb99dfbvffea3fccYcNDAzY0NCQXXjhhXbCCSe4r7NoUZb94WHZyMiILVq0yLZu3Zo7fUMPCMKXwYDgdzAgMDP9D3lPJbx3txoQKD0qHdE7UFApbKJ/VdzIOyBQ/Sgq7VD1U1EfAjPrEf+gegcEihoQqH+A1fWoAYE6XqUjqrTD3ijcjxoQDMZj09p2bEvsbw9/uJDfu7Nh178Lf/5/nWXl2P+P7u9rpDX79rM3d+z97g5YMgAAtK6NSwYoFkGFAACAAQEAAGDJAACQR5qZDOpy94N2mvMBwf9Ze26w/SUXhYMNkwXhALKsNxzMk1VFQJV6r/WJ9ro4r5pTUf2Ldhk4aFZYDYK4Ip6RqA8Ri2uKVfS+Oq8IKlTBgyqoLVHBgyLY0Bu4poITVc2Csgggk8erYEkRrOcNTlTU81TU9fQ4282a1HUQvHv+q+BBLxUMqPpXQYiqPRGRuOp+x7PKtLYJ57ME8mLJAAAAsGQAAGhdlqWWZfkrMxbRB/JhhgAAADAgAAAALBkAAPLIsmIyBNiYqO06ZkCw4SPh7APlwOvXBtuzvcJ7qVd7xVaijVKwPa2KLAMRoS+pSPayXi/LxLbGKgtARblHIso9Ct+y7EeRWQbOftR5+8VWxPJ6xP2q2gTerYjVdarjvdkE3gh973NWvBH09Uy8gcysX9QyUCpiv35ZC0Cm+fioeytKqDaBmX52ofttFJRRAcwUSwYAAKBzZggAAPNQVtDGRCwZtB0zBAAAgAEBAABgyQAAkEeamomtoF3YmKjt5u2AYON7zw+2L//ENcH22mA4grvcE44E7+0LZyU0RFaC2r9fRaZnTSLK1VJaJH4kFVkJlYovStl7rd6shKqoQaCi/b1R/UVlE/SUfNkNMsug5Hv+qlaComoK6OcjakA413+LqifQSl/q+JJ4diVxb70iG0LVGlDPTlHZBLHoP3R8nTV1zDGWDAAAwPydIQAAdACyDLoGMwQAAIABAQAAYMkAAJBDlqaWFZBlQPnj9uu6AcFP331BsH3ZZ64OtjfEI6iK7INFC8fC/SThyRYVKd9I9H7w3r3u1cpbWUTXq6yBWEbjixM4qWehsgBKzuPVffWVwxkj6jk30vBrqY5XUfrefkw8575S+PoVnX3g+4Ur77eFGgoqSn88rQTbe+PwPVfEvalsAu89J2rSVPxjpa5TZROo93RvFKh9QC0DzDGWDAAAQPfNEAAA5hBZBl2DGQIAAMCAAAAAsGQAAMgjzcxaCDSdhiWDttttBgSb/vbCYPvyG9YG2+84/vpg+2vvPyfY3tcX3ht9oDcQPWxmPX3jwXYzs4lG+GVRHxeVfaCoPf/rIipeHa/OW3Hu4d+srkOIN2vAmx3QXw6/lup++8X1ePe/V7yR8qlKV8jCr29fKXy/rdQs8N6zitLvF7UGEnFvqr0iXmN1fI+qlSCyBlQ2gaL6CWVJqMwJYLawZAAAAHafGQIAwCzIMjPnTInuB+3EDAEAAGBAAAAAWDIAAOSQpZllBWQZZCwZtN1uPyD46XvOD7Yv+5SIBt4jHP3s3d99dKJHfm+f/u2uvuppuC6CiqJXUegVZ7S/UhZR8aqWQVVkJajrL4tI9loq6lKI/e9V1oCqAaHuS9UOUHQ2hG//e/V8FPXc1HOYyMLPc2E5nDljpjMTEpHh0COyDFQWgIq892ZE9Ebh81aj8Guprt9L1UqoBT7DY5nvfQXktdsPCAAAOWSpFRNUSLXDdiOGAAAAMCAAAAAsGQAAciCosHswQwAAAJghUDa94/3B9mW3fjTYPl6pBNsrZbE3uohkNzMba4T7WlQN1z8YFO0NUZtgPAn3r6Pxw/00RPvCSjgKfVzcl+qnWgpfj8oCSLPws+4V/YQiu8109L7KAlBZA+4aE6J/lR2g9sVXz0fVDVBZKkqPiMQ30xkssr6C0CvOITMxxLOQWQ/ibyF1vDeLodLkGYWPn96WtlBLAsiDAQEAoHVkGXQNlgwAAAAzBACA1jWsrmuze/tBWzEgAAC4VatVW7x4sd33868X1ufixYutWq0W1h98ZjQg2JUOMjIyMqsXMx+kY+EAviQOb2mcmNjmVQRHmZk1yuGApHo9fI5SOTyyVkGF9SQ8nI8KCiqsV8LXWW+Ez6v6KZXC95WJoLl6Eg6Oq4vno4LpMvHaZCK4LxLBXyqoUAUhRmprYdEei3XbRDyfSAYV+tZuy+J1MdPBgw2xPlwWAZ8mgvIiZ1BhwxlUGDu3oVbqlj8gcGzbzj46NR2vt7fXNm7caLVa+PPeimq1ar29vYX1B58ZDQhGR0fNzGxoaGhWLwYAMNXo6KgtWrSo3ZcR1Nvbyz/gXSTKZjD8TNPUhoeHbWBgwKKomAI4AAAtyzIbHR21JUuWWBwT/43ZN6MBAQAA6G4MOwEAAAMCAADAgAAAABgDAgAAYAwIAACAMSAAAADGgAAAAJjZ/w8DttMsTZobOQAAAABJRU5ErkJggg==;" vertex="1" parent="1">
          <mxGeometry x="200" y="90" width="373.69" height="560" as="geometry" />
        </mxCell>
        <mxCell id="Qysu87LrH2-GhLI-RLq4-1" value="&lt;font style=&quot;font-size: 14px;&quot;&gt;Ego Frame, x [m]&lt;/font&gt;" style="text;html=1;align=center;verticalAlign=middle;resizable=0;points=[];autosize=1;strokeColor=none;fillColor=none;rotation=-90;" vertex="1" parent="1">
          <mxGeometry x="75" y="362" width="130" height="30" as="geometry" />
        </mxCell>
        <mxCell id="Qysu87LrH2-GhLI-RLq4-5" value="&lt;font style=&quot;font-size: 14px;&quot;&gt;Ego Frame, y [m]&lt;/font&gt;" style="text;html=1;align=center;verticalAlign=middle;resizable=0;points=[];autosize=1;strokeColor=none;fillColor=none;rotation=0;" vertex="1" parent="1">
          <mxGeometry x="270" y="41" width="130" height="30" as="geometry" />
        </mxCell>
        <mxCell id="Qysu87LrH2-GhLI-RLq4-12" value="" style="endArrow=none;html=1;rounded=0;dashed=1;strokeWidth=2;strokeColor=#ABABAB;" edge="1" parent="1">
          <mxGeometry width="50" height="50" relative="1" as="geometry">
            <mxPoint x="208" y="277" as="sourcePoint" />
            <mxPoint x="460" y="277" as="targetPoint" />
          </mxGeometry>
        </mxCell>
        <mxCell id="Qysu87LrH2-GhLI-RLq4-13" value="" style="endArrow=none;html=1;rounded=0;dashed=1;strokeWidth=2;strokeColor=#ABABAB;" edge="1" parent="1">
          <mxGeometry width="50" height="50" relative="1" as="geometry">
            <mxPoint x="208" y="317" as="sourcePoint" />
            <mxPoint x="460" y="317" as="targetPoint" />
          </mxGeometry>
        </mxCell>
        <mxCell id="Qysu87LrH2-GhLI-RLq4-14" value="&lt;font style=&quot;font-size: 12px;&quot;&gt;0&lt;/font&gt;" style="text;html=1;align=center;verticalAlign=middle;resizable=0;points=[];autosize=1;strokeColor=none;fillColor=none;rotation=-90;fontSize=12;" vertex="1" parent="1">
          <mxGeometry x="175" y="137" width="30" height="30" as="geometry" />
        </mxCell>
        <mxCell id="Qysu87LrH2-GhLI-RLq4-15" value="&lt;font style=&quot;font-size: 12px;&quot;&gt;-3&lt;/font&gt;" style="text;html=1;align=center;verticalAlign=middle;resizable=0;points=[];autosize=1;strokeColor=none;fillColor=none;rotation=-90;fontSize=12;" vertex="1" parent="1">
          <mxGeometry x="175" y="87" width="30" height="30" as="geometry" />
        </mxCell>
        <mxCell id="Qysu87LrH2-GhLI-RLq4-16" value="&lt;font style=&quot;font-size: 12px;&quot;&gt;+3&lt;/font&gt;" style="text;html=1;align=center;verticalAlign=middle;resizable=0;points=[];autosize=1;strokeColor=none;fillColor=none;rotation=-90;fontSize=12;" vertex="1" parent="1">
          <mxGeometry x="170" y="187" width="40" height="30" as="geometry" />
        </mxCell>
        <mxCell id="Qysu87LrH2-GhLI-RLq4-17" value="" style="endArrow=none;html=1;rounded=0;dashed=1;strokeWidth=2;strokeColor=#ABABAB;" edge="1" parent="1">
          <mxGeometry width="50" height="50" relative="1" as="geometry">
            <mxPoint x="208" y="131" as="sourcePoint" />
            <mxPoint x="460" y="131" as="targetPoint" />
          </mxGeometry>
        </mxCell>
        <mxCell id="Qysu87LrH2-GhLI-RLq4-18" value="" style="endArrow=none;html=1;rounded=0;dashed=1;strokeWidth=2;strokeColor=#ABABAB;" edge="1" parent="1">
          <mxGeometry width="50" height="50" relative="1" as="geometry">
            <mxPoint x="208" y="171" as="sourcePoint" />
            <mxPoint x="460" y="171" as="targetPoint" />
          </mxGeometry>
        </mxCell>
        <mxCell id="Qysu87LrH2-GhLI-RLq4-22" value="" style="endArrow=none;html=1;rounded=0;dashed=1;strokeWidth=2;strokeColor=#ABABAB;" edge="1" parent="1">
          <mxGeometry width="50" height="50" relative="1" as="geometry">
            <mxPoint x="208" y="422" as="sourcePoint" />
            <mxPoint x="460" y="422" as="targetPoint" />
          </mxGeometry>
        </mxCell>
        <mxCell id="Qysu87LrH2-GhLI-RLq4-23" value="" style="endArrow=none;html=1;rounded=0;dashed=1;strokeWidth=2;strokeColor=#ABABAB;" edge="1" parent="1">
          <mxGeometry width="50" height="50" relative="1" as="geometry">
            <mxPoint x="208" y="462" as="sourcePoint" />
            <mxPoint x="460" y="462" as="targetPoint" />
          </mxGeometry>
        </mxCell>
        <mxCell id="Qysu87LrH2-GhLI-RLq4-27" value="" style="endArrow=none;html=1;rounded=0;dashed=1;strokeWidth=2;strokeColor=#ABABAB;" edge="1" parent="1">
          <mxGeometry width="50" height="50" relative="1" as="geometry">
            <mxPoint x="208" y="568" as="sourcePoint" />
            <mxPoint x="460" y="568" as="targetPoint" />
          </mxGeometry>
        </mxCell>
        <mxCell id="Qysu87LrH2-GhLI-RLq4-28" value="" style="endArrow=none;html=1;rounded=0;dashed=1;strokeWidth=2;strokeColor=#ABABAB;" edge="1" parent="1">
          <mxGeometry width="50" height="50" relative="1" as="geometry">
            <mxPoint x="208" y="608" as="sourcePoint" />
            <mxPoint x="460" y="608" as="targetPoint" />
          </mxGeometry>
        </mxCell>
        <mxCell id="Qysu87LrH2-GhLI-RLq4-29" value="&lt;font style=&quot;font-size: 12px;&quot;&gt;1&lt;/font&gt;" style="text;html=1;align=center;verticalAlign=middle;resizable=0;points=[];autosize=1;strokeColor=none;fillColor=none;rotation=0;fontSize=12;" vertex="1" parent="1">
          <mxGeometry x="192" y="66" width="30" height="30" as="geometry" />
        </mxCell>
        <mxCell id="Qysu87LrH2-GhLI-RLq4-30" value="&lt;font style=&quot;font-size: 12px;&quot;&gt;15&lt;/font&gt;" style="text;html=1;align=center;verticalAlign=middle;resizable=0;points=[];autosize=1;strokeColor=none;fillColor=none;rotation=0;fontSize=12;" vertex="1" parent="1">
          <mxGeometry x="441" y="66" width="40" height="30" as="geometry" />
        </mxCell>
        <mxCell id="Qysu87LrH2-GhLI-RLq4-31" value="&lt;font style=&quot;font-size: 12px;&quot;&gt;direct range, lateral (x) estimate&lt;/font&gt;" style="text;html=1;align=center;verticalAlign=middle;resizable=0;points=[];autosize=1;strokeColor=none;fillColor=none;rotation=0;" vertex="1" parent="1">
          <mxGeometry x="242.00000000000006" y="203" width="190" height="30" as="geometry" />
        </mxCell>
        <mxCell id="Qysu87LrH2-GhLI-RLq4-32" value="&lt;font style=&quot;font-size: 16px;&quot;&gt;error&lt;/font&gt;" style="text;html=1;align=center;verticalAlign=middle;resizable=0;points=[];autosize=1;strokeColor=none;fillColor=none;rotation=0;" vertex="1" parent="1">
          <mxGeometry x="500" y="87" width="60" height="30" as="geometry" />
        </mxCell>
        <mxCell id="Qysu87LrH2-GhLI-RLq4-34" value="&lt;font style=&quot;font-size: 12px;&quot;&gt;direct range, longitudinal (y) estimate&lt;/font&gt;" style="text;html=1;align=center;verticalAlign=middle;resizable=0;points=[];autosize=1;strokeColor=none;fillColor=none;rotation=0;" vertex="1" parent="1">
          <mxGeometry x="227.00000000000006" y="351" width="220" height="30" as="geometry" />
        </mxCell>
        <mxCell id="Qysu87LrH2-GhLI-RLq4-35" value="&lt;font style=&quot;font-size: 12px;&quot;&gt;direct bearing, lateral (x) estimate&lt;/font&gt;" style="text;html=1;align=center;verticalAlign=middle;resizable=0;points=[];autosize=1;strokeColor=none;fillColor=none;rotation=0;" vertex="1" parent="1">
          <mxGeometry x="237.00000000000006" y="493" width="200" height="30" as="geometry" />
        </mxCell>
        <mxCell id="Qysu87LrH2-GhLI-RLq4-36" value="&lt;font style=&quot;font-size: 12px;&quot;&gt;direct bearing, longitudinal (y) estimate&lt;/font&gt;" style="text;html=1;align=center;verticalAlign=middle;resizable=0;points=[];autosize=1;strokeColor=none;fillColor=none;rotation=0;" vertex="1" parent="1">
          <mxGeometry x="222.00000000000006" y="641" width="230" height="30" as="geometry" />
        </mxCell>
        <mxCell id="Qysu87LrH2-GhLI-RLq4-37" value="&lt;font style=&quot;font-size: 12px;&quot;&gt;0&lt;/font&gt;" style="text;html=1;align=center;verticalAlign=middle;resizable=0;points=[];autosize=1;strokeColor=none;fillColor=none;rotation=-90;fontSize=12;" vertex="1" parent="1">
          <mxGeometry x="175" y="282" width="30" height="30" as="geometry" />
        </mxCell>
        <mxCell id="Qysu87LrH2-GhLI-RLq4-38" value="&lt;font style=&quot;font-size: 12px;&quot;&gt;-3&lt;/font&gt;" style="text;html=1;align=center;verticalAlign=middle;resizable=0;points=[];autosize=1;strokeColor=none;fillColor=none;rotation=-90;fontSize=12;" vertex="1" parent="1">
          <mxGeometry x="175" y="232" width="30" height="30" as="geometry" />
        </mxCell>
        <mxCell id="Qysu87LrH2-GhLI-RLq4-39" value="&lt;font style=&quot;font-size: 12px;&quot;&gt;+3&lt;/font&gt;" style="text;html=1;align=center;verticalAlign=middle;resizable=0;points=[];autosize=1;strokeColor=none;fillColor=none;rotation=-90;fontSize=12;" vertex="1" parent="1">
          <mxGeometry x="170" y="332" width="40" height="30" as="geometry" />
        </mxCell>
        <mxCell id="Qysu87LrH2-GhLI-RLq4-42" value="&lt;font style=&quot;font-size: 12px;&quot;&gt;0&lt;/font&gt;" style="text;html=1;align=center;verticalAlign=middle;resizable=0;points=[];autosize=1;strokeColor=none;fillColor=none;rotation=-90;fontSize=12;" vertex="1" parent="1">
          <mxGeometry x="175" y="427" width="30" height="30" as="geometry" />
        </mxCell>
        <mxCell id="Qysu87LrH2-GhLI-RLq4-43" value="&lt;font style=&quot;font-size: 12px;&quot;&gt;-3&lt;/font&gt;" style="text;html=1;align=center;verticalAlign=middle;resizable=0;points=[];autosize=1;strokeColor=none;fillColor=none;rotation=-90;fontSize=12;" vertex="1" parent="1">
          <mxGeometry x="175" y="377" width="30" height="30" as="geometry" />
        </mxCell>
        <mxCell id="Qysu87LrH2-GhLI-RLq4-44" value="&lt;font style=&quot;font-size: 12px;&quot;&gt;+3&lt;/font&gt;" style="text;html=1;align=center;verticalAlign=middle;resizable=0;points=[];autosize=1;strokeColor=none;fillColor=none;rotation=-90;fontSize=12;" vertex="1" parent="1">
          <mxGeometry x="170" y="477" width="40" height="30" as="geometry" />
        </mxCell>
        <mxCell id="Qysu87LrH2-GhLI-RLq4-45" value="&lt;font style=&quot;font-size: 12px;&quot;&gt;0&lt;/font&gt;" style="text;html=1;align=center;verticalAlign=middle;resizable=0;points=[];autosize=1;strokeColor=none;fillColor=none;rotation=-90;fontSize=12;" vertex="1" parent="1">
          <mxGeometry x="175" y="572" width="30" height="30" as="geometry" />
        </mxCell>
        <mxCell id="Qysu87LrH2-GhLI-RLq4-46" value="&lt;font style=&quot;font-size: 12px;&quot;&gt;-3&lt;/font&gt;" style="text;html=1;align=center;verticalAlign=middle;resizable=0;points=[];autosize=1;strokeColor=none;fillColor=none;rotation=-90;fontSize=12;" vertex="1" parent="1">
          <mxGeometry x="175" y="522" width="30" height="30" as="geometry" />
        </mxCell>
        <mxCell id="Qysu87LrH2-GhLI-RLq4-47" value="&lt;font style=&quot;font-size: 12px;&quot;&gt;+3&lt;/font&gt;" style="text;html=1;align=center;verticalAlign=middle;resizable=0;points=[];autosize=1;strokeColor=none;fillColor=none;rotation=-90;fontSize=12;" vertex="1" parent="1">
          <mxGeometry x="170" y="622" width="40" height="30" as="geometry" />
        </mxCell>
      </root>
    </mxGraphModel>
  </diagram>
</mxfile>
